<svg xmlns="http://www.w3.org/2000/svg" width="632" height="422" fill="none"><path fill="#0F172A" stroke="#E5E7EB" stroke-width="4" d="M585.768 49.913H53.531c-15.464 0-28 12.536-28 28V391.6c0 15.464 12.536 28 28 28h532.237c15.464 0 28-12.536 28-28V77.913c0-15.464-12.536-28-28-28Z"/><path stroke="#E5E7EB" stroke-width="4" d="M529.705 77.091H488.94c-6.4 0-11.589 5.188-11.589 11.59 0 6.4 5.189 11.587 11.589 11.587h40.765c6.4 0 11.589-5.188 11.589-11.588 0-6.4-5.189-11.589-11.589-11.589Zm-86.061 0h-40.765c-6.4 0-11.589 5.188-11.589 11.59 0 6.4 5.189 11.587 11.589 11.587h40.765c6.4 0 11.589-5.188 11.589-11.588 0-6.4-5.189-11.589-11.589-11.589Zm-74.472 11.59c0-6.402-5.188-11.59-11.589-11.59-6.4 0-11.588 5.188-11.588 11.59 0 6.4 5.188 11.587 11.588 11.587 6.401 0 11.589-5.188 11.589-11.588Z"/><path fill="#E5E7EB" d="M99.053 292.315h79.058v28.953h33.296v-28.953h20.428v-27.908h-20.428v-107.85h-43.591L99.053 264.89v27.425Zm79.701-27.908h-44.636v-1.287l43.349-68.602h1.287v69.889Zm140.864 60.48c41.419 0 66.431-31.527 66.512-85.814.08-53.884-25.254-84.768-66.512-84.768-41.338 0-66.431 30.803-66.511 84.768-.161 54.126 25.012 85.733 66.511 85.814Zm0-28.873c-18.899 0-31.124-18.98-31.044-56.941.081-37.397 12.225-56.217 31.044-56.217 18.739 0 30.964 18.82 30.964 56.217.08 37.961-12.144 56.941-30.964 56.941Zm88.85-3.699h79.058v28.953h33.296v-28.953h20.428v-27.908h-20.428v-107.85h-43.591L408.468 264.89v27.425Zm79.701-27.908h-44.636v-1.287l43.349-68.602h1.287v69.889Z"/><path stroke="#E5E7EB" stroke-width="4" d="M81.547 86.415a9.325 9.325 0 1 0-18.65.001 9.325 9.325 0 0 0 18.65 0Z"/><path fill="#0E9F6E" d="M33.198 298.712c6.535 0 11.833 5.298 11.833 11.833s-5.298 11.833-11.833 11.833-11.833-5.298-11.833-11.833 5.298-11.833 11.833-11.833Zm589.706-127.755c-7.925 4.575-18.058 1.86-22.634-6.065-4.575-7.925-1.86-18.058 6.065-22.634 7.925-4.575 18.058-1.86 22.634 6.065 4.575 7.925 1.86 18.058-6.065 22.634Z"/><path fill="#E5E7EB" d="M313.313 100.921c-6.82 0-12.349-5.53-12.349-12.35s5.529-12.348 12.349-12.348 12.349 5.529 12.349 12.349-5.529 12.349-12.349 12.349Z"/><path fill="#0E9F6E" d="M165.66 59.268c9.077 0 16.435-7.358 16.435-16.435 0-9.077-7.358-16.435-16.435-16.435-9.077 0-16.435 7.358-16.435 16.435 0 9.077 7.358 16.435 16.435 16.435ZM400.614 341.2c-7.505 0-13.589 6.084-13.589 13.589 0 7.505 6.084 13.589 13.589 13.589 7.505 0 13.589-6.084 13.589-13.589 0-7.505-6.084-13.589-13.589-13.589Z"/><path fill="#E5E7EB" d="M149.26 393.358c-6.898 0-12.49-5.592-12.49-12.49 0-6.898 5.592-12.49 12.49-12.49 6.898 0 12.49 5.592 12.49 12.49 0 6.898-5.592 12.49-12.49 12.49Zm125.007-58.801c4.477 2.584 6.011 8.309 3.426 12.786a9.36 9.36 0 1 1-3.426-12.786Zm308.69-260.08-17.024 17.025a1.589 1.589 0 0 0 2.245 2.245l17.024-17.024a1.589 1.589 0 1 0-2.245-2.245Zm-1.666 12.191-4.909 4.909a1.587 1.587 0 1 0 2.245 2.245l4.909-4.909a1.588 1.588 0 1 0-2.245-2.245ZM57.886 375.044l-15.234 15.234a1.42 1.42 0 0 0 0 2.008l.001.001a1.42 1.42 0 0 0 2.008 0l15.234-15.234a1.42 1.42 0 0 0 0-2.008l-.001-.001a1.419 1.419 0 0 0-2.008 0Zm-1.491 10.906-4.394 4.394a1.42 1.42 0 0 0 0 2.008l.001.001a1.42 1.42 0 0 0 2.008 0l4.394-4.394a1.419 1.419 0 0 0 0-2.008l-.001-.001a1.419 1.419 0 0 0-2.008 0Zm512.516 9.616 20.731-20.732a1.933 1.933 0 1 0-2.734-2.734l-20.731 20.732a1.933 1.933 0 1 0 2.734 2.734Zm2.029-14.843 5.979-5.979a1.933 1.933 0 0 0-2.733-2.734l-5.98 5.979a1.933 1.933 0 1 0 2.734 2.734Z"/><path fill="#E5E7EB" fill-rule="evenodd" d="M556.929 13.773h3.304c.799 0 1.442.65 1.442 1.442v3.304c0 .799-.65 1.442-1.442 1.442h-3.304c-.792 0-1.442-.65-1.442-1.442v-3.304a1.452 1.452 0 0 1 .421-1.02 1.44 1.44 0 0 1 1.021-.422Zm11.455 0h3.304c.792 0 1.442.65 1.442 1.442v3.304c0 .799-.65 1.442-1.442 1.442h-3.304c-.792 0-1.442-.65-1.442-1.442v-3.304c0-.792.65-1.442 1.442-1.442Zm11.463 0h3.304c.793 0 1.443.65 1.443 1.442v3.304c0 .799-.65 1.442-1.443 1.442h-3.304c-.792 0-1.442-.65-1.442-1.442v-3.304a1.452 1.452 0 0 1 .421-1.02 1.44 1.44 0 0 1 1.021-.422Zm11.456 0h3.304c.792 0 1.442.65 1.442 1.442v3.304c0 .799-.65 1.442-1.442 1.442h-3.304a1.45 1.45 0 0 1-1.449-1.442v-3.304a1.455 1.455 0 0 1 1.449-1.442Zm11.456 0h3.304c.799 0 1.449.65 1.449 1.442v3.304c0 .799-.65 1.442-1.449 1.442h-3.304c-.792 0-1.442-.65-1.442-1.442v-3.304c0-.792.65-1.442 1.442-1.442Zm-33.955 12.492h3.304c.793 0 1.443.65 1.443 1.442v3.311c0 .792-.65 1.442-1.443 1.442h-3.304c-.799 0-1.442-.65-1.442-1.442v-3.304a1.442 1.442 0 0 1 .419-1.025 1.459 1.459 0 0 1 1.023-.424Zm11.456 0h3.304c.792 0 1.442.65 1.442 1.442v3.311c0 .792-.65 1.442-1.442 1.442h-3.304c-.792 0-1.442-.65-1.442-1.442v-3.304a1.442 1.442 0 0 1 .419-1.025 1.459 1.459 0 0 1 1.023-.424Zm11.456 0h3.304c.799 0 1.449.65 1.449 1.442v3.311a1.452 1.452 0 0 1-1.449 1.442h-3.304c-.792 0-1.442-.65-1.442-1.442v-3.304c0-.799.65-1.449 1.442-1.449ZM579.847.353h3.304c.793 0 1.443.65 1.443 1.442V5.1c0 .798-.65 1.442-1.443 1.442h-3.304c-.792 0-1.442-.65-1.442-1.442V1.795c0-.19.037-.377.109-.552a1.433 1.433 0 0 1 .781-.781 1.44 1.44 0 0 1 .552-.109Zm11.456 0h3.304c.792 0 1.442.65 1.442 1.442V5.1c0 .798-.65 1.442-1.442 1.442h-3.304a1.451 1.451 0 0 1-1.022-.422 1.452 1.452 0 0 1-.427-1.02V1.795c.004-.382.158-.748.429-1.017a1.46 1.46 0 0 1 1.02-.425Z" clip-rule="evenodd"/><path fill="#0E9F6E" fill-rule="evenodd" d="M45.382 235.922c-24.64 0-44.617-20.259-44.617-45.246 0-24.987 19.977-45.245 44.617-45.245 24.64 0 44.617 20.258 44.617 45.245s-19.977 45.246-44.617 45.246Z" clip-rule="evenodd"/><path stroke="#fff" stroke-linecap="round" stroke-linejoin="round" stroke-width="7.405" d="m61.357 171.476-18.848 20.109-11.316-12.064"/><path stroke="#fff" stroke-linecap="round" stroke-linejoin="round" stroke-width="7.405" d="m23.678 210.835 18.848-20.109 11.316 12.064"/></svg>