<svg xmlns="http://www.w3.org/2000/svg" width="632" height="422" fill="none"><path fill="#0F172A" stroke="#E5E7EB" stroke-width="4" d="M585.768 49.9131H53.531c-15.464 0-28 12.536-28 28V391.6c0 15.464 12.536 28 28 28h532.237c15.464 0 28-12.536 28-28V77.9131c0-15.464-12.536-28-28-28Z"/><path stroke="#E5E7EB" stroke-width="4" d="M529.705 77.0911H488.94c-6.4 0-11.589 5.188-11.589 11.589 0 6.4 5.189 11.5879 11.589 11.5879h40.765c6.4 0 11.589-5.1879 11.589-11.5879 0-6.401-5.189-11.589-11.589-11.589ZM443.644 77.0911h-40.765c-6.4 0-11.589 5.188-11.589 11.589 0 6.4 5.189 11.5879 11.589 11.5879h40.765c6.4 0 11.589-5.1879 11.589-11.5879 0-6.401-5.189-11.589-11.589-11.589ZM369.172 88.6801c0-6.401-5.188-11.589-11.589-11.589-6.4 0-11.588 5.188-11.588 11.589 0 6.4 5.188 11.5879 11.588 11.5879 6.401 0 11.589-5.1879 11.589-11.5879Z"/><path fill="#E5E7EB" d="M99.053 292.315h79.058v28.953h33.296v-28.953h20.428v-27.908h-20.428v-107.85h-43.591L99.053 264.89v27.425Zm79.701-27.908h-44.636v-1.287l43.349-68.602h1.287v69.889Zm140.864 60.48c41.419 0 66.431-31.527 66.512-85.814.08-53.884-25.254-84.768-66.512-84.768-41.338 0-66.431 30.803-66.511 84.768-.161 54.126 25.012 85.733 66.511 85.814Zm0-28.873c-18.899 0-31.124-18.98-31.044-56.941.081-37.397 12.225-56.217 31.044-56.217 18.739 0 30.964 18.82 30.964 56.217.08 37.961-12.144 56.941-30.964 56.941Zm88.85-3.699h79.058v28.953h33.296v-28.953h20.428v-27.908h-20.428v-107.85h-43.591L408.468 264.89v27.425Zm79.701-27.908h-44.636v-1.287l43.349-68.602h1.287v69.889Z"/><path stroke="#E5E7EB" stroke-width="4" d="M81.547 86.4151c0-5.149-4.175-9.324-9.324-9.324-5.15 0-9.324 4.175-9.324 9.324 0 5.15 4.174 9.324 9.324 9.324 5.149 0 9.324-4.174 9.324-9.324Z"/><path fill="#0E9F6E" d="M33.198 298.712c6.535 0 11.833 5.298 11.833 11.833s-5.298 11.833-11.833 11.833-11.833-5.298-11.833-11.833 5.298-11.833 11.833-11.833ZM622.904 170.957c-7.925 4.575-18.058 1.86-22.634-6.065-4.575-7.925-1.86-18.058 6.065-22.634 7.925-4.575 18.058-1.86 22.634 6.065 4.575 7.925 1.86 18.058-6.065 22.634Z"/><path fill="#E5E7EB" d="M313.313 100.921c-6.82 0-12.349-5.5291-12.349-12.3491s5.529-12.349 12.349-12.349 12.349 5.529 12.349 12.349-5.529 12.3491-12.349 12.3491Z"/><path fill="#0E9F6E" d="M165.66 59.2681c9.077 0 16.435-7.3581 16.435-16.4351 0-9.077-7.358-16.4351-16.435-16.4351-9.077 0-16.435 7.3581-16.435 16.4351 0 9.077 7.358 16.4351 16.435 16.4351ZM400.614 341.2c-7.505 0-13.589 6.084-13.589 13.589 0 7.505 6.084 13.589 13.589 13.589 7.505 0 13.589-6.084 13.589-13.589 0-7.505-6.084-13.589-13.589-13.589Z"/><path fill="#E5E7EB" d="M149.26 393.358c-6.898 0-12.49-5.592-12.49-12.49 0-6.898 5.592-12.49 12.49-12.49 6.898 0 12.49 5.592 12.49 12.49 0 6.898-5.592 12.49-12.49 12.49ZM274.267 334.557c4.477 2.584 6.011 8.309 3.426 12.786-2.584 4.477-8.309 6.01-12.786 3.426-4.477-2.585-6.01-8.309-3.426-12.786 2.585-4.477 8.309-6.011 12.786-3.426ZM582.957 74.4779l-17.024 17.024c-.62.62-.62 1.6261 0 2.2461.619.619 1.625.6189 2.245-.0011l17.024-17.0239c.62-.62.621-1.626.001-2.246-.62-.62-1.626-.6191-2.246.0009ZM581.291 86.668l-4.909 4.909c-.62.62-.62 1.626 0 2.245.619.62 1.625.62 2.245 0l4.909-4.909c.621-.62.621-1.626.001-2.246-.62-.62-1.626-.62-2.246.001ZM57.886 375.044l-15.234 15.234c-.554.554-.554 1.454 0 2.008l.001.001c.554.554 1.453.554 2.008 0l15.234-15.234c.554-.555.554-1.454 0-2.008l-.001-.001c-.554-.555-1.453-.555-2.008 0ZM56.395 385.95l-4.394 4.394c-.554.554-.554 1.454 0 2.008l.001.001c.554.554 1.453.554 2.008 0l4.394-4.394c.555-.555.555-1.454 0-2.008l-.001-.001c-.554-.555-1.453-.555-2.008 0ZM568.911 395.566l20.731-20.732c.755-.755.755-1.979 0-2.734-.755-.755-1.979-.755-2.734 0l-20.731 20.732c-.755.755-.755 1.979 0 2.734.755.754 1.979.754 2.734 0ZM570.94 380.723l5.979-5.979c.755-.755.755-1.979 0-2.734-.755-.755-1.979-.755-2.733 0l-5.98 5.979c-.755.755-.755 1.979 0 2.734.755.755 1.979.755 2.734 0Z"/><path fill="#E5E7EB" fill-rule="evenodd" d="M556.929 13.773h3.304c.799 0 1.442.65 1.442 1.442v3.304c0 .799-.65 1.442-1.442 1.442h-3.304c-.792 0-1.442-.65-1.442-1.442v-3.304c0-.189.037-.377.109-.552.072-.175.178-.335.312-.468a1.4397 1.4397 0 0 1 1.021-.422Zm11.455 0h3.304c.792 0 1.442.65 1.442 1.442v3.304c0 .799-.65 1.442-1.442 1.442h-3.304c-.792 0-1.442-.65-1.442-1.442v-3.304c0-.792.65-1.442 1.442-1.442Zm11.463 0h3.304c.793 0 1.443.65 1.443 1.442v3.304c0 .799-.65 1.442-1.443 1.442h-3.304c-.792 0-1.442-.65-1.442-1.442v-3.304c0-.189.037-.377.109-.552.072-.175.178-.335.312-.468a1.4397 1.4397 0 0 1 1.021-.422Zm11.456 0h3.304c.792 0 1.442.65 1.442 1.442v3.304c0 .799-.65 1.442-1.442 1.442h-3.304c-.383 0-.75-.152-1.022-.422-.271-.27-.425-.637-.427-1.02v-3.304c.004-.382.158-.748.429-1.017.271-.27.638-.423 1.02-.425Zm11.456 0h3.304c.799 0 1.449.65 1.449 1.442v3.304c0 .799-.65 1.442-1.449 1.442h-3.304c-.792 0-1.442-.65-1.442-1.442v-3.304c0-.792.65-1.442 1.442-1.442Zm-33.955 12.492h3.304c.793 0 1.443.65 1.443 1.442v3.311c0 .792-.65 1.442-1.443 1.442h-3.304c-.799 0-1.442-.65-1.442-1.442v-3.304a1.4416 1.4416 0 0 1 .419-1.025c.134-.134.294-.241.469-.314.176-.073.364-.11.554-.11Zm11.456 0h3.304c.792 0 1.442.65 1.442 1.442v3.311c0 .792-.65 1.442-1.442 1.442h-3.304c-.792 0-1.442-.65-1.442-1.442v-3.304a1.4416 1.4416 0 0 1 .419-1.025c.134-.134.294-.241.469-.314.176-.073.364-.11.554-.11Zm11.456 0h3.304c.799 0 1.449.65 1.449 1.442v3.311c-.002.383-.156.75-.427 1.02-.272.27-.639.422-1.022.422h-3.304c-.792 0-1.442-.65-1.442-1.442v-3.304c0-.799.65-1.449 1.442-1.449ZM579.847.353h3.304c.793 0 1.443.65 1.443 1.442V5.1c0 .798-.65 1.442-1.443 1.442h-3.304c-.792 0-1.442-.65-1.442-1.442V1.795c0-.1894.037-.377.109-.5523a1.4325 1.4325 0 0 1 .781-.7807c.175-.0723.363-.1094.552-.109Zm11.456 0h3.304c.792 0 1.442.65 1.442 1.442V5.1c0 .798-.65 1.442-1.442 1.442h-3.304a1.451 1.451 0 0 1-1.022-.4222 1.4515 1.4515 0 0 1-.427-1.0198V1.795c.004-.3823.158-.7477.429-1.0174a1.4597 1.4597 0 0 1 1.02-.4246Z" clip-rule="evenodd"/><path fill="#0E9F6E" fill-rule="evenodd" d="M45.382 235.922c-24.64 0-44.617-20.259-44.617-45.246 0-24.987 19.977-45.245 44.617-45.245 24.64 0 44.617 20.258 44.617 45.245s-19.977 45.246-44.617 45.246Z" clip-rule="evenodd"/><path stroke="#fff" stroke-linecap="round" stroke-linejoin="round" stroke-width="7.405" d="m61.357 171.476-18.848 20.109-11.316-12.064"/><path stroke="#fff" stroke-linecap="round" stroke-linejoin="round" stroke-width="7.405" d="m23.678 210.835 18.848-20.109 11.316 12.064"/></svg>