<svg width="12" height="12" viewBox="0 0 12 12" fill="none" xmlns="http://www.w3.org/2000/svg">
<path d="M8.91667 8.72217L11.25 6.38883M11.25 6.38883L8.91667 4.0555M11.25 6.38883H3.08333M6.58333 8.72217V9.3055C6.58333 9.7696 6.39896 10.2147 6.07077 10.5429C5.74258 10.8711 5.29746 11.0555 4.83333 11.0555H2.5C2.03587 11.0555 1.59075 10.8711 1.26256 10.5429C0.934372 10.2147 0.75 9.7696 0.75 9.3055V3.47217C0.75 3.00804 0.934372 2.56292 1.26256 2.23473C1.59075 1.90654 2.03587 1.72217 2.5 1.72217H4.83333C5.29746 1.72217 5.74258 1.90654 6.07077 2.23473C6.39896 2.56292 6.58333 3.00804 6.58333 3.47217V4.0555" stroke="#F05252" stroke-width="1.5" stroke-linecap="round" stroke-linejoin="round"/>
</svg>
