<svg xmlns="http://www.w3.org/2000/svg" width="20" height="20" fill="none"><path fill="#253047" fill-rule="evenodd" d="M3.707 2.293a1 1 0 0 0-1.414 1.414l14 14a.9997.9997 0 0 0 1.4019-.0122 1 1 0 0 0 .0121-1.4018l-1.473-1.473A10.0136 10.0136 0 0 0 19.542 10C18.268 5.943 14.478 3 10 3a9.9578 9.9578 0 0 0-4.512 1.074l-1.78-1.781h-.001Zm4.261 4.26 1.514 1.515a2.003 2.003 0 0 1 2.45 2.45l1.514 1.514a4.0002 4.0002 0 0 0-.6161-4.8618A4.0003 4.0003 0 0 0 7.968 6.554v-.001Z" clip-rule="evenodd"/><path fill="#253047" d="M12.454 16.697 9.75 13.992a3.9999 3.9999 0 0 1-3.742-3.741L2.335 6.578A9.98 9.98 0 0 0 .458 10c1.274 4.057 5.065 7 9.542 7 .847 0 1.669-.105 2.454-.303Z"/></svg>