<svg width="20" height="20" viewBox="0 0 20 20" fill="none" xmlns="http://www.w3.org/2000/svg">
<path fill-rule="evenodd" clip-rule="evenodd" d="M18 8C18.0003 8.93717 17.781 9.86137 17.3598 10.6985C16.9386 11.5357 16.3271 12.2626 15.5744 12.8209C14.8216 13.3792 13.9486 13.7534 13.0252 13.9135C12.1018 14.0736 11.1538 14.0152 10.257 13.743L10 14L9 15L8 16H6V18H2V14L6.257 9.743C6.00745 8.91801 5.93857 8.04894 6.05504 7.19495C6.17152 6.34095 6.47062 5.52207 6.93199 4.79405C7.39336 4.06602 8.00616 3.44594 8.72869 2.97602C9.45122 2.50609 10.2665 2.19735 11.1191 2.0708C11.9716 1.94426 12.8415 2.00288 13.6693 2.24268C14.4972 2.48249 15.2637 2.89784 15.9166 3.46046C16.5696 4.02309 17.0936 4.71979 17.4531 5.50314C17.8127 6.28649 17.9992 7.1381 18 8ZM12 4C11.7348 4 11.4804 4.10536 11.2929 4.29289C11.1054 4.48043 11 4.73478 11 5C11 5.26522 11.1054 5.51957 11.2929 5.70711C11.4804 5.89464 11.7348 6 12 6C12.5304 6 13.0391 6.21071 13.4142 6.58579C13.7893 6.96086 14 7.46957 14 8C14 8.26522 14.1054 8.51957 14.2929 8.70711C14.4804 8.89464 14.7348 9 15 9C15.2652 9 15.5196 8.89464 15.7071 8.70711C15.8946 8.51957 16 8.26522 16 8C16 6.93913 15.5786 5.92172 14.8284 5.17157C14.0783 4.42143 13.0609 4 12 4Z" fill="#253047"/>
</svg>
