<svg width="24" height="24" viewBox="0 0 16 16" fill="none" xmlns="http://www.w3.org/2000/svg">
<path d="M12.8 3.70001L12.8001 3.70001C13.0808 3.69996 13.351 3.80724 13.5552 3.99989C13.6823 4.11984 13.7779 4.26723 13.8359 4.42905L8.00002 7.34661L2.16416 4.42905C2.22213 4.26723 2.31773 4.11984 2.44487 3.99989C2.64907 3.80724 2.9192 3.69996 3.19993 3.70001H3.20002L12.8 3.70001Z" fill="#253047" stroke="#253047"/>
<path d="M14.4 6.49438L7.99998 9.69438L1.59998 6.49438V11.2C1.59998 11.6243 1.76855 12.0313 2.0686 12.3314C2.36866 12.6314 2.77563 12.8 3.19998 12.8H12.8C13.2243 12.8 13.6313 12.6314 13.9313 12.3314C14.2314 12.0313 14.4 11.6243 14.4 11.2V6.49438Z" fill="#253047"/>
</svg>
