<svg width="32" height="33" viewBox="0 0 32 33" fill="none" xmlns="http://www.w3.org/2000/svg">
<rect y="0.981689" width="32" height="32" rx="8" fill="#771D1D"/>
<path d="M18.5 21.1484H22.6667L21.4959 19.9775C21.3386 19.8203 21.2139 19.6336 21.1289 19.4281C21.0438 19.2226 21 19.0024 21 18.78V16.1484C21.0002 15.1141 20.6797 14.1053 20.0827 13.2608C19.4858 12.4162 18.6417 11.7775 17.6667 11.4325V11.1484C17.6667 10.7063 17.4911 10.2824 17.1786 9.96984C16.866 9.65728 16.4421 9.48169 16 9.48169C15.558 9.48169 15.1341 9.65728 14.8215 9.96984C14.509 10.2824 14.3334 10.7063 14.3334 11.1484V11.4325C12.3917 12.1192 11 13.9717 11 16.1484V18.7809C11 19.2292 10.8217 19.66 10.5042 19.9775L9.33337 21.1484H13.5M18.5 21.1484H13.5M18.5 21.1484V21.9817C18.5 22.6447 18.2366 23.2806 17.7678 23.7495C17.299 24.2183 16.6631 24.4817 16 24.4817C15.337 24.4817 14.7011 24.2183 14.2323 23.7495C13.7634 23.2806 13.5 22.6447 13.5 21.9817V21.1484" stroke="#F98080" stroke-width="2" stroke-linecap="round" stroke-linejoin="round"/>
</svg>
