<svg width="24" height="24" viewBox="0 0 24 24" fill="none" xmlns="http://www.w3.org/2000/svg">
<path fill-rule="evenodd" clip-rule="evenodd" d="M5.1516 5.15162C5.37663 4.92666 5.6818 4.80028 6 4.80028C6.3182 4.80028 6.62336 4.92666 6.8484 5.15162L12 10.3032L17.1516 5.15162C17.2623 5.03701 17.3947 4.94559 17.5411 4.8827C17.6875 4.81981 17.845 4.78671 18.0043 4.78532C18.1637 4.78394 18.3217 4.8143 18.4691 4.87464C18.6166 4.93497 18.7506 5.02408 18.8633 5.13675C18.9759 5.24942 19.065 5.3834 19.1254 5.53088C19.1857 5.67835 19.2161 5.83637 19.2147 5.99571C19.2133 6.15504 19.1802 6.3125 19.1173 6.45891C19.0544 6.60531 18.963 6.73773 18.8484 6.84842L13.6968 12L18.8484 17.1516C19.067 17.3779 19.1879 17.6811 19.1852 17.9957C19.1825 18.3103 19.0563 18.6113 18.8338 18.8338C18.6113 19.0563 18.3103 19.1825 17.9957 19.1852C17.681 19.188 17.3779 19.067 17.1516 18.8484L12 13.6968L6.8484 18.8484C6.62208 19.067 6.31895 19.188 6.00432 19.1852C5.68968 19.1825 5.38871 19.0563 5.16622 18.8338C4.94373 18.6113 4.81752 18.3103 4.81479 17.9957C4.81206 17.6811 4.93301 17.3779 5.1516 17.1516L10.3032 12L5.1516 6.84842C4.92663 6.62339 4.80025 6.31822 4.80025 6.00002C4.80025 5.68183 4.92663 5.37666 5.1516 5.15162V5.15162Z" fill="#38a169"/>
</svg>
