<svg xmlns="http://www.w3.org/2000/svg" width="24" height="24" fill="none" viewBox="0 0 20 20"><path fill="#38a169" d="M2 10.5a1.5002 1.5002 0 0 1 2.5607-1.0607A1.5 1.5 0 0 1 5 10.5v6a1.5001 1.5001 0 0 1-2.5607 1.0607A1.5001 1.5001 0 0 1 2 16.5v-6Zm4-.167v5.43a2 2 0 0 0 1.106 1.79l.05.025A4.0005 4.0005 0 0 0 8.943 18h5.416a2.0003 2.0003 0 0 0 1.962-1.608l1.2-6a1.9996 1.9996 0 0 0-1.1055-2.1997A2.0002 2.0002 0 0 0 15.56 8H12V4a1.9999 1.9999 0 0 0-2-2 1 1 0 0 0-1 1v.667a4 4 0 0 1-.8 2.4L6.8 7.933a4 4 0 0 0-.8 2.4Z"/></svg>