<svg xmlns="http://www.w3.org/2000/svg" width="14" height="14" fill="none"><mask id="a" fill="#fff"><path fill-rule="evenodd" d="M11.6947 3.705a.7.7 0 0 1 0 .9899l-5.6 5.6a.7.7 0 0 1-.9898 0l-2.8-2.8a.7.7 0 0 1 .9898-.9898L5.5998 8.81l5.1051-5.105a.7.7 0 0 1 .9898 0Z" clip-rule="evenodd"/></mask><path fill="#1F2A37" fill-rule="evenodd" d="M11.6947 3.705a.7.7 0 0 1 0 .9899l-5.6 5.6a.7.7 0 0 1-.9898 0l-2.8-2.8a.7.7 0 0 1 .9898-.9898L5.5998 8.81l5.1051-5.105a.7.7 0 0 1 .9898 0Z" clip-rule="evenodd"/><path fill="#fff" d="m11.6947 3.705 1.0608-1.0604-.0003-.0004-1.0605 1.0609Zm.2049.495h1.5-1.5Zm-.2049.4949 1.0607 1.0606.0001-.0001-1.0608-1.0605Zm-5.6 5.6 1.0605 1.0608.0002-.0002-1.0607-1.0606Zm-.9898 0-1.0607 1.0606.0002.0002 1.0605-1.0608Zm-2.8-2.8-1.079 1.042.0091.0094.0092.0092L2.305 7.495Zm.9898-.9898 1.0607-1.0607-.0093-.0092-.0093-.009L3.2947 6.505ZM5.5998 8.81 4.5391 9.8709l1.0607 1.0607 1.0607-1.0607-1.0607-1.0606Zm5.1051-5.105L9.6444 2.6443l-.0002.0001 1.0607 1.0607Zm.4949-.205v1.5-1.5Zm-.5659 1.2655a.8.8 0 0 1-.2343-.5656h3a2.1997 2.1997 0 0 0-.6441-1.5554l-2.1216 2.121ZM10.3996 4.2a.8.8 0 0 1 .2343-.5656l2.1216 2.121A2.1997 2.1997 0 0 0 13.3996 4.2h-3Zm.2344-.5658-5.6 5.6 2.1214 2.1213 5.6-5.6-2.1214-2.1213ZM5.0342 9.234a.8.8 0 0 1 .5656-.2342v3a2.2001 2.2001 0 0 0 1.5554-.6441L5.0342 9.234Zm.5656-.2342a.8.8 0 0 1 .5656.2342l-2.121 2.1217c.4126.4124.972.6441 1.5554.6441v-3Zm.5658.2344-2.8-2.8-2.1214 2.1213 2.8 2.8 2.1214-2.1213ZM3.3838 6.4528a.8.8 0 0 1 .2246.5627l-3-.026a2.2 2.2 0 0 0 .6176 1.5474l2.1578-2.0841Zm.2246.5627a.8.8 0 0 1-.2343.5588L1.2528 5.4529a2.2 2.2 0 0 0-.6443 1.5366l2.9999.026Zm-.2343.5588a.8.8 0 0 1-.5587.2342l-.0261-2.9998a2.2 2.2 0 0 0-1.5365.6442L3.374 7.5743Zm-.5587.2342a.8.8 0 0 1-.5628-.2245l2.0842-2.1579a2.2 2.2 0 0 0-1.5475-.6174l.026 2.9998Zm-.5814-.2428 2.3051 2.3051 2.1214-2.1213-2.3051-2.305L2.234 7.5656Zm4.4265 2.3051 5.1051-5.105-2.1214-2.1214-5.105 5.1051 2.1213 2.1213Zm5.1049-5.105a.8.8 0 0 1-.5656.2343v-3a2.2 2.2 0 0 0-1.5554.6441l2.121 2.1217Zm-.5656.2343a.8.8 0 0 1-.5656-.2342l2.121-2.1217a2.2 2.2 0 0 0-1.5554-.644v3Z" mask="url(#a)"/></svg>