<svg xmlns="http://www.w3.org/2000/svg" width="216" height="216" fill="none"><path fill="#718096" d="M162 99c0-8.631-6.12-15.849-14.229-17.586C151.011 76.005 153 69.75 153 63c0-19.854-16.146-36-36-36-13.653 0-25.389 7.713-31.5 18.936C79.389 34.713 67.653 27 54 27c-19.854 0-36 16.146-36 36 0 8.118 2.808 15.543 7.353 21.564A17.9456 17.9456 0 0 0 18 99v72c0 9.927 8.073 18 18 18h108c9.927 0 18-8.073 18-18v-23.742l36 18v-63l-36 18V99Zm-45-54c9.927 0 18 8.073 18 18s-8.073 18-18 18-18-8.073-18-18 8.073-18 18-18Zm-63 0c9.927 0 18 8.073 18 18s-8.073 18-18 18-18-8.073-18-18 8.073-18 18-18ZM36 171V99h108l.018 72H36Z"/></svg>