<svg xmlns="http://www.w3.org/2000/svg" width="16" height="17" fill="none"><path fill="#fff" d="M4 3.7a.8.8 0 0 0-1.6 0v5.8144A1.6002 1.6002 0 0 0 1.8144 11.7c.1404.2432.3424.4452.5856.5856V13.3a.8.8 0 1 0 1.6 0v-1.0144A1.5998 1.5998 0 0 0 4.5856 10.1 1.6002 1.6002 0 0 0 4 9.5144V3.7Zm4.8 0a.8.8 0 1 0-1.6 0v1.0144a1.6 1.6 0 0 0 0 2.7712V13.3a.8.8 0 1 0 1.6 0V7.4856a1.6 1.6 0 0 0 0-2.7712V3.7Zm4-.8a.8.8 0 0 1 .8.8v5.8144a1.6002 1.6002 0 0 1 .5856 2.1856 1.5998 1.5998 0 0 1-.5856.5856V13.3a.8.8 0 1 1-1.6 0v-1.0144a1.5998 1.5998 0 0 1 0-2.7712V3.7a.8001.8001 0 0 1 .8-.8Z"/></svg>