<svg xmlns="http://www.w3.org/2000/svg" width="17" height="17" fill="none"><mask id="a" width="17" height="17" x="0" y="0" maskUnits="userSpaceOnUse" style="mask-type:luminance"><path fill="currentColor" d="M16.25.99H.26v15.99h15.99V.99Z"/></mask><g mask="url(#a)"><path fill="currentColor" d="M8.2548 1.2397c-4.2784 0-7.745 3.4665-7.745 7.745s3.4665 7.745 7.745 7.745 7.745-3.4665 7.745-7.745-3.4665-7.745-7.745-7.745Zm3.8038 5.306-1.2711 5.9898c-.0936.4247-.3466.5278-.6995.3279l-1.9362-1.4272-.9338.8995c-.103.103-.1905.1905-.3904.1905l.1374-1.9706 3.5883-3.2417c.1562-.1374-.0343-.2155-.2404-.078l-4.4347 2.7919-1.9112-.5965c-.4154-.1312-.4247-.4154.0874-.6152l7.467-2.8794c.3467-.125.6496.0843.5372.609Z"/></g></svg>