<svg width="32" height="33" viewBox="0 0 32 33" fill="none" xmlns="http://www.w3.org/2000/svg">
<rect y="0.993835" width="32" height="32" rx="8" fill="#014737"/>
<path fill-rule="evenodd" clip-rule="evenodd" d="M22.707 12.2868C22.8945 12.4744 22.9998 12.7287 22.9998 12.9938C22.9998 13.259 22.8945 13.5133 22.707 13.7008L14.707 21.7008C14.5195 21.8883 14.2652 21.9936 14 21.9936C13.7349 21.9936 13.4806 21.8883 13.293 21.7008L9.29304 17.7008C9.11088 17.5122 9.01009 17.2596 9.01237 16.9974C9.01465 16.7352 9.11981 16.4844 9.30522 16.299C9.49063 16.1136 9.74144 16.0084 10.0036 16.0062C10.2658 16.0039 10.5184 16.1047 10.707 16.2868L14 19.5798L21.293 12.2868C21.4806 12.0994 21.7349 11.994 22 11.994C22.2652 11.994 22.5195 12.0994 22.707 12.2868Z" fill="#31C48D"/>
</svg>
