<svg width="20" height="20" viewBox="0 0 20 20" fill="none" xmlns="http://www.w3.org/2000/svg">
<path fill-rule="evenodd" clip-rule="evenodd" d="M12.586 4.586C12.7705 4.39498 12.9911 4.24261 13.2351 4.13779C13.4792 4.03298 13.7416 3.9778 14.0072 3.9755C14.2727 3.97319 14.5361 4.02379 14.7819 4.12435C15.0277 4.22491 15.251 4.37342 15.4387 4.56121C15.6265 4.74899 15.775 4.9723 15.8756 5.21809C15.9762 5.46388 16.0268 5.72724 16.0245 5.9928C16.0222 6.25836 15.967 6.5208 15.8622 6.76481C15.7573 7.00881 15.605 7.2295 15.414 7.414L12.414 10.414C12.0389 10.7889 11.5303 10.9996 11 10.9996C10.4696 10.9996 9.96101 10.7889 9.58596 10.414C9.39736 10.2318 9.14475 10.131 8.88256 10.1333C8.62036 10.1356 8.36955 10.2408 8.18414 10.4262C7.99873 10.6116 7.89356 10.8624 7.89128 11.1246C7.88901 11.3868 7.9898 11.6394 8.17196 11.828C8.92207 12.5779 9.9393 12.9991 11 12.9991C12.0606 12.9991 13.0778 12.5779 13.828 11.828L16.828 8.828C17.5566 8.07359 17.9598 7.06318 17.9507 6.01439C17.9415 4.9656 17.5209 3.96235 16.7792 3.22072C16.0376 2.47909 15.0344 2.05841 13.9856 2.0493C12.9368 2.04019 11.9264 2.44336 11.172 3.172L9.67196 4.672C9.57645 4.76424 9.50027 4.87459 9.44786 4.99659C9.39545 5.1186 9.36786 5.24982 9.36671 5.38259C9.36555 5.51537 9.39086 5.64705 9.44114 5.76995C9.49142 5.89285 9.56567 6.0045 9.65956 6.09839C9.75346 6.19228 9.86511 6.26654 9.988 6.31682C10.1109 6.3671 10.2426 6.3924 10.3754 6.39125C10.5081 6.39009 10.6394 6.36251 10.7614 6.3101C10.8834 6.25769 10.9937 6.18151 11.086 6.086L12.586 4.586ZM7.58596 9.586C7.96101 9.21105 8.46963 9.00042 8.99996 9.00042C9.53029 9.00042 10.0389 9.21105 10.414 9.586C10.5062 9.68151 10.6166 9.75769 10.7386 9.8101C10.8606 9.86251 10.9918 9.89009 11.1246 9.89125C11.2573 9.8924 11.389 9.8671 11.5119 9.81682C11.6348 9.76654 11.7465 9.69228 11.8404 9.59839C11.9342 9.5045 12.0085 9.39285 12.0588 9.26995C12.1091 9.14705 12.1344 9.01537 12.1332 8.8826C12.1321 8.74982 12.1045 8.6186 12.0521 8.49659C11.9997 8.37459 11.9235 8.26424 11.828 8.172C11.0778 7.42211 10.0606 7.00085 8.99996 7.00085C7.9393 7.00085 6.92207 7.42211 6.17196 8.172L3.17196 11.172C2.78992 11.541 2.48519 11.9824 2.27555 12.4704C2.06592 12.9584 1.95557 13.4833 1.95096 14.0144C1.94634 14.5455 2.04755 15.0722 2.24867 15.5638C2.4498 16.0554 2.74681 16.502 3.12238 16.8776C3.49795 17.2531 3.94456 17.5502 4.43614 17.7513C4.92773 17.9524 5.45445 18.0536 5.98556 18.049C6.51668 18.0444 7.04156 17.934 7.52958 17.7244C8.01759 17.5148 8.45897 17.21 8.82796 16.828L10.328 15.328C10.4235 15.2357 10.4997 15.1254 10.5521 15.0034C10.6045 14.8814 10.6321 14.7502 10.6332 14.6174C10.6344 14.4846 10.6091 14.3529 10.5588 14.23C10.5085 14.1071 10.4342 13.9955 10.3404 13.9016C10.2465 13.8077 10.1348 13.7335 10.0119 13.6832C9.88902 13.6329 9.75734 13.6076 9.62456 13.6087C9.49178 13.6099 9.36056 13.6375 9.23855 13.6899C9.11655 13.7423 9.00621 13.8185 8.91396 13.914L7.41396 15.414C7.22947 15.605 7.00878 15.7574 6.76477 15.8622C6.52076 15.967 6.25832 16.0222 5.99276 16.0245C5.7272 16.0268 5.46384 15.9762 5.21805 15.8756C4.97226 15.7751 4.74895 15.6266 4.56117 15.4388C4.37338 15.251 4.22488 15.0277 4.12432 14.7819C4.02375 14.5361 3.97315 14.2728 3.97546 14.0072C3.97777 13.7416 4.03294 13.4792 4.13776 13.2352C4.24257 12.9912 4.39494 12.7705 4.58596 12.586L7.58596 9.586Z" fill="#38a169"/>
</svg>
