<svg xmlns="http://www.w3.org/2000/svg" width="17" height="17"><g clip-path="url(#a)"><path fill="currentColor" d="M8.238 5.3934c-1.9863 0-3.5883 1.602-3.5883 3.5883 0 1.9862 1.602 3.5883 3.5882 3.5883 1.9863 0 3.5883-1.6021 3.5883-3.5883 0-1.9862-1.602-3.5883-3.5883-3.5883Zm0 5.9211c-1.2836 0-2.333-1.0462-2.333-2.3328 0-1.2867 1.0463-2.3329 2.333-2.3329 1.2866 0 2.3328 1.0462 2.3328 2.3329 0 1.2866-1.0493 2.3328-2.3329 2.3328Zm4.572-6.0679a.835.835 0 0 1-.837.837.835.835 0 0 1-.8369-.837.837.837 0 0 1 1.6739 0Zm2.3766.8495c-.0531-1.1212-.3092-2.1143-1.1306-2.9325-.8182-.8182-1.8113-1.0743-2.9324-1.1305-1.1555-.0656-4.6189-.0656-5.7744 0-1.118.053-2.1111.3091-2.9325 1.1274-.8213.8182-1.0743 1.8113-1.1305 2.9324-.0656 1.1555-.0656 4.6189 0 5.7744.0531 1.1211.3092 2.1143 1.1305 2.9325.8214.8182 1.8113 1.0743 2.9325 1.1305 1.1555.0656 4.6189.0656 5.7744 0 1.1211-.0531 2.1142-.3092 2.9324-1.1305.8183-.8182 1.0743-1.8114 1.1306-2.9325.0655-1.1555.0655-4.6158 0-5.7712Zm-1.4928 7.011c-.2436.6121-.7152 1.0837-1.3304 1.3304-.9213.3654-3.1074.2811-4.1255.2811-1.018 0-3.2072.0812-4.1254-.2811-.6121-.2436-1.0837-.7152-1.3304-1.3304-.3654-.9213-.281-3.1073-.281-4.1254s-.0813-3.2073.281-4.1255c.2436-.612.7152-1.0836 1.3304-1.3304.9213-.3653 3.1074-.281 4.1254-.281 1.0181 0 3.2073-.0812 4.1255.281.6121.2436 1.0837.7152 1.3304 1.3304.3654.9213.281 3.1074.281 4.1255 0 1.018.0844 3.2073-.281 4.1254Z"/></g><defs><clipPath id="a"><path fill="currentColor" d="M.24.99h15.99v15.99H.24z"/></clipPath></defs></svg>