<svg width="24" height="25" fill="none" xmlns="http://www.w3.org/2000/svg"><mask id="a" style="mask-type:luminance" maskUnits="userSpaceOnUse" x="0" y="0" width="24" height="24"><path d="M0 0h24v23.482H0V0Z" fill="#fff"/></mask><g mask="url(#a)" stroke="#38A169" stroke-width="2"><path d="m20.131 10.674-5.652.002 1.49-5.886c.362-1.215.59-2.776-.6-2.789-.591-.005-1.185-.005-1.476.302L6.76 10.356l-.01 11.486 12.178-.012c1.199 0 1.552-.75 1.79-1.86l1.476-6.807c.306-1.463-.468-2.49-2.063-2.49Z"/><path d="M6.762 10.666 2 10.676l.005 11.157 4.744.01.013-11.177Z"/></g></svg>