<svg width="14" height="13" viewBox="0 0 14 13" fill="none" xmlns="http://www.w3.org/2000/svg">
<path fill-rule="evenodd" clip-rule="evenodd" d="M13.4 6.5C13.4 8.19739 12.7257 9.82525 11.5255 11.0255C10.3252 12.2257 8.69738 12.9 7 12.9C5.30261 12.9 3.67475 12.2257 2.47452 11.0255C1.27428 9.82525 0.599998 8.19739 0.599998 6.5C0.599998 4.80261 1.27428 3.17475 2.47452 1.97452C3.67475 0.774284 5.30261 0.1 7 0.1C8.69738 0.1 10.3252 0.774284 11.5255 1.97452C12.7257 3.17475 13.4 4.80261 13.4 6.5V6.5ZM8.6 4.1C8.6 4.52435 8.43143 4.93131 8.13137 5.23137C7.83131 5.53143 7.42434 5.7 7 5.7C6.57565 5.7 6.16869 5.53143 5.86863 5.23137C5.56857 4.93131 5.4 4.52435 5.4 4.1C5.4 3.67565 5.56857 3.26869 5.86863 2.96863C6.16869 2.66857 6.57565 2.5 7 2.5C7.42434 2.5 7.83131 2.66857 8.13137 2.96863C8.43143 3.26869 8.6 3.67565 8.6 4.1V4.1ZM7 7.3C6.23408 7.29985 5.48422 7.51959 4.83953 7.93312C4.19484 8.34665 3.68243 8.93658 3.3632 9.6328C3.81334 10.1565 4.37142 10.5766 4.99915 10.8644C5.62689 11.1522 6.30944 11.3008 7 11.3C7.69055 11.3008 8.3731 11.1522 9.00084 10.8644C9.62858 10.5766 10.1867 10.1565 10.6368 9.6328C10.3176 8.93658 9.80515 8.34665 9.16047 7.93312C8.51578 7.51959 7.76592 7.29985 7 7.3V7.3Z" fill="white"/>
</svg>
