<svg width="24" height="25" fill="none" xmlns="http://www.w3.org/2000/svg"><mask id="a" style="mask-type:luminance" maskUnits="userSpaceOnUse" x="0" y="0" width="24" height="24"><path d="M0 0h24v23.482H0V0Z" fill="#fff"/></mask><g mask="url(#a)"><path d="m20.838 10.29-6.212.002 1.639-6.467c.397-1.336.648-3.052-.66-3.065-.65-.007-1.303-.007-1.622.332l-7.84 8.85-.01 12.621 13.383-.014c1.317 0 1.705-.824 1.966-2.043l1.623-7.48c.336-1.608-.515-2.736-2.267-2.736ZM4 10l-3 .011.003 12.978L3.992 23 4 10Z" stroke="#38A169" stroke-width="1.5"/><path d="m20.667 10.18-6.196.003 1.634-6.23c.396-1.286.647-2.939-.657-2.952-.649-.006-1.3-.006-1.62.32L6.012 9.843 6 22l13.349-.013c1.313 0 1.7-.795 1.96-1.968l1.62-7.205c.334-1.548-.515-2.634-2.262-2.634Z" fill="#38A169"/><path d="m3.5 11-1.5.006L2.005 22l1.489-.006L3.5 11Z" stroke="#38A169" stroke-width="2"/></g></svg>