<svg width="45" height="46" viewBox="0 0 45 46" fill="none" xmlns="http://www.w3.org/2000/svg">
<path fill-rule="evenodd" clip-rule="evenodd" d="M40.5 22.5322C40.5 27.3061 38.6036 31.8845 35.2279 35.2601C31.8523 38.6358 27.2739 40.5322 22.5 40.5322C17.7261 40.5322 13.1477 38.6358 9.77208 35.2601C6.39642 31.8845 4.5 27.3061 4.5 22.5322C4.5 17.7583 6.39642 13.18 9.77208 9.8043C13.1477 6.42865 17.7261 4.53223 22.5 4.53223C27.2739 4.53223 31.8523 6.42865 35.2279 9.8043C38.6036 13.18 40.5 17.7583 40.5 22.5322V22.5322ZM27 15.7822C27 16.9757 26.5259 18.1203 25.682 18.9642C24.8381 19.8081 23.6935 20.2822 22.5 20.2822C21.3065 20.2822 20.1619 19.8081 19.318 18.9642C18.4741 18.1203 18 16.9757 18 15.7822C18 14.5888 18.4741 13.4442 19.318 12.6002C20.1619 11.7563 21.3065 11.2822 22.5 11.2822C23.6935 11.2822 24.8381 11.7563 25.682 12.6002C26.5259 13.4442 27 14.5888 27 15.7822V15.7822ZM22.5 24.7822C20.3459 24.7818 18.2369 25.3998 16.4237 26.5629C14.6105 27.7259 13.1693 29.3851 12.2715 31.3432C13.5375 32.8161 15.1071 33.9977 16.8726 34.807C18.6381 35.6164 20.5578 36.0344 22.5 36.0322C24.4422 36.0344 26.3619 35.6164 28.1274 34.807C29.8929 33.9977 31.4625 32.8161 32.7285 31.3432C31.8307 29.3851 30.3895 27.7259 28.5763 26.5629C26.7631 25.3998 24.6541 24.7818 22.5 24.7822V24.7822Z" fill="#374151"/>
</svg>
