<svg xmlns="http://www.w3.org/2000/svg" width="17" height="17"><g clip-path="url(#a)"><path fill="currentColor" d="M15.5083 5.323c-.1744-.6566-.6881-1.1737-1.3404-1.3491-1.1823-.3189-5.923-.3189-5.923-.3189s-4.7409 0-5.9232.3189c-.6523.1755-1.166.6925-1.3404 1.349C.6646 6.513.6646 8.9957.6646 8.9957s0 2.4827.3167 3.6727c.1744.6565.6881 1.152 1.3404 1.3275 1.1823.3189 5.9231.3189 5.9231.3189s4.7408 0 5.9231-.3189c.6523-.1755 1.166-.671 1.3404-1.3275.3168-1.19.3168-3.6727.3168-3.6727s0-2.4828-.3168-3.6728Zm-8.814 5.9268V6.7415l3.9624 2.2542-3.9624 2.2541Z"/></g><defs><clipPath id="a"><path fill="currentColor" d="M.25.99h15.99v15.99H.25z"/></clipPath></defs></svg>