<svg width="24" height="25" fill="none" xmlns="http://www.w3.org/2000/svg"><mask id="a" style="mask-type:luminance" maskUnits="userSpaceOnUse" x="0" y="0" width="24" height="24"><path d="M0 0h24v23.482H0V0Z" fill="#fff"/></mask><g mask="url(#a)" stroke="#38A169" stroke-width="1.5"><path d="m20.838 10.29-6.212.002 1.639-6.467c.397-1.336.648-3.052-.66-3.065-.65-.007-1.303-.007-1.622.332l-7.84 8.85-.01 12.621 13.383-.014c1.317 0 1.705-.824 1.966-2.043l1.623-7.48c.336-1.608-.515-2.736-2.267-2.736Z"/><path d="m6.146 10.282-5.233.01.006 12.26 5.213.011.014-12.281Z"/></g></svg>