<svg width="24" height="25" fill="none" xmlns="http://www.w3.org/2000/svg"><path d="m20.131 10.674-5.652.002 1.49-5.886c.362-1.215.59-2.776-.6-2.789-.591-.005-1.185-.005-1.476.302L6.76 10.356l-.01 11.486 12.178-.012c1.199 0 1.552-.75 1.79-1.86l1.476-6.807c.306-1.463-.468-2.49-2.063-2.49Z" stroke="#38A169" stroke-width="2"/><path d="M6.762 10.666 2 10.676l.005 11.157 4.744.01.013-11.177Z" stroke="#38A169" stroke-width="2"/><path d="m20.002 10.613-5.493.003 1.449-5.845c.351-1.207.573-2.758-.583-2.77-.575-.006-1.152-.006-1.435.3l-6.93 7.996L7 21.704l11.833-.012c1.164 0 1.507-.746 1.738-1.847l1.435-6.76c.297-1.453-.456-2.472-2.004-2.472Z" fill="#38A169"/><path d="m5 12-1 .004.003 7.816.993-.004L5 12Z" stroke="#38A169" stroke-width="2"/></svg>