<svg xmlns="http://www.w3.org/2000/svg" width="24" height="24" viewBox="0 0 17 17"><path fill="#fff" d="M8.9748 1.3393c-3.863 0-6.9954 3.1323-6.9954 6.9954 0 3.8632 3.1323 6.9955 6.9954 6.9955s6.9955-3.1323 6.9955-6.9955c0-3.863-3.1324-6.9954-6.9955-6.9954Zm0 12.8042c-3.2073 0-5.8087-2.6015-5.8087-5.8088 0-3.2072 2.6014-5.8087 5.8087-5.8087s5.8087 2.6015 5.8087 5.8087c0 3.2073-2.6014 5.8088-5.8087 5.8088Z"/><path fill="#fff" d="M10.7174 5.2852c-.4684-.4107-1.0868-.6355-1.7426-.6355-.6558 0-1.2742.2264-1.7426.6355-.4872.4263-.7558.9993-.7558 1.613v.1187c0 .0687.0563.1249.125.1249h.7495a.1253.1253 0 0 0 .1249-.125v-.1186c0-.6886.673-1.2492 1.499-1.2492.826 0 1.499.5606 1.499 1.2492 0 .4856-.3435.9306-.876 1.1352a1.7454 1.7454 0 0 0-.8135.6386c-.2045.2967-.3107.6527-.3107 1.0134v.3358c0 .0687.0562.1249.1249.1249h.7495a.1253.1253 0 0 0 .125-.1249v-.3545a.7542.7542 0 0 1 .4824-.6995c.9213-.3545 1.5162-1.1665 1.5162-2.069.0016-.6137-.267-1.1867-.7542-1.613ZM8.3502 11.77a.6247.6247 0 0 0 1.0663.4417.6247.6247 0 0 0-.4417-1.0663.6244.6244 0 0 0-.6246.6246Z"/></svg>