<svg width="120" height="45" fill="none" xmlns="http://www.w3.org/2000/svg"><path d="M25.23 1.11c2.532.086 4.667.697 6.403 1.836 1.565 1.081 2.604 2.604 3.116 4.568.342 1.764-.014 3.899-1.067 6.403-.825 1.878-2.192 3.842-4.098 5.891-1.566 1.537-3.387 2.96-5.465 4.27-2.049 1.308-3.913 2.162-5.592 2.56l.299 1.068c.2.711.526 1.565.982 2.561a30.233 30.233 0 0 0 1.665 2.903 7.997 7.997 0 0 0 2.476 2.305c1.024.598 2.092.811 3.201.64-2.02 1.566-4.098 2.832-6.232 3.8-2.106.94-3.743 1.153-4.91.64-.853-.569-1.522-1.494-2.006-2.775-.285-.626-.754-2.134-1.409-4.525-.17-.768-.384-1.48-.64-2.134-.228.626-.57 1.565-1.024 2.817a416.401 416.401 0 0 1-1.025 2.732c-.114.257-.2.47-.256.64-.057.143-.1.228-.128.257 0 .029-.029.114-.086.256-.028.142-.1.342-.213.598L0 42.647a36.43 36.43 0 0 1 .768-1.75l1.452-3.714a198.18 198.18 0 0 0 1.665-4.27c2.02-5.35 3.458-8.964 4.311-10.842.911-2.334 1.75-4.881 2.52-7.642l9.263-4.482c-.541 1.793-1.494 4.454-2.86 7.983-1.082 2.504-1.865 4.383-2.348 5.635h1.878a81.732 81.732 0 0 1 1.28-.043c.854-.028 1.85-.17 2.989-.427 1.707-1.821 2.917-3.486 3.628-4.994 1.053-2.249 1.495-4.17 1.324-5.763-.456-1.736-1.366-3.031-2.732-3.885-1.509-.91-3.515-1.395-6.02-1.452-3.244.057-5.89.385-7.94.982h-.042L2.433 9.52c5.55-4.013 10.445-6.56 14.685-7.641 1.993-.513 4.696-.769 8.112-.769ZM46.66.64c-.57 2.277-.94 4-1.11 5.166-.086.598-.157 1.437-.214 2.519l-9.05 4.525c.057-1.423.114-2.277.17-2.562.086-.626.413-2.347.983-5.165l9.22-4.482Zm-2.007 11.697a256.188 256.188 0 0 1-2.262 5.806c-.826 1.935-1.366 3.686-1.623 5.251 0 .057-.028.256-.085.598a4.385 4.385 0 0 0-.085.64v.555c0 .228.028.427.085.598.057.17.142.341.256.512.17.2.399.342.683.427.285.057.64.057 1.068 0 .426-.057.825-.128 1.195-.213.37-.086.854-.242 1.451-.47.626-.228 1.11-.413 1.452-.555.37-.17.91-.399 1.622-.683a28.882 28.882 0 0 1 1.537-.64c-3.558 3.67-8.396 6.417-14.515 8.238-1.451.427-2.575.1-3.372-.981-.342-.57-.527-1.139-.555-1.708a8.582 8.582 0 0 1 .128-1.878c.256-1.822.797-3.629 1.622-5.422.057-.17.37-.967.94-2.39.568-1.452.953-2.576 1.152-3.373l9.306-4.312Zm26.04-2.774-1.408 3.201c-1.11 2.448-2.39 4.554-3.842 6.318-2.42 3.188-4.54 5.436-6.36 6.745-.911.655-1.466 1.068-1.666 1.238-.17.143-.498.37-.982.683-.483.285-.882.498-1.195.64-.313.143-1.096.556-2.348 1.239-1.224.683-2.632 1.48-4.226 2.39-.94.541-1.822.627-2.647.256-.74-.54-1.18-1.394-1.323-2.56-.2-1.31-.1-2.776.299-4.398.114-.57.284-1.48.512-2.732.228-1.252.427-2.22.598-2.903.455-1.878.782-3.643.982-5.293l9.22-4.483c-.113.598-.298 1.494-.555 2.69a130.611 130.611 0 0 0-.555 2.69c-.199.71-.412 1.75-.64 3.115-.2 1.338-.342 2.178-.427 2.52-.37 1.678-.498 3.016-.384 4.012.057.455.114.768.17.94.57-.598 1.367-1.552 2.391-2.861 1.366-1.622 2.619-3.629 3.757-6.02.142-.34.356-.867.64-1.579.285-.711.498-1.238.64-1.58l9.35-4.268Zm6.276 5.379c-.768.91-1.337 2.248-1.707 4.012a18.6 18.6 0 0 0-.043 1.11c0 .256.085.47.256.64.17.143.484.271.94.385a5.282 5.282 0 0 0 1.877-.085c3.416-2.533 6.432-4.27 9.05-5.209.484-.142.826-.014 1.025.385.228.398.356.868.384 1.408a5.749 5.749 0 0 1-.128.683 4.76 4.76 0 0 1-.17.769 6.55 6.55 0 0 1-.171.64c-.029.142-.114.37-.256.683-.143.313-.242.527-.3.64-.028.086-.141.314-.34.683l-.3.598c-.028.029-.142.242-.341.64l-.342.598c-.512.996-1.294 2.39-2.348 4.184l-1.878 3.287c-.085.114-.185.313-.299.598a3.047 3.047 0 0 1-.299.554c.826-.683 1.865-1.522 3.117-2.518a4.51 4.51 0 0 0 .598-.47c.284-.227.483-.384.597-.47l9.264-3.67a6.648 6.648 0 0 0-.64.469 4.49 4.49 0 0 1-.598.47c-.94.711-3.785 3.045-8.538 7-.37.342-1.366 1.253-2.988 2.733-1.594 1.48-2.761 2.533-3.5 3.159-.74.626-1.794 1.451-3.16 2.476a36.744 36.744 0 0 1-3.842 2.604c-1.907 1.11-3.002.967-3.287-.427 0-.057.028-.114.085-.171.627-1.252 1.139-2.163 1.537-2.732.313-.598.769-1.508 1.366-2.732.626-1.252 1.11-2.177 1.452-2.775.427-.797 1.124-2.02 2.091-3.671.996-1.68 1.722-2.96 2.178-3.842 1.252-2.305 1.978-3.928 2.177-4.867-.826.484-1.58.94-2.263 1.366-.654.427-1.053.697-1.195.811-.114.086-.356.228-.726.427-.37.17-.669.299-.896.384-.2.086-.712.285-1.537.598-2.135.74-3.771.91-4.91.512-.768-.37-1.28-.797-1.536-1.28-.256-.513-.37-1.21-.342-2.092.313-1.822.797-3.287 1.452-4.397l9.434-4.098Zm27.236-.342c-.911 1.224-1.85 2.832-2.818 4.824a46.51 46.51 0 0 0-2.049 4.91c0 .056-.042.227-.128.512a8.529 8.529 0 0 0-.17.554c0 .086-.029.257-.086.513a4.64 4.64 0 0 0-.042.555c0 .142.014.313.042.512.029.17.071.341.128.512a1 1 0 0 0 .214.128 202.864 202.864 0 0 1 2.988-2.433c.284-.228.697-.583 1.238-1.067.541-.512.939-.897 1.195-1.153l1.11-1.11c.171-.17.427-.355.769-.555.37-.199.725-.355 1.067-.47.341-.113 1.096-.469 2.262-1.066a182.007 182.007 0 0 0 4.141-2.306c.37-.199.74.072 1.11.811.057.399.071.698.043.897-.029.199-.1.498-.214.896-.085.399-.142.698-.17.897-.029.427-.128 1.053-.299 1.878-.171.825-.271 1.452-.299 1.879 0 .113-.029.37-.085.768-.029.37 0 .683.085.94.085.227.285.412.598.554.512.114.853.17 1.024.17L120 25.444c-.683.57-1.38 1.252-2.092 2.05a43.88 43.88 0 0 1-1.665 1.792c-.427.399-1.223.882-2.39 1.452-1.167.569-2.718 1.11-4.653 1.622-1.253.74-2.306.726-3.159-.043-.484-.597-.783-1.594-.897-2.988 0-.313.014-.626.043-.94.028-.312.085-.682.171-1.11.113-.426.184-.74.213-.938-3.187 2.305-7.2 4.61-12.038 6.915-1.623.484-2.761.242-3.416-.725-.398-.94-.384-2.235.043-3.885.37-1.252 1.053-2.931 2.05-5.037.512-1.139 1.365-2.79 2.56-4.953l9.435-4.055Z" fill="#fff"/></svg>