<svg width="45" height="45" viewBox="0 0 45 45" fill="none" xmlns="http://www.w3.org/2000/svg">
<path fill-rule="evenodd" clip-rule="evenodd" d="M0.842434 0.0315703C0.831488 0.0490845 0.760555 0.0736048 0.684587 0.0856458C0.441796 0.124615 0.246512 0.2829 0.116469 0.546708L0 0.783149V18.2799C0 32.5538 0.00875774 35.8012 0.047508 35.9107C0.122162 36.1212 0.287671 36.323 0.47989 36.4375L0.656784 36.543H3.55757C6.45771 36.543 6.45837 36.543 6.60418 36.4645C6.81391 36.3514 6.93081 36.2374 7.02889 36.0505L7.11515 35.8862L7.13332 30.7756L7.1515 25.6649L7.31328 25.4666C7.40238 25.3574 7.4928 25.2519 7.51448 25.2317C7.53636 25.2116 7.68415 25.0393 7.84309 24.8486C8.00203 24.6579 8.1417 24.4937 8.15353 24.4836C8.16535 24.4736 8.34618 24.2604 8.55526 24.0094C8.76455 23.7585 8.94474 23.5451 8.9559 23.535C8.96728 23.5249 9.06645 23.41 9.17657 23.2795C9.28669 23.1491 9.38565 23.0343 9.39638 23.0243C9.40689 23.0142 9.54657 22.8501 9.7066 22.6597C9.86664 22.4692 10.104 22.1901 10.2338 22.0395C10.5468 21.6763 10.5819 21.6347 10.6642 21.5311C10.7535 21.4188 10.8288 21.4463 10.9276 21.6268C10.9692 21.703 11.0313 21.8097 11.0659 21.8637C11.1005 21.918 11.3064 22.2464 11.523 22.5936C11.74 22.9408 12.3438 23.9062 12.8649 24.7391C13.3861 25.5719 13.8818 26.3655 13.9667 26.5025C14.0515 26.6394 14.1959 26.8693 14.2877 27.0133C14.3794 27.1572 14.5436 27.4227 14.6524 27.6033C14.7614 27.784 14.8669 27.951 14.8871 27.9747C14.907 27.998 14.9891 28.1264 15.0694 28.2599C15.1498 28.3932 15.2648 28.5813 15.325 28.6779C15.3852 28.7742 15.4754 28.9213 15.5254 29.0049C15.5758 29.0883 15.6989 29.2836 15.7992 29.4388C15.8997 29.5942 16.0706 29.8685 16.1792 30.0487C16.2877 30.2292 16.4008 30.4047 16.43 30.4393C16.478 30.4953 16.469 30.5366 16.3475 30.8224C16.0785 31.4551 15.8504 31.9839 15.8002 32.0913C15.7722 32.1515 15.6976 32.324 15.6345 32.4745C15.5717 32.6251 15.4981 32.7974 15.4716 32.8576C15.445 32.9178 15.3788 33.0739 15.3245 33.2044C15.2704 33.3346 15.1938 33.5155 15.1542 33.6057C15.1147 33.6959 15.0574 33.8273 15.0268 33.8975C14.9961 33.9678 14.9399 34.0921 14.9017 34.1735C14.8634 34.2552 14.8323 34.3328 14.8323 34.3458C14.8323 34.3592 14.7923 34.4566 14.7435 34.5624C14.6946 34.6683 14.5777 34.9356 14.4836 35.1564C14.3895 35.3773 14.2817 35.6266 14.2441 35.7109C14.2062 35.7949 14.1755 35.8725 14.1755 35.8832C14.1755 35.8937 14.1333 35.9972 14.0817 36.113C13.9457 36.4181 13.9052 36.5113 13.7749 36.8166C13.7105 36.9671 13.6267 37.1571 13.5884 37.2386C13.5501 37.3202 13.5188 37.3968 13.5188 37.4087C13.5188 37.4207 13.4612 37.5531 13.3909 37.7031C13.3206 37.8531 13.2633 37.9862 13.2633 37.9986C13.2633 38.0112 13.2316 38.0911 13.1926 38.1762C13.1192 38.3367 13.0472 38.5068 12.9528 38.7412C12.8871 38.9049 12.9643 38.8164 13.0997 38.5727C13.1402 38.4997 13.3372 38.1558 13.5376 37.8083C13.738 37.4606 13.9361 37.1158 13.9776 37.042C14.0194 36.9681 14.0932 36.841 14.1419 36.7591C14.1904 36.6775 14.4026 36.3109 14.6134 35.9447C14.8241 35.5784 15.034 35.2185 15.0795 35.1445C15.1253 35.0708 15.1802 34.9652 15.2016 34.91C15.2232 34.8549 15.2555 34.8097 15.2737 34.8097C15.2919 34.8097 15.3065 34.7963 15.3065 34.7795C15.3065 34.7516 16.0831 33.3769 16.1448 33.2955C16.1601 33.2756 16.2136 33.1851 16.2637 33.0949C16.4649 32.7321 17.1976 31.4613 17.2889 31.3168C17.3426 31.2318 17.3864 31.1548 17.3864 31.1456C17.3864 31.1364 17.4496 31.0251 17.5272 30.8986C17.6044 30.7719 17.8205 30.3975 18.0073 30.0662C18.194 29.7353 18.4405 29.3084 18.555 29.1177C18.6695 28.927 18.9256 28.4867 19.124 28.139C19.3224 27.7916 19.5106 27.4632 19.5425 27.4094C19.5746 27.3555 19.8348 26.901 20.1212 26.3993C20.4074 25.8977 20.6817 25.4248 20.7308 25.3486L20.8196 25.2098L20.4689 24.6553C20.276 24.35 19.9879 23.8978 19.8287 23.6502C19.6696 23.4024 19.5393 23.1863 19.5393 23.1696C19.5393 23.1531 19.5266 23.1342 19.511 23.1275C19.4955 23.1208 19.2534 22.7554 18.9727 22.3156C18.6922 21.8756 18.3779 21.3829 18.2739 21.2209C18.1699 21.0587 18.0235 20.8275 17.9481 20.7071C17.7811 20.44 17.3073 19.699 17.0033 19.2294C16.88 19.0389 16.6569 18.6897 16.508 18.4539C16.3589 18.2179 16.1633 17.9103 16.0728 17.7702C15.9826 17.63 15.731 17.236 15.5139 16.8943L15.1191 16.2734L15.6763 15.4981C15.9828 15.0719 16.448 14.4276 16.7105 14.0664C16.973 13.7052 17.2119 13.3741 17.2414 13.3306C17.271 13.2872 17.5251 12.9356 17.8061 12.5492C18.0869 12.1628 18.3661 11.7781 18.4263 11.6941C18.4864 11.6102 18.7179 11.2886 18.9407 10.9795C19.1634 10.6706 19.4747 10.2369 19.6325 10.0162C19.7905 9.79552 19.9779 9.53785 20.0488 9.44394C20.1197 9.35001 20.2188 9.21341 20.269 9.14072C20.3191 9.06804 20.3768 8.98878 20.3971 8.96492C20.4173 8.94105 20.4584 8.88632 20.4882 8.84341C20.5182 8.80029 20.6943 8.554 20.8796 8.29609C21.0648 8.03797 21.3102 7.69558 21.4249 7.5351C21.5395 7.37441 21.6545 7.22137 21.6809 7.19489C21.7071 7.16839 21.7286 7.13446 21.7286 7.11979C21.7286 7.10491 21.7577 7.06091 21.7934 7.02193C21.8291 6.98296 21.9153 6.86956 21.985 6.76974C22.0546 6.66969 22.1246 6.57117 22.1404 6.5508C22.1562 6.53023 22.2459 6.40675 22.3396 6.27627C23.2799 4.96861 23.7889 4.26322 24.8529 2.7916C26.3506 0.720317 26.27 0.847077 26.2707 0.559187C26.2713 0.281586 26.1643 0.145413 25.8739 0.0556525C25.5852 -0.033889 19.6902 -0.00871261 19.2842 0.0836749C18.6163 0.23583 18.1605 0.590055 17.638 1.36309C17.0801 2.18823 15.9999 3.77479 15.398 4.65247C15.2744 4.8331 14.9951 5.24358 14.7774 5.56475C14.56 5.8857 14.2809 6.29619 14.1574 6.47681C13.2923 7.74221 13.0645 8.07585 12.5522 8.83028C12.3548 9.12123 12.1082 9.48268 12.0045 9.63309C11.9009 9.78371 11.6942 10.0858 11.5454 10.3048C11.3965 10.5235 11.1673 10.8602 11.0361 11.0526C10.9048 11.2453 10.586 11.7147 10.3275 12.096C10.0691 12.4774 9.77294 12.9124 9.66939 13.0631C9.10586 13.8816 8.76017 14.4353 8.425 15.0557C8.20454 15.4634 7.7369 16.393 7.68305 16.5302C7.65569 16.6001 7.6119 16.7062 7.58563 16.7664C7.55957 16.8266 7.48996 16.9992 7.43106 17.1495C7.33977 17.3826 7.3111 17.4231 7.23776 17.4231H7.1515L7.13332 9.0492L7.11515 0.675219L6.99627 0.488474C6.86382 0.280274 6.6681 0.133592 6.43254 0.0657243C6.24425 0.0116492 0.875054 -0.0211912 0.842434 0.0315703ZM36.2904 1.14416C36.1414 1.40796 35.8715 1.87845 35.6903 2.18954C35.509 2.50064 35.1243 3.16552 34.8354 3.66731C33.8204 5.42924 33.3495 6.2454 33.2916 6.34239C33.2595 6.39624 32.9828 6.87546 32.6768 7.40725C32.3706 7.93902 31.8737 8.80115 31.5724 9.32286C30.5831 11.0371 29.9325 12.1663 29.8381 12.3331C29.7871 12.4235 29.7149 12.5409 29.6776 12.5943C29.6404 12.6475 29.61 12.6987 29.61 12.7081C29.61 12.7178 29.4623 12.9813 29.2816 13.2942C29.101 13.607 28.9532 13.871 28.9532 13.8809C28.9532 13.8907 30.2707 13.9046 31.8813 13.9116C34.7462 13.9239 34.8171 13.9258 35.1714 14.0049C36.5619 14.315 37.1341 14.8994 37.4298 16.3104C37.487 16.5827 37.4866 20.1646 37.4294 20.3971C37.2584 21.0929 37.1656 21.3332 36.943 21.6559C36.6087 22.14 36.0784 22.4762 35.3931 22.6388C35.2727 22.6674 35.084 22.7122 34.9737 22.7387C34.6146 22.825 27.8346 22.8079 27.706 22.7206C27.4603 22.554 27.4772 22.7749 27.4571 19.4667L27.4389 16.4746L27.0557 17.1436C26.845 17.5116 26.6463 17.8564 26.6144 17.9099C26.5825 17.9632 26.3449 18.3766 26.0866 18.828C25.8282 19.2797 25.6082 19.6574 25.5975 19.6673C25.5868 19.6773 25.5469 19.743 25.509 19.8132C25.3667 20.0759 24.5219 21.5472 24.503 21.5646C24.4921 21.5747 24.4654 21.6156 24.4435 21.6559C24.3064 21.9077 24.2034 22.0867 24.1213 22.217C24.0695 22.2989 24.0273 22.3725 24.0273 22.3803C24.0273 22.396 23.4835 23.3421 23.2826 23.6762C23.2144 23.7891 22.958 24.2346 22.7127 24.6662C22.4672 25.0975 22.2538 25.467 22.2385 25.4871C22.2231 25.5071 22.169 25.5975 22.1187 25.6877C22.0379 25.8323 21.7294 26.3686 20.6808 28.1872C20.5304 28.4481 20.3758 28.7232 20.3375 28.7985C20.236 28.997 20.2462 43.54 20.348 43.8331C20.4849 44.227 20.766 44.4341 21.2176 44.4739C21.6754 44.5142 36.6275 44.4888 37.017 44.4469C37.2076 44.4266 37.536 44.3846 37.7466 44.3537C37.9575 44.3226 38.2083 44.2868 38.3042 44.2736C38.4001 44.2605 38.4873 44.2357 38.498 44.2184C38.5085 44.2014 38.5545 44.1871 38.6003 44.1871C38.6865 44.1871 38.9459 44.1151 39.5346 43.9277C39.9081 43.8088 39.8948 43.814 40.3009 43.6344C40.8401 43.3954 41.6635 42.9002 41.9963 42.6144C42.7238 41.9891 43.1084 41.567 43.5459 40.9128C43.7551 40.6 44.2026 39.7474 44.2595 39.5533C44.2742 39.5031 44.308 39.4127 44.3344 39.3525C44.3784 39.252 44.4796 38.9405 44.6184 38.4768C44.9065 37.5137 44.9807 36.6194 44.9978 33.9041C45.0153 31.142 44.9331 30.0857 44.6469 29.3913C44.6301 29.3513 44.563 29.1807 44.4975 29.0126C44.3928 28.7444 44.3326 28.624 44.0931 28.2054C44.0644 28.1552 44.0321 28.106 44.0216 28.096C44.0109 28.0859 43.9416 27.9943 43.8678 27.8925C43.3212 27.1372 41.9776 26.2265 41.1219 26.0312C41.0616 26.0174 40.996 25.9938 40.9758 25.9785C40.9559 25.9634 40.7998 25.9237 40.6293 25.8906C39.9381 25.7569 39.9092 25.7356 40.2554 25.6166C40.5478 25.5159 40.6415 25.4764 41.1252 25.2498C42.162 24.7645 43.09 23.9503 43.5742 23.1011C43.6271 23.0087 43.689 22.9082 43.7118 22.8782C43.7347 22.848 43.8072 22.7005 43.8729 22.5498C43.9385 22.3994 44.0069 22.2433 44.0251 22.2032C44.159 21.9052 44.3296 21.1966 44.3894 20.689C44.4095 20.5184 44.4415 20.3111 44.4603 20.2281C44.5069 20.0219 44.508 16.5046 44.4614 16.1828C44.4412 16.0422 44.4084 15.7631 44.3888 15.5623C44.3307 14.9676 44.1267 13.9125 44.022 13.6651C44.0052 13.6248 43.9716 13.5263 43.9477 13.4461C43.8175 13.0088 43.4924 12.2915 43.1701 11.7311C42.8435 11.163 42.0755 10.2967 41.4868 9.83187C41.3863 9.75263 41.2961 9.6795 41.286 9.6692C41.0533 9.43299 39.9222 8.83794 39.2424 8.59427C39.0319 8.51896 38.8269 8.44277 38.7866 8.42548C38.7066 8.39067 38.2024 8.27026 37.8014 8.19035C36.8569 8.0023 36.1907 7.94602 34.6908 7.92829C33.9012 7.9191 33.5141 7.90181 33.5141 7.87598C33.5141 7.85495 33.5975 7.64654 33.6995 7.41272C33.8015 7.1789 33.9064 6.93853 33.9327 6.87831C33.9589 6.81811 34.0334 6.6456 34.0982 6.49519C34.2458 6.15213 34.3448 5.92445 34.4073 5.78368C34.434 5.72347 34.5 5.56738 34.554 5.4369C34.6081 5.30642 34.674 5.15054 34.7007 5.09034C34.7275 5.03013 34.801 4.85784 34.8643 4.70721C34.9275 4.55681 35.0011 4.3843 35.0276 4.32408C35.0543 4.26388 35.1778 3.97643 35.3021 3.68548C35.4267 3.39452 35.5679 3.07138 35.6158 2.96717C35.664 2.86296 35.7034 2.76839 35.7034 2.757C35.7034 2.7454 35.7351 2.66637 35.7737 2.58143C35.8124 2.49626 35.9213 2.24603 36.0153 2.02534C36.1097 1.80467 36.2157 1.55837 36.2509 1.47803C36.6564 0.557874 36.6658 0.478183 36.2904 1.14416ZM35.5211 28.6722C35.6112 28.6932 35.8082 28.7379 35.9589 28.7713C36.86 28.9712 37.5654 29.5353 37.7834 30.2305C37.8086 30.3108 37.8419 30.3929 37.8574 30.413C38.0755 30.6961 38.1682 35.3337 37.9737 36.2328C37.7559 37.2401 37.2991 37.8851 36.6156 38.1508C36.5252 38.186 36.4341 38.2279 36.4131 38.2439C36.0933 38.4869 35.157 38.5375 31.2154 38.5245L27.8402 38.5134L27.7125 38.4332C27.4564 38.2728 27.4766 38.6554 27.4645 33.697C27.4586 31.2286 27.4636 29.1393 27.4758 29.0544C27.5015 28.8745 27.6548 28.6993 27.8336 28.646C27.9987 28.5969 35.3052 28.6216 35.5211 28.6722Z" fill="#FCFCFC"/>
</svg>
