<svg xmlns="http://www.w3.org/2000/svg" width="175" height="42" fill="none"><g fill="#fff" clip-path="url(#a)"><path d="M14.053.0087c-.0212.0039-.075.0077-.1201.0096-.076.002-.1375.0077-.3701.0366a5.7543 5.7543 0 0 1-.1921.0201 2.2953 2.2953 0 0 0-.2451.0433c-.0768.0182-.1547.0346-.173.0355-.0183.002-.0365.0068-.0404.0125-.0047.0058-.0076.0058-.0076-.0019 0-.0058-.0077-.0096-.0163-.0077-.0097.001-.0164.0077-.0154.0125.0019.0058-.0135.0154-.0337.0202-.1441.0375-.196.049-.2056.0432-.0057-.0038-.0077-.0028-.0048.003.0038.0057-.0308.0201-.0875.0364-.22.0625-.6563.2307-.7822.3008-.1278.0721-.2364.126-.2412.1202-.0038-.003-.0068-.001-.0068.0048 0 .0144-.1076.0797-.123.074-.0067-.003-.0105-.001-.0077.0028.0058.0096-.2335.1615-.2508.1596-.0067-.001-.0096.0019-.0077.0067.0029.0038-.0134.0202-.0355.0346-.0932.0596-.3661.273-.4786.3719-.2037.1806-.3959.3777-.6025.6179-.1509.1759-.5814.813-.8563 1.2695a16.286 16.286 0 0 1-.246.3815 19.3553 19.3553 0 0 0-.246.3796 13.7194 13.7194 0 0 1-.1134.1826 2.7746 2.7746 0 0 0-.0701.1153c-.0404.073-.2508.4219-.3787.6294-.1124.1836-.3277.5468-.3747.6343-.1211.222-.3643.6458-.4536.788-.1461.2335-.2066.3315-.2864.4709a32.8535 32.8535 0 0 1-.2258.3892c-.024.0394-.074.1259-.2134.3652a5.7844 5.7844 0 0 0-.1153.2066 5.6692 5.6692 0 0 1-.1374.2354c-.0404.0663-.097.1586-.125.2066-.0278.0471-.0855.1451-.1297.2163-.2076.3372-.3104.516-.6083 1.057-.048.0875-.1614.2864-.2518.442a31.376 31.376 0 0 0-.268.471c-.0577.1028-.1144.2037-.127.2229a8.7921 8.7921 0 0 0-.1268.221 20.5644 20.5644 0 0 1-.1662.2883c-.0337.0567-.0933.1586-.1327.2259-.0663.1143-.197.3353-.342.5794a59.3983 59.3983 0 0 0-.1586.2739 41.673 41.673 0 0 1-.2105.3652 33.5949 33.5949 0 0 0-.174.298c-.0336.0575-.0787.1355-.1008.1729-.0221.0365-.0913.1643-.1538.2834a17.068 17.068 0 0 1-.1538.2883c-.1057.1884-.3373.5882-.3757.6488-.024.0365-.0922.1537-.1518.2594-.0596.1057-.1422.2528-.1836.3267a4.7154 4.7154 0 0 1-.1066.1826c-.0462.073-.3124.5228-.446.7544a83.9893 83.9893 0 0 1-.2623.4516 21.4683 21.4683 0 0 0-.1845.3172c-.023.0403-.0836.1442-.1365.2306-.096.1596-.1326.222-.1931.3364a9.787 9.787 0 0 1-.2326.4133c-.1201.2027-.3882.7706-.466.9897-.1336.3739-.2384.8448-.299 1.3502-.0201.1615-.0288.7266-.0143.9313.0173.2488.0547.5189.098.7062.1076.4651.1922.7275.3373 1.0485.099.2182.4123.837.4853.9581.1009.1653.149.2499.2143.3728.0336.0635.1134.2086.1778.3221.0643.1132.147.2604.1845.3266.0374.0663.1153.2018.173.3028.0586.0999.1364.2401.1749.3093.0374.0703.121.2173.1864.3268.198.3325.2921.4959.4295.7476.073.1318.1711.3076.2182.3893.047.0816.1153.2028.1518.2691.0365.0663.1029.1873.149.269.0461.0817.1047.1875.1297.2355.025.0471.0798.1422.1201.2114.1307.223.2268.3911.3008.5285.0779.1451.1154.2134.2326.4229.2873.5169.3248.5823.467.812.0779.1259.1086.1807.2653.4709.0528.098.1143.2076.1374.245.0672.1096.2883.4978.369.6487.1105.2038.1643.2999.2364.418.072.1183.1701.2931.3162.567.0538.1.1182.2191.1432.2643.026.0452.1018.1806.17.3028.0673.121.1922.3353.2768.4756.0846.1403.1855.3104.223.3796.0384.0682.12.2133.1826.3219.0634.1086.1403.2442.172.3028.0317.0576.0836.1489.1162.2018.0779.1258.1673.2825.2067.3603.0298.0606.1086.1989.2546.4517.0875.1508.1182.2076.1903.346.0317.0604.0884.1643.1269.2306.0682.1172.1537.2729.2258.4084.0202.0365.0644.1134.1.171.0345.0567.0633.1048.0633.1077 0 .0086.1423.2556.2201.3825.0221.0355.0375.0692.0346.074-.0048.0086.0096.0144.0173.0076 0 0 .0221.0097.048.0241.051.0298.0635.0221.0452-.026-.0048-.0145-.0077-.0307-.0048-.0355.0029-.0039-.0029-.0548-.0134-.1115-.0413-.2221-.0433-.272-.0317-.691.0057-.2162.0153-.419.0211-.4506.0058-.0318.0144-.0884.0202-.1251.0058-.0374.023-.1296.0375-.2065.098-.491.1345-.617.2911-1.0138.1202-.3038.2845-.6612.3835-.8352.0836-.146.2037-.3507.271-.4622a7.5404 7.5404 0 0 0 .1326-.2307c.1191-.2191.3555-.6226.6708-1.1483.1931-.321.2412-.4036.4343-.7399.05-.0875.1528-.2605.2287-.3845.075-.124.1605-.2652.1894-.3123.0288-.048.0768-.1259.1066-.1749.0298-.0491.1019-.1682.1595-.2642.0577-.0971.1163-.1952.1307-.2191.0145-.0241.0577-.0971.0961-.1634.0394-.0663.0951-.1615.1249-.2115.0299-.05.0847-.1451.1221-.2114.0749-.1335.1384-.2412.3287-.5583.0701-.1182.1912-.3277.269-.4651a18.742 18.742 0 0 1 .2288-.3941c.048-.0797.1355-.2306.195-.3363.0597-.1057.1519-.2633.2047-.3508.148-.245.1913-.318.3911-.6534.1019-.1721.2076-.3488.2355-.3941.0279-.0451.0817-.1355.1201-.2018.1191-.2046.175-.3007.2066-.3555.0173-.0288.0586-.1009.0913-.1585.0337-.0586.1048-.1798.1586-.2691.1067-.1778.296-.4978.4516-.764.0539-.0922.1278-.222.1634-.2883.0365-.0663.1028-.1826.147-.2595.0453-.0768.1048-.1787.1317-.2258.0279-.0481.073-.1259.1009-.173.0769-.1307.1086-.1864.2133-.3748.0924-.1653.2509-.4344.3585-.6102.0279-.0452.0894-.147.1365-.2259.0471-.0798.1585-.2651.2479-.4132.0884-.1479.198-.3334.2422-.4112a7.874 7.874 0 0 1 .146-.25c.0884-.1441.4777-.8034.5949-1.0061.0289-.05.0663-.1134.0835-.1393.0299-.0471.0866-.1461.2259-.394.0385-.0692.1134-.199.1663-.2883.0528-.0904.1191-.2027.147-.2498.1086-.1865.3142-.5296.3316-.5536.0163-.0231.0566-.0913.1672-.2825.0278-.0481.0797-.1366.1153-.197.0355-.0606.0836-.1432.1057-.1826a6.0162 6.0162 0 0 1 .1057-.1778c.0365-.0587.0922-.1509.1249-.2066.0327-.0558.1154-.1922.1846-.3027.1787-.2903.1758-.2845.268-.4373.0462-.0769.1144-.1893.1509-.2498a9.0986 9.0986 0 0 0 .1077-.1826c.1018-.1797.2585-.4508.3449-.5958.0529-.0875.1086-.1826.126-.2115.0739-.1287.2142-.3633.3834-.6438.2758-.4584.4189-.6997.5343-.8985a9.2265 9.2265 0 0 1 .1249-.2115c.0356-.0586.0971-.1624.1364-.2306.0674-.1163.174-.2989.3922-.6727.049-.0846.1278-.2201.1749-.3018.047-.0816.1653-.2806.2613-.442.0971-.1615.2076-.3479.246-.4142.0394-.0663.1278-.2153.197-.3315.1202-.1999.1749-.298.344-.6007a30.12 30.12 0 0 1 .1721-.3027c.3229-.5554.394-.6765.4929-.836a6.6238 6.6238 0 0 0 .1558-.2681c.1442-.2586.2662-.4671.518-.887a44.9864 44.9864 0 0 0 .3796-.6468c.0326-.0557.122-.2133.1988-.3508.126-.2258.25-.4391.4056-.6967.0298-.05.0884-.1499.1298-.221.0413-.0711.1134-.1922.1585-.269.0462-.077.147-.2519.2249-.3893.0778-.1374.1653-.2892.1932-.3363.0278-.048.071-.123.097-.1682.0385-.0692.0951-.1634.2892-.4853.0164-.0269.0654-.1105.1096-.1874a8.6031 8.6031 0 0 1 .1586-.2643c.0875-.1393.3526-.592.4171-.711.0672-.125.1402-.247.3343-.5575a5.9251 5.9251 0 0 1 .3422-.4805c.1499-.1874.2575-.3132.271-.319.0076-.0029.0134-.0096.0134-.0164 0-.0057.0548-.0643.122-.1306.0674-.0664.1134-.1096.1039-.0961l-.0193.024.0212-.0183c.0125-.0096.0192-.0211.0164-.026-.0077-.0134.197-.2123.2699-.2613a1.4684 1.4684 0 0 0 .0962-.075c.1066-.0903.1826-.149.2402-.1874a.7937.7937 0 0 0 .0625-.0432.0919.0919 0 0 1 .0192-.0125c.0077-.0038.048-.0269.0884-.0519.2921-.1787.4612-.272.5362-.295a.1256.1256 0 0 0 .0336-.0144.2842.2842 0 0 1 .0481-.0192c.0673-.0212.2739-.1154.2739-.124 0-.0039.0125-.0202.0288-.0375l.0279-.0307L29.67.1759c-.0279-.0182-.1787-.0278-.4287-.0269a7.8654 7.8654 0 0 0-.197.003.0642.0642 0 0 1-.0192 0c-.0192-.0059-.2594-.0087-1.0234-.0135-.6833-.0048-1.2599-.0087-2.8733-.0202-.2038-.002-.4536-.0029-.5555-.0039-.1451-.001-.1845-.0038-.1787-.0134.0057-.0087.0038-.0087-.0058 0-.0106.0096-.0174.0086-.0336-.0067-.0163-.0154-.0212-.0164-.0212-.0058 0 .0077.0038.0125.0077.0096.0038-.002.0096 0 .0135.0058.0038.0057-.0039.0086-.0183.0077-.0124-.001-.0212-.0058-.0183-.0116.0039-.0048.001-.0057-.0076 0-.025.0154-.0895.0106-.1105-.0077-.0193-.0173-.0212-.0173-.0337-.001-.0116.0154-.0116.0164.0019.0049.0125-.0096.0183-.0096.0269.0019.0096.0115.0029.0135-.0413.0115-.0298-.001-.0557-.0048-.0595-.0086-.0039-.0029.0029-.0039.0153-.002.0173.0039.0192.002.0086-.0105-.0095-.0125-.0134-.0115-.0297.0029-.0231.0202-.148.0269-.1317.0067.0058-.0077.0058-.0135.0009-.0173-.0057-.0029-.0144.001-.021.0086-.0164.0193-.0279.0097-.0241-.0192.0009-.0134 0-.022-.0038-.0182-.0029.0029-.0058.0163-.0058.0298 0 .0173-.0058.026-.0173.0278-.0135.002-.0154-.001-.0067-.0105.0067-.0077.0067-.0154.0019-.0183-.0057-.0029-.0154.001-.0221.0096-.0106.0125-.0134.0115-.025-.0125-.0067-.0144-.0105-.0192-.0077-.0096.0038.0125 0 .0163-.0134.0144-.0097-.0019-.025.0039-.0347.0116-.0105.0086-.0153.0096-.0105.0019.0038-.0068.001-.0116-.0077-.0116-.0086 0-.0154.0039-.0154.0087s-.0067.0115-.0153.0144c-.0135.0048-.0144.0039-.0039-.0086.0125-.0154.0087-.0173-.0259-.0145-.0173.001-.0202-.0028-.0173-.0201.0029-.0145.0009-.0183-.0048-.0125-.0058.0057-.0106.0211-.0116.0346-.0009.0144-.0057.023-.0096.0211-.0048-.0029-.0058-.0086-.0029-.0134.0029-.0049.001-.0106-.0047-.0145-.0049-.0028-.0097-.0019-.0097.003 0 .0047-.0106.0066-.0239.0038-.0146-.002-.0241 0-.0241.0067a.0107.0107 0 0 1-.0106.0106c-.0048 0-.0077-.0039-.0038-.0087.0029-.0048.0009-.0115-.0048-.0154-.0049-.0028-.0097-.0019-.0097.003 0 .0057-.0086.0076-.0192.0047-.0105-.0029-.0173-.0086-.0144-.0125.0029-.0048.001-.0105-.0047-.0144-.0059-.0038-.0097.0048-.0097.0202 0 .026-.0009.026-.0153.0077C23.488.076 23.4851.075 23.488.0846c.0029.0097-.002.0154-.0135.0164-.0106.001-.0163-.002-.0135-.0077.0038-.0048.002-.0087-.0038-.0087-.0048 0-.0125.0048-.0154.0106-.0048.0058-.0106.0039-.0183-.0067-.0115-.0144-.0124-.0144-.0182 0-.0038.0086-.0106.0154-.0163.0154-.0058 0-.0077-.0048-.0049-.0096.0029-.0058.002-.0097-.0038-.0097-.0048 0-.0125.0048-.0154.0106-.0047.0058-.0115.0039-.0192-.0077-.0125-.0163-.0134-.0163-.0193-.001-.0038.0097-.0104.0174-.0162.0174-.0048 0-.0059-.0039-.0029-.0096.0029-.0058-.001-.0068-.0096-.0039-.0077.0039-.0202.001-.0279-.0048-.0067-.0058-.0154-.0077-.0192-.0038-.0125.0125-.0471.0125-.0615.001-.0126-.0106-.0135-.0106-.0077.0009.0067.0096.0029.0115-.0135.0057-.0144-.0048-.0192-.0038-.0153.0039.0076.0115-.0203.0038-.0385-.0106-.0067-.0048-.0221-.0038-.0375.002-.0173.0067-.0307.0067-.0365.001-.0048-.0049-.0201-.0059-.0384 0-.0193.0057-.0337.0047-.0423-.003-.0097-.0077-.0163-.0067-.0279.0077-.0086.0096-.0115.0125-.0077.0048.0049-.0096.001-.0106-.0134-.0067-.0106.0038-.0221.002-.025-.0029-.0038-.0058-.0173-.0058-.0365 0-.0212.0058-.0346.0048-.0451-.0038-.0116-.0096-.0126-.0087-.0058.0028.0047.0087-.001.0068-.0145-.0048-.0124-.0105-.0191-.0144-.0162-.0086.0104.0182-.0482.022-.0654.0048-.0116-.0115-.0155-.0125-.0126-.002.0048.0203-.048.0193-.0662-.0009-.0174-.0192-.0318-.022-.0318-.0067 0 .0048.0038.0077.0087.0038.0048-.0029.0125 0 .0163.0058.0049.0086 0 .0096-.0135.0067-.0115-.0038-.0239-.0019-.0268.0039-.003.0048-.0145.0019-.026-.0087-.0106-.0096-.0163-.0125-.0135-.0057.0039.0057.0029.0134-.0028.0172-.0058.003-.0096-.0038-.0096-.0153 0-.0212 0-.0212-.0154-.003-.0077.0097-.0115.0116-.0077.004.0058-.0116.0048-.0126-.0067-.004-.0183.0135-.0433.0107-.0394-.0038.0029-.0163-.0068-.0144-.025.0058-.0097.0096-.0125.0115-.0077.0048.0067-.0106.0038-.0115-.0163-.0038-.0173.0067-.027.0067-.0317-.001-.0048-.0067-.0029-.0077.0058-.0029.0086.0048.0105.0039.0057-.0029-.0097-.0163-.025-.0144-.025.003 0 .0076-.0048.0143-.0106.0143-.0048 0-.0066-.0038-.0038-.0096.0038-.0067-.0019-.0067-.0183 0-.0163.0058-.0259.0058-.0307-.0019-.0048-.0067-.002-.0077.0067-.0029.0106.0058.0116.0048.001-.0057-.0097-.0106-.0144-.0087-.0269.0086-.0106.0154-.0183.0192-.0259.0125A.0635.0635 0 0 0 22.231.075a.033.033 0 0 1-.0144-.0067c-.0029-.0038 0-.0029.0067.001.0057.0029.0134.0029.0163-.002.0068-.0115-.0269-.0105-.0345.001-.0077.0125-.0558.0154-.0625.0029-.0038-.0048-.001-.0058.0067-.001.0087.0048.0105.0039.0058-.0029-.0097-.0153-.025-.0144-.025.001 0 .0077-.0125.0125-.0337.0125-.0182 0-.0336-.0038-.0336-.0086 0-.0039.0039-.0058.0086-.002.0048.003.0116.002.0145-.0029.0018-.0038-.0039-.0086-.0145-.0086-.0096-.001-.0182.0038-.0182.0106 0 .0173-.0568.0125-.0683-.0048-.0066-.0106-.0086-.0096-.0086.0028 0 .0097-.0048.0173-.0106.0173-.0047 0-.0067-.0057-.0029-.0124.0049-.0087.0039-.0087-.0057 0-.0106.0096-.0164.0086-.0308-.0039C21.91.054 21.9071.054 21.8994.0654c-.0105.0173-.0288.0192-.0471.0058-.0105-.0077-.0124-.0077-.0067.001.0038.0067.002.0124-.0029.0124-.0057 0-.0105-.0076-.0105-.0173 0-.0124-.002-.0134-.0087-.0028-.0097.0153-.0683.023-.0683.0086 0-.0048.004-.0067.0087-.0029.0048.003.0116.002.0145-.0029.0018-.0038-.0039-.0086-.0145-.0086-.0096-.001-.0182.0048-.0182.0125 0 .0077-.0048.0134-.0106.0134-.0048 0-.0067-.0038-.0038-.0096.0038-.0067-.002-.0067-.0183 0-.0164.0058-.0259.0058-.0307-.0019-.0049-.0067-.0029-.0077.0057-.0029.0086.0048.0106.0039.0058-.0029-.0096-.0163-.025-.0144-.025.003 0 .0076-.0049.0143-.0106.0143-.0047 0-.0067-.0038-.0038-.0096.0038-.0067-.0029-.0067-.0183 0-.0202.0068-.025.0058-.025-.0048 0-.0077-.0047-.0144-.0106-.0144-.0057 0-.0086.0058-.0057.0125.0039.0096-.0058.0125-.0384.0106-.024-.002-.0462-.0048-.0481-.0077-.0029-.0029-.0153-.001-.0279.0038-.0182.0068-.023.0058-.023-.0048 0-.0173-.0154-.0192-.0221-.0019-.0048.0125-.0433.0154-.0615.0039-.0048-.0039-.0125-.003-.0163 0-.0087.0086-.0529.0115-.052.0038 0-.0029 0-.0144-.0009-.025-.0019-.0163-.0039-.0154-.0163.0067-.0077.0154-.0164.027-.0193.027-.0028 0-.0019-.0049.0019-.0116.0048-.0067.003-.0077-.0067-.002-.0201.0126-.0365.0135-.0442.002-.0029-.0058-.0009-.0077.0048-.0038.0058.0029.0125.0029.0154-.002.0067-.0115-.0269-.0105-.0346.001-.0057.0096-.2854.0163-.2845.0067.0011-.0173-.0038-.0192-.0163-.0067-.0164.0163-.0558.0106-.0461-.0067.0029-.0058 0-.0058-.0077.001-.0068.0067-.0269.0124-.0451.0124-.0232 0-.0298-.0038-.025-.0125.0057-.0096.0038-.0096-.0068 0a.046.046 0 0 1-.0269.0125c-.0134 0-.0134-.001-.001-.0096.0087-.0057.0097-.0096.0029-.0096-.0057 0-.0144.0039-.0173.0096-.0028.0048-.0125.0096-.0201.0096-.0097 0-.0116-.0048-.0077-.0125.0057-.0086.0048-.0086-.0068 0-.0115.0097-.0173.0097-.0279 0-.0086-.0076-.0104-.0076-.0057 0 .0039.0068 0 .0097-.0106.0077-.0096-.0019-.0173-.0048-.0173-.0048s-.0124-.0038-.0269-.0057c-.0153-.003-.025-.001-.0231.0038.0029.0038-.0048.0077-.0172.0077-.0135 0-.0202-.0039-.0164-.0106.0029-.0048-.0009-.0038-.0095.0029-.0088.0067-.0183.0087-.0212.0038-.0049-.0086-.0673-.0067-.0827.003-.0048.0028-.0115.0009-.0144-.0049-.0048-.0077-.0106-.0077-.0192 0-.0077.0058-.0154.0068-.0183.002-.0058-.0097-.0845-.0077-.1009.0019-.0048.0038-.0115.0029-.0134-.002-.0067-.0086-.0845-.0086-.1.001-.0057.0039-.0144.0029-.0172-.0029-.0039-.0057-.0193-.0086-.0347-.0057-.0153.0019-.0307 0-.0336-.0048-.0029-.0058-.0106-.0058-.0164-.001-.0143.0096-.046.0086-.0634-.002-.0105-.0067-.0115-.0057-.0058.0049.0068.0115.0058.0115-.0066.001-.0097-.0078-.0183-.0087-.0212-.003-.0067.0097-.023.0097-.0413-.0019-.0058-.0038-.0135-.0029-.0164.002-.0057.0086-.0133.0086-.0701-.003-.0124-.0028-.0241-.0009-.0269.004-.0029.0047-.0154.0057-.0269.0018a.0881.0881 0 0 0-.0355-.0067c-.0078.001-.0202-.0038-.0279-.0086-.0106-.0087-.0126-.0077-.0068.0019.0058.0106.001.0115-.0221.0086-.0164-.0029-.0317-.0019-.0345.003-.0029.0038-.0135.0057-.0231.0028-.024-.0058-.0192-.0365.0058-.0356.0105.001.0192-.0038.0192-.0096 0-.0115-.0404-.0134-.0519-.0029-.0029.0039-.0115.002-.0192-.0048-.0068-.0057-.0155-.0076-.0193-.0038-.0028.0029-.0009.0058.0058.0058.0067 0 .0086.0048.0048.0115-.0039.0058-.0029.0077.0029.0048.0058-.0038.0153 0 .0221.0077.0067.0077.0096.0154.0058.0154-.0231.0048-.0318.0038-.0433-.0048-.0096-.0077-.0125-.0077-.0087-.001.0049.0067-.0153.0106-.0557.0115-.0442.001-.0596-.0019-.0548-.0096.0048-.0086.002-.0077-.0077 0-.0105.0087-.1163.0106-.4362.0067-.2326-.0028-.6323-.0057-.889-.0076a90.2622 90.2622 0 0 1-.8408-.0116c-.5179-.0096-.6045-.0105-1.2503-.0125-.3133-.001-.5708-.0038-.5737-.0067C15.4502.004 14.0943.001 14.053.0087Zm7.8705.0663c.0028.0048.0009.0096-.0038.0096-.0058 0-.0106-.0048-.0106-.0096 0-.0057.0038-.0096.0038-.0096.0028 0 .0077.0039.0106.0096Zm1.8979.0231s-.0067.0067-.0153.0096c-.0077.0029-.0116.002-.0088-.0038.0058-.0096.0241-.0135.0241-.0058Zm-2.6235 3.4845c0 .0385-.0345.0596-.0471.027-.0095-.027.0058-.0558.0298-.0558.0125 0 .0173.0077.0173.0288Z"/><path d="M31.5315.2208c-.0039.0039-.051.0087-.1038.0096-.0529.002-.1028.0058-.1105.0096-.0078.0039-.0356.0087-.0624.0116a.8895.8895 0 0 0-.0913.0163c-.05.0115-.0962.0202-.2452.0461-.096.0173-.1499.0289-.2834.0615a3.1938 3.1938 0 0 0-.1154.0318c-.0393.0125-.1095.0336-.1556.048-.0471.0135-.0894.0221-.0962.0183-.0057-.0039-.0076-.003-.0047.0029.0067.0105-.1441.0634-.1826.0643-.0115 0-.0183.0039-.0154.0096.0039.0049-.0029.0068-.0144.0039-.0135-.0039-.0241-.001-.0288.0086-.0048.0077-.0192.0154-.0327.0154-.0144.001-.023.0048-.0212.0077.0029.0048-.0643.0298-.0873.0317a.056.056 0 0 0-.0222.0135c-.0077.0067-.0173.0096-.0221.0067-.0048-.0038-.0086-.001-.0086.0038 0 .0058-.0059.0106-.0116.0106-.0182 0-.3642.172-.469.2326-.1364.0788-.4054.2508-.4987.318-.3027.2172-.6612.5507-.887.8255-.0336.0404-.0942.1134-.1364.1625a2.8125 2.8125 0 0 0-.1384.1758 4.8563 4.8563 0 0 1-.1096.147c-.099.126-.4747.6843-.5583.8323a8.5933 8.5933 0 0 1-.1682.2738 8.1738 8.1738 0 0 0-.1855.3028c-.0442.0778-.1278.221-.1854.317-.0567.0962-.1327.225-.1663.2855-.0345.0605-.0701.121-.0798.1345-.0086.0135-.0614.1-.1172.1922-.0557.0923-.1306.2143-.1653.272-.0345.0567-.0634.1067-.0634.1067s-.049.0903-.1086.195c-.0595.1048-.1278.225-.1508.2672a10.252 10.252 0 0 1-.2259.3892c-.027.0452-.0874.146-.1345.2258-.0462.0788-.101.1701-.1202.2018a4.4921 4.4921 0 0 0-.0836.1394c-.0259.0451-.0769.1278-.1114.1854-.0356.0568-.0644.1077-.0644.1077 0 .0029-.0337.0625-.076.1326a4.3344 4.3344 0 0 0-.1114.199 4.4885 4.4885 0 0 1-.1154.2065c-.0432.074-.097.1692-.1201.2115-.023.0422-.1383.2392-.2575.4372-.1192.198-.2489.4161-.2883.4853-.0394.0682-.0875.1509-.1057.1826a4.5855 4.5855 0 0 0-.0961.1826c-.0346.0682-.0884.1633-.1201.2114-.099.148-.1894.3046-.1894.3287 0 .0297.0453.1287.1039.2268.0461.075.1518.269.22.3997.0174.0337.0461.0855.0634.1153a4.551 4.551 0 0 1 .0981.174c.0365.0663.123.2191.1931.3411.1624.2835.2028.3556.2586.4613.0249.0471.0508.0932.0575.1009.0068.0077.0395.0644.0731.1249.0327.0606.0903.1625.1278.2259.0365.0635.098.1691.1355.2355.0375.0663.1048.1806.148.2546.0442.0739.1211.2075.1711.2979.1335.2374.2133.3786.2911.5142.0385.0663.1201.2104.1826.3219.0615.1105.1548.2777.2057.3699.0519.0923.1451.2566.2066.3652.0624.1085.1355.2354.1614.2835.027.0471.1028.1816.1692.2979.0663.1163.1412.2509.1672.298.0269.048.0903.1594.1413.2478.0509.0884.1422.2499.2037.3584.0605.1087.147.2586.1921.3336.0453.074.124.2133.174.3084.1114.2095.3959.7103.445.7842.0201.0289.0769.1259.1269.2162.1037.1865.1709.3046.3478.6103.2489.4305.5237.9167.6208 1.0955.0643.1191.1047.1912.2643.466.0307.0529.0624.1068.0721.1202.0221.0317.1873.3229.2911.5103.0452.0827.1144.2037.1537.2691.0394.0652.0904.1537.1125.196.0365.0682.1605.2844.3124.5477.0268.0471.073.1231.1008.1682.0701.1125.1269.2085.2259.3893.0461.0845.1181.2094.1586.2786.0931.1585.1547.2633.2248.3844l.1711.2931c.2209.3777.4247.7438.5795 1.0378.1249.2374.3055.5613.4516.8073.1374.2306.3738.6323.4402.7495.0663.1163.2383.4095.2805.4806.1096.1806.1471.2421.1798.2912.0201.0298.0345.0595.0307.0663-.0038.0057-.0029.0077.0029.0047.0057-.0038.0172.0097.0259.0298.0298.0712-.0105.0654.5007.0741.2537.0038.4872.0086.5189.0105.0318.001.2489.0029.4834.0029.2786.0009.4247.0038.4247.0106 0 .0047.0097.0096.0221.0087.0202 0 .0202-.0011.002-.0087-.0135-.0057-.002-.0077.0345-.0068.0299.0011.0529.0049.05.0087-.0018.0048.0058.0067.0183.0057a.346.346 0 0 1 .0567.0058c.0211.0048.0375.0039.0413-.0019.0029-.0057-.0018-.0077-.0124-.0048-.0097.0029-.0212 0-.0241-.0058-.0048-.0066.0048-.0106.0279-.0106.0192 0 .0327.004.0298.0087-.0029.0048.0009.0115.0095.0144.0212.0077.0232.0077.0232-.0067 0-.0153.0845-.0164.0942-.0009.0038.0057.021.0095.0384.0086.0164-.001.0307.002.0307.0067 0 .0048.0087.0039.0182-.0019.0106-.0048.0261-.0068.0338-.0039.0086.0039.0153.0011.0153-.0057 0-.0087.0097-.0096.0318-.0058.0518.0115.122.0126.122.002 0-.0058.0047-.0049.0115.0018.0086.0088.0144.0068.024-.0057.0077-.0087.0116-.0116.0087-.0058-.0077.0163.025.026.0345.0115.0049-.0095.0078-.0076.0078.0048 0 .0097.0038.0155.0086.0126.0048-.0039.0115 0 .0135.0058.0038.0077.0057.0066.0057-.004.0009-.0134.0058-.0143.0298-.0076.0154.0048.0308.0048.0337 0 .0057-.0096.0431-.001.0431.0116 0 .0047.0087.0038.0193-.002.0144-.0077.0192-.0077.0192.002 0 .0086.0029.0086.0077.0018.0086-.0134.05-.0239.05-.0115 0 .0048.0048.0057.0095.0029.0059-.0029.0097 0 .0097.0068 0 .0095.002.0095.0086 0 .0087-.0144.0597-.0126.0701.0028.0049.0058.0078.0049.0078-.0028 0-.0058.0068-.0116.0154-.0116.0077 0 .0115.0038.0086.0096-.0029.0048-.0009.0097.0038.0097.0058 0 .0106-.0049.0106-.0097 0-.0115.0212-.0086.0308.0048.0048.0058.0077.0049.0077-.0039 0-.0105.0028-.0105.0163 0 .0135.0116.0153.0116.0077 0-.0057-.0105-.0039-.0124.0105-.0067.0366.0144.0808.0183.0808.0067 0-.0067.0048-.0086.0096-.0057.0057.0039.0077.0086.0057.0125-.0019.0038.0155.0067.0385.0067s.0422-.0047.0433-.0096c0-.0057.0038-.001.0076.0087.0068.0182.0077.0182.026 0 .023-.0221.0595-.0289.0413-.0077-.0154.0183-.0039.0172.0144-.002.0096-.0096.0153-.0105.0153-.0038 0 .0077.0088.0097.0232.0058.0173-.0038.0268-.001.0336.0105.0086.0154.0096.0154.0106-.0048 0-.0163.0057-.0211.025-.0211.0153 0 .0221.0038.0172.0116-.0048.0066-.0028.0077.0058.0028.0067-.0039.0154-.0019.0202.0058.0067.0106.0086.0086.0086-.0058 0-.0106.0039-.0154.0077-.0096.0039.0048.0201.0096.0356.0096.0163 0 .0316-.0048.0356-.0096.0048-.0058.0077-.0038.0077.0048s.0095.0144.0239.0144c.0298 0 .0298-.0029.0029-.0144-.0211-.0077-.0202-.0086.0048-.0067.0144.0009.0259.0067.0259.0144 0 .0096.0077.0115.0318.0058a.2748.2748 0 0 1 .0433-.0068c.0058 0 .0115-.0038.0115-.0087 0-.0134.0374-.0086.0624.0078.0126.0086.027.0125.0327.0096.0048-.0029.0115 0 .0135.0058.0038.0086.0057.0086.0057.0009.001-.0067.0125-.0086.0308-.0058.0192.0029.0278.001.024-.0057-.0039-.0048-.0144-.0077-.024-.0058-.0096.0019-.0173-.0028-.0173-.0106 0-.0096.0038-.0106.0124-.0028.0078.0057.0135.0057.0174 0 .0029-.0049.0144-.0068.025-.0038.0105.0028.0162.0086.0134.0133-.0029.0049.0039.0097.0145.0097.0115.0009.0259.0019.0326.0029.0058.0009.0145.0048.0183.0106.0048.0057.0077.0057.0077-.0011 0-.0057.0066-.0105.0144-.0105.0077 0 .0144.0038.0144.0087 0 .0124.0576-.0203.0576-.0336.001-.0059.0067.0028.0155.021.0162.0385.0278.0347.0133-.0048-.0105-.0268-.0105-.0268.0088-.0086.0133.0115.0201.0134.0201.0048 0-.0096.0029-.0096.0135-.0009.0095.0076.0153.0086.0201.0009.0029-.0048.0144-.0096.0259-.0096.0164 0 .0174.0019.0078.0144-.0106.0125-.0144.0125-.0202.0029-.0068-.0097-.0086-.0086-.0086.0038 0 .0192.0144.0232.0239.0068.0039-.0058.0135-.0077.0212-.0048.0077.0028.0106.0009.0077-.0038-.0029-.0059-.0019-.0097.0038-.0097.0049 0 .0144.0077.0192.0163.0097.0164.0097.0164.0106 0 0-.0105.0049-.0143.0106-.0105a.0139.0139 0 0 0 .0173-.0049c.0048-.0067.0135-.0047.0279.0088.0115.0115.0211.0144.0211.0086s-.0077-.0174-.0163-.0241c-.0144-.0105-.0106-.0106.0259-.0028.0241.0057.0471.0134.0528.0192.0144.0144.0241.0095.0183-.0086-.0039-.0116-.0028-.0126.0029-.004.0049.0068.0164.0097.025.0058.0086-.0029.0164-.0018.0164.0039 0 .0048.0134.0086.0287.0077.0164-.001.0289.0019.0289.0067 0 .0048.0058.0067.0125.0038.0057-.0018.0106-.0105.0086-.0173-.0009-.0077.0039-.0057.0126.0049.0134.0182.0143.0182.0355 0 .0202-.0183.0202-.0183.0144.0009-.0068.0183-.0057.0183.0067.0019.0135-.0172.0144-.0172.025 0 .0097.0154.0106.0144.0068-.0086-.002-.0144 0-.0241.0038-.0212.0048.0029.0086.0126.0086.0212.0009.0153.0009.0153.0126 0 .0115-.0144.0134-.0144.0239 0 .0086.0115.0106.0115.0068.002-.0039-.0077.0009-.0059.0086.0038.0154.0192.0154.0192.0164 0 0-.0097.0029-.0135.0048-.0068.0029.0068.0115.0087.0191.0058.0068-.0028.0117-.0077.0088-.0116-.0059-.0105.0557 0 .0701.0106.0077.0068.0115.0068.0115-.0009 0-.0058.0067-.0106.0154-.0106.0076 0 .0116-.0048.0087-.0096s-.0011-.0096.0038-.0096c.0057 0 .0106.0057.0106.0115 0 .0086.0038.0077.0106-.0019.0086-.0116.0095-.0105.0057.0058-.0039.0163-.001.0192.0135.0163.0105-.0028.0182-.0096.0182-.0145 0-.0047-.0038-.0057-.0096-.0028-.0048.0028-.0097.0019-.0097-.0029 0-.0047.0164-.0087.0367-.0087.0249-.0009.0297.001.0144.0058-.0327.0086-.0126.025.0307.025.0211 0 .0413-.0047.0451-.0096.0049-.0057.0077-.0048.0077.0019 0 .0068.0067.0096.0144.0068.0077-.0038.0144-.0126.0144-.0193 0-.0115.0029-.0115.0135-.0019.0097.0086.0106.0144.0019.0192-.0067.0048-.0048.0077.0067.0077.0097 0 .0164-.0067.0164-.0172 0-.0116.0077-.0164.024-.0164.0135 0 .0241.0029.0241.0058 0 .0028.0509.0048.1133.0028.0798-.0019.1202.001.1394.0106.0144.0077.024.0087.0211.0038-.0038-.0048-.0009-.0086.0039-.0086.0058 0 .0106.0048.0106.0115 0 .0058.0067.0048.0173-.0048.0172-.0163.1008-.0191.0913-.0038-.002.0038-.0078.0048-.0126.0019-.0047-.0028-.0106-.001-.0144.0049-.0038.0057.0038.0086.0183.0076.0144-.001.025-.0067.025-.0125 0-.0077.0922-.0115.3219-.0115.27 0 .3219.0019.3219.0134 0 .0077.0077.0125.0173.0106a.0538.0538 0 0 1 .0279.0048c.0057.0038.0134.0029.0173-.0029.0058-.0086-.0134-.0134-.0404-.0106-.0067.0011-.0124-.0019-.0124-.0066 0-.0049.0326-.0087.0721-.0078.0509.001.072.0049.072.0125 0 .0068.0067.0125.0153.0125.0116 0 .0135-.0029.0058-.0125-.0086-.0096-.0029-.0125.0231-.0125.0173 0 .0326.0049.0326.0106 0 .0058.0106.0106.0232.0106.0134 0 .021-.0039.0192-.0077-.0029-.0048-.0088-.0057-.0135-.0029-.0048.0029-.0106.0019-.0134-.0028-.002-.004.0105-.0078.0278-.0078.023 0 .0298.0038.0241.0106-.0068.0077 0 .0115.0239.0115.0183 0 .0308-.0038.0279-.0077-.0019-.0048-.0105-.0057-.0182-.0019-.0077.003-.0144.001-.0144-.0038 0-.0049.0153-.0087.0336-.0087.0211 0 .0336.0049.0336.0125 0 .0068.0067.0125.0154.0125.0077 0 .0125-.0038.0096-.0077-.0028-.0048.001-.0086.0087-.0086.0077 0 .0115.0029.0095.0068-.0018.0038.002.0066.0097.0066s.0115-.0038.0086-.0077c-.0019-.0038 0-.0106.0058-.0134.0057-.0038.0086-.001.0077.0057-.002.0068.0048.0145.0153.0164.0116.0028.0154 0 .0106-.0076-.0058-.0088-.0029-.0088.0125-.0011.024.0135.0414.0135.0211.0011-.0124-.0077-.0115-.0097.0029-.0097.0087 0 .0163.0038.0163.0086 0 .0049.0356.0087.0798.0087.1778-.0019.3825.0048.3873.0125.0029.0049.0106.0087.0164.0087.0077 0 .0067-.0029-.002-.0087-.0095-.0057-.0029-.0086.0202-.0086.0183 0 .0395.0038.0461.0076.0078.0048.0212.0039.0299-.0009.0115-.0058.0192-.0049.023.0009.0048.0077.0106.0068.0201-.0009.0106-.0087.0135-.0087.0135 0 0 .0077.0048.0086.0183.0019.0096-.0057.0202-.0077.0241-.0039.0029.0029.0221.0068.0412.0068.0203.0009.0424.0048.049.0086.0068.0049.0116.0029.0116-.0028 0-.0058.0039-.0078.0096-.0049.0049.0029.0442.0058.0865.0068.0422 0 .0749.0038.0721.0067-.002.0038.0048.0067.0144.0067.0096 0 .0163-.0029.0143-.0058-.0018-.0029.027-.0057.0635-.0057.0567-.001.0634.001.049.0115-.0144.0116-.0144.0116.0058.0068.0115-.0029.0212-.0087.0212-.0135 0-.0048.0086-.0086.0192-.0086.0105 0 .0192.0057.0192.0115 0 .0096.0029.0086.0087-.001.0066-.0096.0124-.0105.0297-.001.0145.0077.0192.0077.0154.001-.0049-.0067.0038-.0105.023-.0105.0174 0 .0279.0038.0241.0095-.0029.0048-.0009.0097.0038.0097.0057 0 .0106-.0039.0106-.0087s.0249-.0086.0567-.0086c.0308.0009.0606-.0019.0644-.0039.0048-.0029.0259-.0048.0471-.0058a3.441 3.441 0 0 0 .1826-.0115c.1422-.0106.1873-.0163.4123-.0566a2.2248 2.2248 0 0 1 .1537-.0232c.0211-.0009.0442-.0057.0499-.0086.0126-.0077.0644-.0212.1817-.0471.1623-.0345.2508-.0615.4132-.1229a3.5342 3.5342 0 0 1 .1345-.0491c.075-.023.4151-.1768.5911-.2671.2412-.1231.3564-.1903.5045-.2931.1153-.0798.4161-.3086.4872-.3701.2844-.245.6228-.5842.7736-.7773.1393-.1769.3046-.42.4017-.5892.0711-.1239.2556-.4987.3123-.6342.2123-.5054.344-1.0023.3931-1.4847.0278-.2711.048-.6708.0422-.8216-.0163-.4181-.0663-.7775-.1633-1.1772-.0193-.0798-.0356-.1529-.0365-.1634a.3374.3374 0 0 0-.0135-.0471c-.0068-.0154-.0086-.0347-.0068-.0413.0029-.0078.001-.0106-.0038-.0078-.0115.0078-.023-.0384-.0135-.0548.0039-.0066.004-.0095-.0009-.0057-.0097.0097-.0451-.0683-.0394-.0845.0029-.0068.001-.0135-.0028-.0154-.0078-.0029-.0731-.1778-.0731-.1951a.0214.0214 0 0 0-.0078-.0154c-.0047-.0038-.0095-.0173-.0095-.0307-.0009-.0135-.0038-.0231-.0067-.0212-.003.0019-.0145-.0182-.026-.0442-.0115-.0259-.0164-.0471-.0115-.0471.0057 0 .0028-.0067-.0049-.0153-.0086-.0078-.0134-.0193-.0106-.0241.004-.0048.0011-.0086-.0038-.0086-.0057 0-.0105-.0067-.0105-.0155 0-.0086-.0087-.0278-.0202-.0431-.0106-.0155-.0212-.0347-.0221-.0414a.114.114 0 0 0-.0183-.0375c-.0086-.0144-.0173-.0365-.0182-.0489-.001-.0135-.0048-.0221-.0086-.0193-.0039.0019-.0115-.0106-.0183-.0278a1.1006 1.1006 0 0 0-.0299-.0654c-.0095-.0193-.0181-.0423-.0181-.0509 0-.0086-.0029-.0154-.0078-.0154-.0038 0-.0211-.0317-.0393-.0702-.0376-.0807-.0376-.0807-.0856-.172-.0212-.0384-.0672-.1268-.1028-.1951-.1182-.2258-.2277-.4314-.2643-.4948-.1365-.2374-.2306-.4008-.2709-.4758a3.898 3.898 0 0 0-.075-.1297 8.0286 8.0286 0 0 1-.0866-.149c-.0336-.0586-.0787-.1374-.1017-.1749-.0232-.0384-.0424-.0721-.0424-.0749 0-.0029-.0115-.0231-.0259-.0461-.0365-.0587-.2335-.4027-.3201-.5593a17.033 17.033 0 0 0-.3555-.615c-.0567-.0933-.1442-.2518-.147-.2673-.001-.0057-.0097-.0192-.0183-.0297-.0096-.0105-.0173-.0249-.0173-.0317 0-.0067-.0038-.0125-.0086-.0125-.0049 0-.0116-.0068-.0144-.0154-.0049-.0115-.0029-.0135.0066-.0077.0068.0048.004.001-.0057-.0077-.0096-.0096-.0192-.0221-.0211-.0288-.0087-.0356-.0174-.0557-.0251-.0557-.0047 0-.0172-.0183-.0278-.0414-.0116-.023-.0144-.0327-.0058-.0221.0086.0106.0174.0164.0212.0135.0029-.0038-.0077-.0154-.0241-.0279-.0163-.0125-.0297-.0298-.0297-.0393 0-.0097-.0039-.0174-.0097-.0174-.0048 0-.0095-.0047-.0095-.0105 0-.0059-.0086-.0231-.0203-.0395-.0115-.0153-.0172-.0307-.0144-.0336.0029-.0038.0058-.0009.0058.0048 0 .0067.0058.0115.0125.0115.0058-.0009-.001-.0105-.0163-.023-.0154-.0125-.025-.0269-.0212-.0327.0029-.0057-.0009-.0163-.0086-.024-.0077-.0087-.0144-.0202-.0144-.0259 0-.0058-.0039-.0078-.0097-.0049-.0086.0058-.0133-.0077-.0105-.0269 0-.0038-.0039-.0067-.0096-.0067-.0049 0-.0077-.0038-.0038-.0086.0028-.0049-.002-.0155-.0097-.0231-.0077-.0087-.0144-.0192-.0144-.024 0-.0058-.0029-.0115-.0067-.0135-.0086-.0029-.0327-.0442-.0577-.0971-.0096-.0192-.0201-.0355-.024-.0355-.0049 0-.0077-.0067-.0077-.0153 0-.0087-.0048-.0116-.0105-.0078-.0068.0038-.0097.001-.0068-.0067.0029-.0076-.0096-.0365-.0279-.0644-.0172-.0279-.0316-.0548-.0316-.0606 0-.0057-.0039-.0076-.0088-.0047-.0047.0029-.0104-.0029-.0133-.0135-.0029-.0105-.0011-.0172.0038-.0134.0212.0124.0057-.0164-.0164-.0308-.0134-.0086-.0221-.0221-.0192-.0289.0029-.0066-.002-.0172-.0096-.023-.0077-.0067-.0134-.0163-.0134-.0212 0-.0057-.0087-.0221-.0202-.0383-.0116-.0154-.0174-.0309-.0145-.0337.0029-.0038.0058 0 .0058.0067s.003.0096.0068.0067c.0028-.0038-.0058-.0172-.0202-.0307-.0145-.0135-.0231-.0288-.0192-.0346.0029-.0057.0018-.0134-.0029-.0173-.0203-.0134-.0519-.0702-.0471-.0826.0029-.0077.0009-.0135-.0048-.0116-.0106.0019-.099-.1402-.1519-.2431a2.5748 2.5748 0 0 0-.0749-.1345c-.0259-.0452-.0788-.1345-.1172-.1999a3.9543 3.9543 0 0 0-.0865-.1442c-.0203-.0298-.1903-.3315-.2221-.3959a5.036 5.036 0 0 0-.1057-.1826 23.1386 23.1386 0 0 1-.1633-.2786c-.0971-.1702-.2815-.4796-.3403-.5728a10.076 10.076 0 0 1-.1883-.3258 67.653 67.653 0 0 1-.1825-.3363 5.1605 5.1605 0 0 0-.0827-.1452c-.0289-.048-.0519-.0903-.0519-.0951 0-.0048-.0057-.0154-.0135-.023a1.031 1.031 0 0 1-.0528-.0913c-.0663-.124-.1846-.3364-.1932-.347-.0086-.0105-.1393-.2383-.1902-.3315a1.6124 1.6124 0 0 0-.049-.0865.5679.5679 0 0 1-.0336-.0625c-.0087-.0211-.0337-.0643-.0539-.096-.0509-.0817-.1807-.3047-.3047-.5286-.1114-.1999-.1815-.321-.2209-.3844-.0471-.074-.1231-.2057-.2095-.3604-.052-.0932-.222-.391-.3969-.6967a21.6318 21.6318 0 0 1-.1894-.3411c-.2017-.371-.2277-.4162-.2671-.4805-.0577-.0942-.2691-.4642-.3719-.6487a5.2652 5.2652 0 0 0-.1057-.1874c-.0096-.0134-.0634-.1124-.1202-.221a13.2187 13.2187 0 0 0-.1758-.322 71.3611 71.3611 0 0 1-.1585-.2738c-.0471-.0817-.1182-.2057-.1587-.274-.0393-.0691-.0902-.1575-.1114-.197a2.1003 2.1003 0 0 0-.0577-.098c-.0095-.0143-.0135-.0316-.0095-.0374.0038-.0067.0028-.0087-.0029-.0058-.0049.003-.0183-.0106-.0289-.0298-.0105-.0192-.0385-.0682-.0606-.1076a25.3669 25.3669 0 0 1-.1594-.2883 13.6047 13.6047 0 0 0-.1778-.3094c-.0654-.1096-.1441-.2412-.1749-.2931a8.3905 8.3905 0 0 0-.1019-.171c-.026-.0414-.0451-.0799-.0433-.0837.0029-.0038.0011-.0077-.0028-.0077-.0154 0-.197-.2873-.1893-.2989.0038-.0067.0029-.0086-.002-.0057-.0095.0057-.1508-.2009-.1508-.221 0-.0068-.0039-.0096-.0086-.0068-.0039.003-.0077 0-.0077-.0067 0-.0058-.0078-.0183-.0184-.0269a.2545.2545 0 0 1-.0393-.0538c-.0241-.0433-.0846-.126-.1327-.1807-.0181-.0211-.0298-.0432-.0269-.051.0029-.0076.002-.0124-.0029-.0095-.0076.0057-.0499-.0356-.0643-.0635-.0259-.048-.4652-.5035-.5526-.5717-.026-.0202-.0442-.0423-.0423-.049.0019-.0058-.0019-.0116-.0096-.0116-.0201 0-.0826-.0576-.0749-.0701.0029-.0048.0009-.0068-.0038-.0039-.0117.0077-.0808-.0567-.0769-.072.0009-.0058-.0087-.0116-.0212-.0126-.0135-.001-.0259-.0067-.0279-.0134-.0019-.0058-.0077-.0087-.0124-.0048-.0048.0029-.0088 0-.0088-.0058s-.0047-.0077-.0104-.0038c-.0068.0038-.0088 0-.0049-.0125.0058-.0192-.0163-.0365-.0567-.0442-.0105-.002-.0182-.0087-.0163-.0154.001-.0067-.0019-.0096-.0077-.0058-.0048.003-.0097.002-.0097-.0028 0-.0048-.0086-.0116-.0201-.0145-.0135-.0038-.0173-.0096-.0126-.0182.004-.0067.004-.0096-.0009-.0058-.0095.0096-.0519-.0134-.0893-.049a.351.351 0 0 0-.0721-.048.4936.4936 0 0 1-.0643-.0404c-.0135-.0106-.0184-.0163-.0106-.0125.0086.0048.0115.0029.0066-.0048-.0038-.0058-.0106-.0087-.0153-.0058-.0115.0068-.0586-.024-.0528-.0336.0057-.0096-.0232-.0211-.0347-.0134-.0048.0028-.0077 0-.0066-.0068.0018-.0067-.002-.0125-.0068-.0134-.024-.001-.0903-.0375-.0845-.0462.0028-.0057.0009-.0067-.0049-.0028-.0144.0086-.05-.0106-.0471-.026.0009-.0067-.0048-.0106-.0125-.0096-.0191.0029-.1691-.0798-.1663-.0923.002-.0057-.0038-.0076-.0124-.0038-.0086.0029-.0135 0-.0115-.0077.0019-.0086-.0068-.0144-.0212-.0154-.0548-.0028-.0538-.0028-.0394-.0115.0096-.0058.0038-.0106-.0192-.0154a.3579.3579 0 0 1-.0663-.022.2052.2052 0 0 0-.0403-.0135c-.0049.001-.0077-.002-.0077-.0077 0-.0048-.0068-.0096-.0144-.0096-.0077 0-.0145-.0048-.0145-.0106 0-.0077-.0038-.0077-.0135 0-.0096.0077-.0153.0077-.0239-.002-.0058-.0076-.0068-.0172-.0029-.021.0038-.0049-.0011-.0049-.0097-.002-.0096.0029-.0268-.0029-.0432-.0154-.0145-.0115-.0289-.0192-.0289-.0192a.0071.0071 0 0 1-.0047.002L34.205.6378c-.0106-.002-.0203-.0077-.0221-.0135-.002-.0048-.0106-.0067-.0183-.0038-.0126.0048-.0144.002-.0096-.0115.0058-.0144.0048-.0154-.0077-.0048-.0115.0096-.0144.0096-.0144 0 0-.0068-.0068-.0096-.0145-.0068-.0076.0039-.0163.002-.0192-.0038-.0038-.0048-.0105-.0067-.0153-.0039-.0048.0039-.0086.001-.0086-.0048 0-.0067-.0058-.0096-.0116-.0067-.0068.002-.0221-.0048-.0337-.0154-.0124-.0105-.0336-.0211-.0471-.022a.186.186 0 0 1-.0412-.0097.2026.2026 0 0 0-.0221-.0086l-.0097-.0039C33.908.5168 33.8965.514 33.883.512c-.0125-.0029-.0279-.0096-.0336-.0154-.0067-.0077-.0058-.0086.0039-.0028.0095.0057.0115.0038.0067-.0039a.0184.0184 0 0 0-.0212-.0067c-.0076.0029-.0259 0-.0403-.0058a.5435.5435 0 0 0-.0327-.0125c-.0049-.0019-.0096-.0038-.0125-.0048-.0067-.0038-.0145-.0048-.0548-.0134-.0202-.0048-.0365-.0116-.0365-.0173 0-.0048-.0039-.0068-.0096-.003-.0049.003-.025-.0009-.0442-.0095a.368.368 0 0 0-.0558-.0183c-.0769-.0154-.1748-.0394-.1786-.0432a.0333.0333 0 0 0-.0164-.0077 1.718 1.718 0 0 1-.0433-.0087c-.0173-.0029-.0356-.0067-.0413-.0077a.089.089 0 0 1-.0192-.0067c-.0049-.0038-.0173-.0048-.027-.0038-.0086.0019-.0451-.003-.0816-.0106a2.389 2.389 0 0 0-.098-.0192c-.0183-.0029-.0837-.0135-.1441-.023-.1125-.0183-.1663-.0241-.3028-.0347A1.293 1.293 0 0 1 32.4848.22c-.0471-.0106-.9428-.0096-.9533.001Zm3.8411 1.0946a.0185.0185 0 0 1-.0038.0096c-.0029 0-.0078-.0048-.0106-.0096-.0029-.0058-.0011-.0096.0038-.0096.0057 0 .0106.0038.0106.0096Zm.6669 24.7724c.0029.0048-.001.0086-.0086.0086-.0077 0-.0117-.0038-.0087-.0086a.041.041 0 0 1 .0087-.0077s.0057.0038.0086.0077Zm.4506.0067c-.0028.0086-.0076.0134-.0095.0106-.0029-.0029-.002-.0087.0019-.0144.0087-.0155.0144-.0126.0076.0038Zm.3181-.0067c.0029.0048-.0009.0086-.0086.0086s-.0115-.0038-.0086-.0086a.0416.0416 0 0 1 .0086-.0077s.0058.0038.0086.0077Zm.0818.0048c.0124-.0039.0124-.0019-.002.0067-.0183.0115-.0355.0058-.0355-.0124 0-.0077.0028-.0077.0105 0 .0058.0057.0184.0086.027.0057Zm.9946-.0039c.0029.0039-.0115.0077-.0327.0068-.0212-.001-.0384-.0039-.0384-.0086 0-.0097.0654-.0088.0711.0018Zm-1.7769.0106c.0028.0048.001.0097-.0038.0097-.0058 0-.0106-.0049-.0106-.0097 0-.0058.0039-.0096.0039-.0096.0029 0 .0076.0038.0105.0096Zm.5305-.0038c-.0029.0029-.0115.0038-.0183.0009-.0077-.0029-.0047-.0057.0057-.0057.0106-.001.0164.0019.0126.0048Zm.7764.0029c.0029.0047.001.0115-.0048.0153-.0047.0029-.0095-.0009-.0095-.0086 0-.0173.0057-.0202.0143-.0067Z"/><path d="M44.1397 25.5109c-.0404.0212-.1673.1077-.1835.124a.2542.2542 0 0 1-.0414.027c-.0154.0086-.0278.0182-.0278.023 0 .0048-.0203.0183-.0453.0307-.0259.0126-.05.027-.0557.0336-.0106.0135-.2441.1481-.2556.1481-.0039 0-.0135.0058-.0202.0124-.0067.0068-.0298.0203-.051.0299a6.4589 6.4589 0 0 0-.1249.0595c-.048.0231-.0951.0423-.1037.0423-.0088 0-.0164.0038-.0164.0096 0 .0048-.0028.0086-.0068.0086-.0181-.0028-.0326.0029-.0576.0232-.022.0192-.1307.0595-.1845.0701a.0325.0325 0 0 0-.0201.0135c-.0039.0066-.0097.0106-.0135.0095-.0106-.0038-.1441.0404-.1585.0519-.0117.0078-.0126.0078-.0068-.0019.0048-.0076-.0049-.0047-.025.0057-.0625.0338-.2008.0741-.6467.1904-.074.0183-.1673.0422-.2067.0528-.0979.025-.3046.0557-.4507.0663-.0663.0058-.1729.0144-.2364.0202a8.2842 8.2842 0 0 1-.2546.0174c-.1643.0076-1.9095.0047-2.1814-.0029-.1028-.0039-.3864-.0088-.6296-.0117-.243-.0028-.4545-.0076-.4707-.0104-.0155-.002-.2346-.0058-.4854-.0087a49.58 49.58 0 0 1-.6583-.0087c-.2422-.0058-.2172-.0058-.2931-.0047-.2451.0028-1.7538-.0135-1.7538-.0193 0 0-.7467-.0077-1.3954-.0106-.3661-.0019-.6659-.0067-.6659-.0115 0-.0039-.0048-.0048-.0115-.001-.0058.0039-.0336.0068-.0596.0048-.1153-.0038-.4488-.0086-.7745-.0106-.2058-.0009-.3431-.0047-.3316-.0095.0135-.0058-.0009-.0087-.0462-.0087-.0365-.001-.0749-.0057-.0855-.0115-.0144-.0077-.0182-.0077-.0134 0 .0047.0067-.001.0105-.0135.0105-.0115 0-.0173-.0047-.0145-.0095.003-.0058.0011-.0097-.0038-.0097-.0057 0-.0105.0077-.0105.0077 0 .0135-.4314.0048-.4469-.0077-.0115-.0096-.0144-.0096-.0144.001 0 .0106-.0154.0125-.074.0087-.0413-.0029-.0769-.002-.0778.0019-.002.0047-.0067.0058-.0115.0029-.0039-.0029-.2518-.0068-.5498-.0097-.2969-.0019-.7831-.0067-1.0791-.0095a479.4295 479.4295 0 0 0-1.6001-.0097c-.5843-.0029-1.1003-.0077-1.1483-.0106-.0471-.0029-.3219-.0058-.6102-.0076-.6325-.0039-.5892-.0029-.5805-.0183.0057-.0096.0038-.0096-.0067 0-.0068.0077-.0375.0125-.0712.0125-.0336 0-.0643-.0048-.0711-.0125-.0077-.0058-.0106-.0077-.0077-.002.003.0058-.0125.0106-.0374.0117-.0299.0009-.0405-.002-.0365-.0097.0048-.0077.0018-.0067-.0068 0-.0164.0154-.0663.0163-.0663.0009 0-.0086-.0029-.0086-.0116 0-.0134.0135-.0403.0154-.0327.0029.0029-.0047 0-.0134-.0076-.0192-.0096-.0087-.0154-.0076-.0249.0039-.0135.0163-.0327.0095-.0221-.0077.0038-.0077.0009-.0067-.0087.0009-.0116.0087-.0174.0097-.0221.0019-.0048-.0077-.0125-.0057-.025.0058-.0174.0154-.0231.0126-.0192-.0095.0009-.0049-.0039-.004-.0125.0028-.0096.0087-.0154.0087-.0202.0009-.0048-.0077-.0125-.0057-.025.0058-.0163.0144-.0231.0126-.0192-.0086 0-.0038-.0029-.0067-.0077-.0067-.0049 0-.0106.0095-.0125.0211-.0028.0202-.0039.0202-.0173.0028-.0076-.0095-.0096-.0153-.0038-.0115.0057.0029.0106-.0009.0106-.0086 0-.0106-.0058-.0086-.0212.0057-.0182.0173-.0231.0184-.0327.0058-.0105-.0124-.0096-.0144.0057-.0106.0117.002.0193-.0018.0193-.0105 0-.0096-.0038-.0106-.0134-.0028-.0097.0086-.0126.0076-.0126-.002-.0009-.0097-.0028-.0086-.0095.0029-.0106.0182-.0453.0163-.0404-.0029.0029-.0097 0-.0097-.0115.0009-.0164.0126-.0202.0212-.0077.0164.0038-.001.0077.0009.0095.0048.0048.0173.001.0192-.0133.0067-.0155-.0125-.0645-.0211-.0568-.0096.0029.0058-.1028.0067-.1077.0009-.0057-.0057-.0278-.0057-.0364 0-.0125.0078-.026.0068-.0423-.0037-.0106-.0068-.0115-.0058-.0058.0047.0067.0116.0058.0116-.0068.001-.0095-.0077-.0181-.0086-.021-.0029-.0068.0106-.0241.0087-.0433-.0028-.0106-.0068-.0115-.0058-.0058.0047.0067.0106.0058.0116-.0066.0019-.0078-.0066-.0174-.0095-.0212-.0057-.0096.0106-.0346.0115-.0346.0019 0-.0048-.0048-.0086-.0106-.0086-.0048 0-.0068.0057-.0028.0115.0057.0096.0047.0096-.0078.0009-.0077-.0066-.0172-.0095-.0211-.0057-.0096.0106-.0346.0115-.0346.0019 0-.0048-.0048-.0086-.0106-.0086-.0048 0-.0077.0038-.0048.0076.0029.0048-.0009.0087-.0086.0087-.0078 0-.0116-.0039-.0087-.0087.0029-.0038-.0019-.0076-.0106-.0076-.0095 0-.0124-.0048-.0086-.0115.0038-.0068.0029-.0077-.0048-.0039-.0087.0057-.0087.0106-.001.0201.0087.0097.0067.0126-.0066.0106-.0097-.0018-.0174-.0077-.0174-.0135a.0279.0279 0 0 0-.0067-.0172c-.0039-.0029-.0058.0028-.0029.0134.0038.0231-.0096.0365-.0201.0202-.0049-.0077-.003-.0087.0057-.0038.0087.0057.0105.0038.0058-.0039-.0058-.0087-.0115-.0087-.0241.003-.0144.0133-.0183.0133-.0336-.002-.0106-.0086-.0154-.0115-.0125-.0057.0028.0057 0 .0105-.0076.0105-.0078 0-.0106-.0048-.0078-.0096.0038-.0058.001-.0067-.0077-.0009-.0192.0115-.0374.0134-.0374.0028 0-.0048-.0048-.0086-.0106-.0086-.0048 0-.0068.0057-.0029.0115.0058.0096.0048.0096-.0077.0009-.0077-.0066-.0172-.0095-.0212-.0057-.0095.0106-.0355.0115-.0287.0019.0028-.0048.0086-.0068.0124-.0048.0039.0029.0077-.0009.0077-.0077 0-.0087-.0057-.0096-.0221-.0019-.0115.0058-.0192.0144-.0153.0202.0029.0048-.001.0038-.0097-.0029-.0115-.0086-.0172-.0097-.0221-.002-.0048.0078-.0106.0068-.0221-.0019-.0095-.0076-.0124-.0076-.0086-.0009.0067.0115-.0164.0115-.0279 0-.0038-.0038-.0135-.0009-.0212.0057-.0124.0097-.0134.0087-.0066-.0029.0066-.0124.0057-.0124-.0067-.0019-.0116.0087-.0174.0097-.0221.0019-.0039-.0057-.0117-.0066-.0174-.0019a.0497.0497 0 0 1-.0259.0068.0893.0893 0 0 0-.0356.0067c-.0135.0039-.0241.0028-.0279-.0038-.0038-.0058-.0028-.0078.0038-.0038.0058.0028.0126.0018.0155-.002.0028-.0048-.0067-.0077-.0212-.0057-.0144.0009-.0259.0037-.0259.0037s-.0115.0029-.0259.004c-.0145.0018-.0241-.0011-.0212-.0059.0029-.0038-.002-.0076-.0106-.0076s-.0135.0038-.0106.0076c.002.0039-.0105.0077-.0279.0077-.0172 0-.0297-.0038-.0278-.0077.0057-.0086-.0567-.0038-.073.0068-.0086.0057-.0106.0038-.0048-.0049.0057-.0095.0028-.0115-.0125-.0077-.0231.0068-.0375-.0066-.0202-.0172.0077-.0049.0086-.0029.0039.0057-.0049.0087-.0039.0106.0038.0058.0057-.0038.0086-.0115.0057-.0164-.0077-.0115-.0106-.0115-.0288.0077-.0172.0173-.072.025-.072.0106 0-.0048.0057-.0057.0124-.0019.0058.0039.0086.0039.0048-.0009-.0038-.0038-.0038-.0126.002-.0183.0058-.0076.0009-.0116-.0174-.0125-.023-.0009-.023-.001-.0067.0067.0164.0068.0164.0086.0029.0086-.0106.0011-.0144.0058-.0115.0145.0067.0173-.0519.0144-.0634-.0028-.0049-.0097-.0077-.0088-.0115.0009-.0068.0163-.0548.0153-.0644-.0009-.0068-.0097-.0088-.0097-.0126.0009-.0057.0134-.1191.0172-.1403.0048-.0058-.0039-.0124-.0029-.0162.0019-.0029.0067-.0145.0067-.0289.001-.0125-.0048-.025-.0058-.0279-.002-.0019.0038-.0403.0067-.0845.0058a29.2087 29.2087 0 0 0-.2931-.0038c-.1183-.001-.2144-.0048-.2144-.0097 0-.0048-.0134-.0038-.0288.002-.0212.0067-.0327.0067-.0422-.0009-.0068-.0059-.0144-.0088-.0164-.0068-.0019.0019-.0163.0057-.0307.0096-.0212.0048-.026.0038-.0203-.0057.0059-.0106.0048-.0106-.0076 0-.0086.0067-.0174.0086-.0202.0047-.0058-.0086-.1239-.0086-.1384 0a.0142.0142 0 0 1-.0163 0c-.0039-.0038-.1412-.0077-.3066-.0077-.271-.0019-.9917-.0124-1.2464-.0191-.1008-.003-.9937-.0106-2.1141-.0193-.3306-.0028-.8342-.0067-1.1196-.0096a443.1515 443.1515 0 0 0-1.355-.0106c-.4593-.0029-.838-.0086-.8409-.0124-.0067-.0087-.048-.0087-.0422.0009.0028.0039-.002.0077-.0097.0077-.0076 0-.0162-.0038-.0192-.0077-.0019-.0038-.0461-.0067-.0961-.0067-.0519.0009-.0922-.0029-.0922-.0077 0-.0058-.0048-.0058-.0116 0-.0192.0134-.2921.0077-.2883-.0067.001-.0059-.0018-.0087-.0076-.0048-.0059.0028-.0077.0086-.0059.0124.002.0039-.0422.0058-.0979.0058-.0567-.001-.1125.0019-.124.0068-.0116.0038-.0231.0048-.0259.0009-.0058-.0096-.073-.0029-.073.0068 0 .0144-.0289.0066-.0299-.0077 0-.0126-.0019-.0126-.0057-.002-.0029.0077-.0279.049-.0557.0913a7.6225 7.6225 0 0 0-.1154.1932 14.4454 14.4454 0 0 1-.3287.5516 9.751 9.751 0 0 0-.2258.3796 27.7513 27.7513 0 0 1-.2095.3613 18.9688 18.9688 0 0 0-.149.2595 14.4135 14.4135 0 0 1-.2912.5045c-.0451.074-.1105.1816-.146.2402-.0355.0577-.0913.149-.1249.2019a18.527 18.527 0 0 0-.2307.394 26.2074 26.2074 0 0 1-.3094.5237c-.0769.124-.1826.2969-.2354.3844a25.905 25.905 0 0 1-.1452.2373 13.8207 13.8207 0 0 0-.1652.2836c-.0654.1123-.125.2151-.1346.2286a2.6786 2.6786 0 0 0-.0624.1105 4.8049 4.8049 0 0 1-.1106.1923c-.0653.1075-.0788.1316-.2959.5237-.0683.1239-.15.2623-.1797.3065a1.9008 1.9008 0 0 0-.0933.1586 3.352 3.352 0 0 1-.1076.1922c-.1441.2422-.2354.3978-.2797.4815-.072.1325-.2527.4977-.2854.5746-.1595.3805-.2152.5382-.244.6891-.003.0135-.0135.0566-.0231.096-.0452.1788-.0586.2451-.0817.3787-.0135.0789-.024.1605-.024.1806 0 .0212-.0039.0453-.0087.0539-.0048.0086-.0134.0721-.0202.1413-.0057.0681-.0153.1422-.0201.1634-.0154.0681-.0212.1863-.0221.4276 0 .2392.0125.4026.0519.6822.0096.0712.0201.1538.024.1826.0106.0913.0903.4411.1307.5766.0634.2086.1845.5498.2537.715.0903.2115.2643.5506.3306.6439a3.249 3.249 0 0 1 .0807.1211c.0134.024.049.0644.0788.0903.1336.1153.4603.5323.5391.69.1057.2066.8505.8101 1.306 1.058.4584.248.8591.4161 1.2252.5122.1547.0414.3316.0779.543.1134.1297.0222.1662.0279.1826.0299a.3265.3265 0 0 1 .024.0047.0272.0272 0 0 0 .0126.001c.0038-.001.0162.0038.0278.0096.0144.0077.0173.0077.0134 0-.0038-.0058 0-.0106.0087-.0106.0096 0 .0134.0048.0087.0116-.0058.0096-.0039.0096.0066 0 .0144-.0125.0414-.0163.0337-.0039-.0029.0048.001.0086.0086.0086.0077 0 .0116-.0038.0087-.0086-.0029-.0038.0019-.0077.0096-.0077a.0265.0265 0 0 1 .0212.0116c.0047.0067.0029.0076-.0058.0029-.0087-.0048-.0106-.0039-.0058.0038.0048.0077.0116.0086.0192.002.0183-.0155.0548-.0087.049.0086-.0038.0106-.0009.0095.0087-.0029.0125-.0163.0538-.0221.0672-.0097a.025.025 0 0 0 .0164.0087c.0048.001.0096.0019.0116.0039.0086.0077.0365.0057.0422-.002.0029-.0057.001-.0077-.0048-.0038-.0058.0029-.0124.0019-.0153-.0028-.0068-.0106.0124-.0087.0316.0028.0096.0058.0116.0048.0067-.0028-.0057-.0078.0029-.0106.0279-.0087.0202.0009.0384.0076.0413.0153.0039.0106.0058.0106.0135 0 .0068-.0095.0106-.0095.0144-.0009.0019.0067.0087.0124.0134.0124.0058 0 .0068-.0047.004-.0095-.0068-.0115-.5056-.0106 10.2152-.0106 4.435 0 8.1339.0029 8.2213.0058.0875.0037.1633.0057.1682.0057.0807 0 .32-.0115.4277-.0201.1037-.0087.1393-.0087.1422 0 .0028.0077.0077.0066.0153-.0029.0057-.0068.0558-.023.1115-.0347.4497-.0979 1.2109-.4919 1.7057-.8841.3652-.2892.7708-.738 1.0783-1.1925.1634-.2432.3796-.5929.5314-.8602.051-.0902.1268-.2219.1682-.293.0413-.0711.1057-.1816.1422-.2451.1797-.3104.5487-.9321.7591-1.2781.1731-.2864.3768-.6362.4921-.8457a15.307 15.307 0 0 1 .1538-.2691 35.88 35.88 0 0 0 .2787-.4804c.0143-.0259.0759-.1384.1364-.2499.0616-.1105.1374-.2431.1691-.2931.0731-.1163.1759-.2892.3672-.6198.0519-.0903.1316-.2258.1777-.3027a8.6192 8.6192 0 0 0 .1154-.197 15.017 15.017 0 0 1 .3055-.5142c.1221-.1931.2903-.4738.3979-.663.0529-.0923.1192-.2047.1471-.2499.0739-.1211.2162-.3594.3151-.5285.0471-.0818.1452-.2461.2163-.3652.392-.6507.4285-.7102.5545-.9034a5.1418 5.1418 0 0 0 .1152-.1874c.1289-.22.2153-.3642.3076-.5092.1326-.2086.2278-.3663.3651-.6055.1452-.2509.297-.5112.3912-.6679a19.391 19.391 0 0 0 .1182-.2018c.0259-.0451.0778-.1336.1154-.197.0383-.0634.0854-.1451.1066-.1806a5.8697 5.8697 0 0 1 .0614-.1077c.0135-.023.0279-.0462.0327-.05.0049-.0048.0058-.0019.001.0058-.0048.0096-.0038.0115.0039.0067.0057-.0038.0086-.0115.0057-.0163-.0038-.0048.0153-.0442.0414-.0884.0259-.0433.0652-.1125.0884-.1529.023-.0412.046-.071.0509-.0681.0057.0028.0068.0009.0029-.0049-.0038-.0066.0201-.0576.0548-.1153a8.9757 8.9757 0 0 0 .0816-.1365c.0097-.0182.0481-.0835.0837-.1441.0365-.0606.073-.1258.0836-.1442.0095-.0181.023-.0384.0298-.0431.0057-.0059.0124-.0145.0133-.0203.002-.0095.0809-.147.1289-.2248.0048-.0078.0172-.0299.0278-.0481.0106-.0183.0308-.051.0433-.072a.9406.9406 0 0 0 .0394-.0692.1678.1678 0 0 1 .0288-.0424c.0077-.0057.0135-.0153.0135-.0201 0-.0058.0134-.0288.0287-.0529.0164-.023.0289-.0442.0289-.0471 0-.0028.0144-.0345.0317-.0692.05-.099.0721-.1748.0519-.1748-.0067 0-.025.0077-.0422.0172Zm-20.1645.8726c0 .0077-.0182.0126-.0231.0058-.0028-.0048.001-.0087.0087-.0087a.0407.0407 0 0 1 .0144.0029Zm.1538 0c0 .0077-.0183.0126-.0232.0058-.0028-.0048.0011-.0087.0088-.0087a.0414.0414 0 0 1 .0144.0029Zm.0769.0058c0 .0039-.0039.0077-.0088.0077a.0192.0192 0 0 1-.0143-.0077c-.0029-.0048.001-.0087.0086-.0087.0077 0 .0145.0039.0145.0087Zm.1431.001c.0077.0096.0068.0135-.0038.0135-.0077 0-.0144-.0059-.0144-.0135 0-.0068.0038-.0126.0038-.0126s.0086.0058.0144.0126Zm.0769.0009c.0106.0135.0058.0144-.0259.0067-.0039-.0009.0076-.0202.0115-.0202 0 0 .0087.0058.0144.0135Zm.0692.0087c-.0125.0125-.025.0028-.0154-.0116.0029-.0057.0106-.0077.0163-.0048.0058.0039.0058.0097-.0009.0164ZM60.3058 27.6316l-5.4342-7.1382v7.1382h-3.9375V11.4671h3.9375v7.0921l5.3881-7.0921h4.6283l-6.2631 7.921 6.4934 8.2435h-4.8125ZM70.927 11.4671v16.1645h-3.9375V11.4671h3.9375Zm17.3141 16.1645h-3.9375l-6.5855-9.9704v9.9704h-3.9375V11.4671h3.9375l6.5855 10.0164V11.4671h3.9375v16.1645Zm10.4988.1611c-1.5197 0-2.9166-.3531-4.1908-1.0592-1.2587-.7061-2.2642-1.6886-3.0164-2.9473-.7368-1.2742-1.1053-2.7018-1.1053-4.2829 0-1.5811.3685-3.0012 1.1053-4.2599.7522-1.2587 1.7577-2.2413 3.0164-2.9474 1.2742-.7061 2.6711-1.0592 4.1908-1.0592 1.5201 0 2.9091.3531 4.1681 1.0592 1.274.7061 2.272 1.6887 2.993 2.9474.737 1.2587 1.105 2.6788 1.105 4.2599 0 1.5811-.368 3.0087-1.105 4.2829-.737 1.2587-1.735 2.2412-2.993 2.9473-1.259.7061-2.648 1.0592-4.1681 1.0592Zm0-3.5921c1.2891 0 2.3181-.4297 3.0851-1.2894.783-.8597 1.175-1.9956 1.175-3.4079 0-1.4277-.392-2.5637-1.175-3.4079-.767-.8597-1.796-1.2895-3.0851-1.2895-1.3047 0-2.3486.4222-3.1315 1.2664-.7676.8443-1.1514 1.988-1.1514 3.431 0 1.4276.3838 2.5712 1.1514 3.4309.7829.8443 1.8268 1.2664 3.1315 1.2664Zm25.1231-4.8585c.936.1995 1.688.6677 2.257 1.4046.567.7215.852 1.5505.852 2.4868 0 1.3509-.477 2.4255-1.428 3.2237-.937.7829-2.25 1.1744-3.938 1.1744h-7.529V11.4671h7.276c1.642 0 2.925.3761 3.846 1.1283.936.7521 1.404 1.773 1.404 3.0625 0 .9518-.253 1.7423-.76 2.3717-.491.6294-1.151 1.0669-1.98 1.3125Zm-5.849-1.3355h2.579c.645 0 1.135-.1382 1.474-.4145.352-.2916.53-.7138.53-1.2665 0-.5526-.178-.9748-.53-1.2664-.339-.2916-.829-.4375-1.474-.4375h-2.579v3.3849Zm2.902 6.4473c.659 0 1.166-.1458 1.519-.4375.369-.307.553-.7445.553-1.3125 0-.5679-.192-1.0131-.576-1.3355-.368-.3224-.883-.4836-1.542-.4836h-2.856v3.5691h2.902Zm12.276.1382h5.158v3.0395h-9.095V11.4671h3.937v13.125Zm14.682 3.2006c-1.52 0-2.918-.3531-4.191-1.0592-1.26-.7061-2.265-1.6886-3.017-2.9473-.736-1.2742-1.105-2.7018-1.105-4.2829 0-1.5811.369-3.0012 1.105-4.2599.752-1.2587 1.757-2.2413 3.017-2.9474 1.273-.7061 2.671-1.0592 4.191-1.0592 1.519 0 2.908.3531 4.167 1.0592 1.274.7061 2.272 1.6887 2.994 2.9474.737 1.2587 1.105 2.6788 1.105 4.2599 0 1.5811-.368 3.0087-1.105 4.2829-.737 1.2587-1.735 2.2412-2.994 2.9473-1.259.7061-2.648 1.0592-4.167 1.0592Zm0-3.5921c1.289 0 2.317-.4297 3.085-1.2894.783-.8597 1.175-1.9956 1.175-3.4079 0-1.4277-.392-2.5637-1.175-3.4079-.768-.8597-1.796-1.2895-3.085-1.2895-1.306 0-2.349.4222-3.132 1.2664-.768.8443-1.151 1.988-1.151 3.431 0 1.4276.383 2.5712 1.151 3.4309.783.8443 1.826 1.2664 3.132 1.2664Zm21.186-7.6217c-.291-.5373-.714-.9441-1.266-1.2204-.537-.2916-1.175-.4375-1.911-.4375-1.274 0-2.295.4222-3.063 1.2665-.767.8289-1.151 1.9419-1.151 3.3388 0 1.489.399 2.6557 1.197 3.5.814.8289 1.927 1.2434 3.339 1.2434.967 0 1.781-.2456 2.441-.7368.676-.4913 1.167-1.1974 1.473-2.1184h-4.996v-2.9014h8.566v3.6612c-.292.9824-.79 1.8959-1.497 2.7402-.691.8442-1.573 1.5274-2.648 2.0493-1.074.5219-2.287.7829-3.638.7829-1.596 0-3.024-.3454-4.283-1.0362-1.244-.7061-2.218-1.6809-2.925-2.9243-.69-1.2435-1.036-2.6634-1.036-4.2599 0-1.5965.346-3.0165 1.036-4.2599.707-1.2587 1.681-2.2335 2.925-2.9243 1.243-.7061 2.664-1.0592 4.26-1.0592 1.934 0 3.562.4682 4.881 1.4046 1.336.9363 2.219 2.2335 2.648 3.8914h-4.352Z"/></g><defs><clipPath id="a"><path fill="#fff" d="M0 0h175v41.4474H0z"/></clipPath></defs></svg>