<svg xmlns="http://www.w3.org/2000/svg" width="224" height="148" fill="none"><rect width="224" height="148" fill="#0F172A" rx="3"/><path fill="#6B7280" fill-rule="evenodd" d="M122.87 66.1598c2.024 0 3.665-1.7183 3.665-3.838 0-2.1196-1.641-3.8379-3.665-3.8379s-3.665 1.7183-3.665 3.8379c0 2.1197 1.641 3.838 3.665 3.838Zm-10.144 23.2405H90.5708c-.7773 0-1.2574-.8479-.8576-1.5144l15.1158-25.1987c.382-.6375 1.299-.6543 1.697-.0269 1.958 3.0804 6.883 10.8414 11.073 17.5364l4.544-7.6204c.368-.6165 1.231-.6367 1.641-.0384l10.462 15.2793c.459.67.013 1.5873-.777 1.5953l-10.152.1037-10.591-.1159Z" clip-rule="evenodd"/></svg>