<svg xmlns="http://www.w3.org/2000/svg" width="224" height="148" fill="none"><rect width="224" height="148" fill="#0F172A" rx="3"/><path fill="#6B7280" fill-rule="evenodd" d="M122.87 66.16c2.024 0 3.665-1.718 3.665-3.838s-1.641-3.838-3.665-3.838-3.665 1.718-3.665 3.838 1.641 3.838 3.665 3.838ZM112.726 89.4H90.571a1 1 0 0 1-.858-1.514l15.116-25.199a.996.996 0 0 1 1.697-.027 3287.37 3287.37 0 0 1 11.073 17.537l4.544-7.62a.967.967 0 0 1 1.641-.04l10.462 15.28c.459.67.013 1.588-.777 1.596l-10.152.103-10.591-.116Z" clip-rule="evenodd"/></svg>