<svg xmlns="http://www.w3.org/2000/svg" width="24" height="24" fill="none"><path stroke="#0e9f6e" stroke-linecap="round" stroke-linejoin="round" d="M9.75 3h3.1289c.3977 0 .7791.158 1.0603.4392l6.6216 6.6216A1.5 1.5 0 0 1 21 11.1211V20.25a2.2504 2.2504 0 0 1-2.25 2.25H9a2.2502 2.2502 0 0 1-2.25-2.25v-6"/><path stroke="#0e9f6e" stroke-linecap="round" stroke-linejoin="round" d="M13.5 3.375V9a1.5001 1.5001 0 0 0 1.5 1.5h5.625"/><path stroke="#0e9f6e" stroke-linecap="round" stroke-miterlimit="10" d="M7.5 3.75v7.125A1.1104 1.1104 0 0 1 6.375 12c-.5625 0-1.125-.4266-1.125-1.125v-6.75c0-1.434.7767-2.625 2.25-2.625s2.25 1.1625 2.25 2.596v6.5038c0 2.0157-1.304 3.6502-3.375 3.6502C4.304 14.25 3 12.6159 3 10.5998V6.75"/></svg>