<svg width="129" height="177" viewBox="0 0 129 177" fill="none" xmlns="http://www.w3.org/2000/svg">
<mask id="mask0_302_5" style="mask-type:luminance" maskUnits="userSpaceOnUse" x="0" y="0" width="129" height="177">
<path d="M111.668 40.0821C111.495 39.0304 110.915 38.0894 110.052 37.4641C109.189 36.8388 108.114 36.5798 107.061 36.7435C106.233 36.8534 105.468 37.242 104.89 37.8453L84.0579 58.6444L67.7658 27.5291C67.5228 27.0619 67.19 26.6472 66.7866 26.3087C66.3831 25.9702 65.9169 25.7146 65.4146 25.5564C64.9123 25.3983 64.3837 25.3408 63.8591 25.3871C63.3345 25.4334 62.8242 25.5827 62.3573 25.8265C61.6499 26.2343 61.0625 26.8217 60.6547 27.5291L51.7741 44.5557L29.3725 2.75709C29.1213 2.29806 28.7819 1.89317 28.3737 1.56568C27.9656 1.23819 27.4968 0.994544 26.9943 0.848742C26.4917 0.702941 25.9653 0.657854 25.4453 0.71607C24.9253 0.774285 24.4219 0.934658 23.964 1.18798C23.4205 1.47811 22.9492 1.88683 22.5852 2.38384C22.2211 2.88086 21.9735 3.45343 21.8607 4.05913L0.160156 142.676L58.084 175.327C59.8697 176.306 61.8733 176.819 63.9098 176.819C65.9462 176.819 67.9498 176.306 69.7355 175.327L128.16 142.809L111.668 40.0821Z" fill="white"/>
</mask>
<g mask="url(#mask0_302_5)">
<path d="M0.160156 142.676L21.8607 4.05896C22.0252 3.03431 22.5873 2.11593 23.4249 1.50332C24.2626 0.890709 25.3081 0.633363 26.3344 0.787185C26.9406 0.898359 27.515 1.14138 28.0169 1.49907C28.5188 1.85675 28.936 2.32036 29.2389 2.85709L51.6406 44.6891L60.5211 27.6625C60.7642 27.1953 61.0969 26.7806 61.5003 26.4421C61.9038 26.1036 62.37 25.848 62.8723 25.6898C63.3747 25.5317 63.9033 25.4741 64.4279 25.5205C64.9524 25.5668 65.4628 25.7161 65.9296 25.9599C66.6371 26.3677 67.2244 26.955 67.6323 27.6625L128.06 142.676H0.160156Z" fill="#FFA000"/>
<path opacity="0.12" d="M74.1764 1.72179L-31.856 -7.32568V184.708L0.160737 142.675L74.1764 1.72179Z" fill="url(#paint0_linear_302_5)"/>
<path d="M75.0772 88.6901L51.7074 44.5879L0.160156 142.674L75.0772 88.6901Z" fill="#F57C00"/>
<path opacity="0.2" d="M-31.856 -7.32568H160.177V184.708H-31.856V-7.32568Z" fill="url(#paint1_linear_302_5)"/>
<path d="M128.194 142.676L111.501 39.9822C111.328 38.9306 110.748 37.9896 109.885 37.3643C109.022 36.7389 107.947 36.4799 106.894 36.6437C106.068 36.7611 105.305 37.1485 104.724 37.7454L0.160156 142.676L58.084 175.327C59.8697 176.306 61.8733 176.819 63.9098 176.819C65.9462 176.819 67.9498 176.306 69.7355 175.327L128.194 142.676Z" fill="#FFCA28"/>
<path d="M111.668 40.0821C111.495 39.0304 110.915 38.0894 110.052 37.4641C109.189 36.8388 108.114 36.5798 107.061 36.7435C106.233 36.8534 105.468 37.242 104.89 37.8453L84.0579 58.6444L67.7658 27.5291C67.5228 27.0619 67.19 26.6472 66.7866 26.3087C66.3831 25.9702 65.9169 25.7146 65.4146 25.5564C64.9123 25.3983 64.3837 25.3408 63.8591 25.3871C63.3345 25.4334 62.8242 25.5827 62.3573 25.8265C61.6499 26.2343 61.0625 26.8217 60.6547 27.5291L51.7741 44.5557L29.3725 2.75709C29.1213 2.29806 28.7819 1.89317 28.3737 1.56568C27.9656 1.23819 27.4968 0.994544 26.9943 0.848742C26.4917 0.702941 25.9653 0.657854 25.4453 0.71607C24.9253 0.774285 24.4219 0.934658 23.964 1.18798C23.4205 1.47811 22.9492 1.88683 22.5852 2.38384C22.2211 2.88086 21.9735 3.45343 21.8607 4.05913L0.160156 142.676L0.761095 142.976L84.2248 59.5124L105.057 38.7133C105.425 38.3316 105.866 38.028 106.353 37.8206C106.841 37.6132 107.365 37.5063 107.895 37.5063C108.425 37.5063 108.949 37.6132 109.437 37.8206C109.925 38.028 110.365 38.3316 110.733 38.7133C111.35 39.2939 111.74 40.0748 111.835 40.9167L128.26 142.609H128.461L111.668 40.0821ZM0.360469 142.475L21.8607 5.06069C21.9301 4.54544 22.1015 4.04921 22.3651 3.60109C22.6287 3.15297 22.9791 2.76197 23.3958 2.45103C23.8124 2.14009 24.287 1.91545 24.7916 1.79029C25.2962 1.66513 25.8207 1.64196 26.3344 1.72214C26.943 1.82657 27.5202 2.06692 28.0231 2.42529C28.526 2.78367 28.9416 3.25084 29.2389 3.79204L51.6406 45.6241L60.5211 28.5975C60.7608 28.1271 61.0917 27.7092 61.4947 27.3682C61.8977 27.0272 62.3646 26.7699 62.8681 26.6114C63.3717 26.4528 63.9017 26.3963 64.4274 26.4449C64.953 26.4936 65.4637 26.6465 65.9296 26.8948C66.6371 27.3027 67.2244 27.89 67.6323 28.5975L83.6239 59.0117L0.360469 142.475Z" fill="white" fill-opacity="0.2"/>
<path opacity="0.2" d="M69.7365 174.192C67.9466 175.177 65.9369 175.693 63.894 175.693C61.8511 175.693 59.8413 175.177 58.0515 174.192L0.26123 141.942V142.843L58.0849 175.327C59.8706 176.306 61.8742 176.819 63.9107 176.819C65.9471 176.819 67.9507 176.306 69.7365 175.327L128.161 142.81V141.908L69.7365 174.192Z" fill="#A52714"/>
<path d="M111.668 40.0821C111.495 39.0304 110.915 38.0894 110.052 37.4641C109.189 36.8388 108.114 36.5798 107.061 36.7435C106.233 36.8534 105.468 37.242 104.89 37.8453L84.0579 58.6444L67.7658 27.5291C67.5228 27.0619 67.19 26.6472 66.7866 26.3087C66.3831 25.9702 65.9169 25.7146 65.4146 25.5564C64.9123 25.3983 64.3837 25.3408 63.8591 25.3871C63.3345 25.4334 62.8242 25.5827 62.3573 25.8265C61.6499 26.2343 61.0625 26.8217 60.6547 27.5291L51.7741 44.5557L29.3725 2.75709C29.1213 2.29806 28.7819 1.89317 28.3737 1.56568C27.9656 1.23819 27.4968 0.994544 26.9943 0.848742C26.4917 0.702941 25.9653 0.657854 25.4453 0.71607C24.9253 0.774285 24.4219 0.934658 23.964 1.18798C23.4205 1.47811 22.9492 1.88683 22.5852 2.38384C22.2211 2.88086 21.9735 3.45343 21.8607 4.05913L0.160156 142.676L58.084 175.327C59.8697 176.306 61.8733 176.819 63.9098 176.819C65.9462 176.819 67.9498 176.306 69.7355 175.327L128.16 142.809L111.668 40.0821Z" fill="url(#paint2_linear_302_5)"/>
</g>
<defs>
<linearGradient id="paint0_linear_302_5" x1="25.0997" y1="95.2346" x2="17.1206" y2="91.0614" gradientUnits="userSpaceOnUse">
<stop stop-color="#A52714"/>
<stop offset="0.4" stop-color="#A52714" stop-opacity="0.5"/>
<stop offset="0.8" stop-color="#A52714" stop-opacity="0"/>
</linearGradient>
<linearGradient id="paint1_linear_302_5" x1="59.0861" y1="83.583" x2="55.5139" y2="80.0108" gradientUnits="userSpaceOnUse">
<stop stop-color="#A52714" stop-opacity="0.8"/>
<stop offset="0.5" stop-color="#A52714" stop-opacity="0.21"/>
<stop offset="1" stop-color="#A52714" stop-opacity="0"/>
</linearGradient>
<linearGradient id="paint2_linear_302_5" x1="-3.25117" y1="31.6552" x2="130.369" y2="165.364" gradientUnits="userSpaceOnUse">
<stop stop-color="white" stop-opacity="0.1"/>
<stop offset="1" stop-color="white" stop-opacity="0"/>
</linearGradient>
</defs>
</svg>
