<svg width="32" height="44" fill="none" xmlns="http://www.w3.org/2000/svg"><g clip-path="url(#a)"><mask id="b" style="mask-type:luminance" maskUnits="userSpaceOnUse" x="0" y="0" width="32" height="44"><path d="M27.7 9.943a1.002 1.002 0 0 0-1.142-.828.912.912 0 0 0-.539.273l-5.167 5.16-4.042-7.72a.994.994 0 0 0-1.342-.422 1.15 1.15 0 0 0-.422.423l-2.203 4.224L7.286.683A.986.986 0 0 0 5.944.296a1.018 1.018 0 0 0-.521.712L.04 35.392l14.368 8.1a3.007 3.007 0 0 0 2.89 0l14.493-8.066-4.09-25.483Z" fill="#fff"/></mask><g mask="url(#b)"><path d="M.04 35.392 5.423 1.007a.977.977 0 0 1 1.11-.812 1.043 1.043 0 0 1 .72.513l5.557 10.378 2.203-4.224a.995.995 0 0 1 1.341-.422c.176.1.321.247.422.422l14.99 28.53H.04Z" fill="#FFA000"/><path opacity=".12" d="M18.4.427-7.902-1.817v47.636L.04 35.392 18.4.427Z" fill="url(#c)"/><path d="m18.624 22-5.798-10.94L.04 35.392l18.584-13.391Z" fill="#F57C00"/><path opacity=".2" d="M-7.902-1.817h47.636v47.636H-7.902V-1.817Z" fill="url(#d)"/><path d="M31.8 35.392 27.659 9.918a1.003 1.003 0 0 0-1.143-.828.935.935 0 0 0-.538.273L.04 35.393l14.368 8.099a3.005 3.005 0 0 0 2.89 0l14.502-8.1Z" fill="#FFCA28"/><path d="M27.7 9.943a1.002 1.002 0 0 0-1.142-.828.912.912 0 0 0-.539.273l-5.167 5.16-4.042-7.72a.994.994 0 0 0-1.342-.422 1.15 1.15 0 0 0-.422.423l-2.203 4.224L7.286.683A.986.986 0 0 0 5.944.296a1.018 1.018 0 0 0-.521.712L.04 35.392l.148.075 20.705-20.704 5.167-5.16a.98.98 0 0 1 1.408 0c.153.144.25.338.274.547l4.074 25.226h.05L27.7 9.943ZM.09 35.343 5.422 1.255A.97.97 0 0 1 6.95.602c.125.089.228.204.302.339l5.557 10.377 2.203-4.224a.986.986 0 0 1 1.341-.422c.176.1.321.247.422.422l3.968 7.545L.089 35.343Z" fill="#fff" fill-opacity=".2"/><path opacity=".2" d="M17.299 43.21a3.006 3.006 0 0 1-2.899 0l-14.335-8v.224l14.344 8.058a3.006 3.006 0 0 0 2.89 0l14.493-8.066v-.224l-14.493 8.009Z" fill="#A52714"/><path d="M27.7 9.943a1.002 1.002 0 0 0-1.142-.828.912.912 0 0 0-.539.273l-5.167 5.16-4.042-7.72a.994.994 0 0 0-1.342-.422 1.15 1.15 0 0 0-.422.423l-2.203 4.224L7.286.683A.986.986 0 0 0 5.944.296a1.018 1.018 0 0 0-.521.712L.04 35.392l14.368 8.1a3.007 3.007 0 0 0 2.89 0l14.493-8.066-4.09-25.483Z" fill="url(#e)"/></g></g><defs><linearGradient id="c" x1="6.226" y1="23.624" x2="4.247" y2="22.589" gradientUnits="userSpaceOnUse"><stop stop-color="#A52714"/><stop offset=".4" stop-color="#A52714" stop-opacity=".5"/><stop offset=".8" stop-color="#A52714" stop-opacity="0"/></linearGradient><linearGradient id="d" x1="14.657" y1="20.734" x2="13.771" y2="19.848" gradientUnits="userSpaceOnUse"><stop stop-color="#A52714" stop-opacity=".8"/><stop offset=".5" stop-color="#A52714" stop-opacity=".21"/><stop offset="1" stop-color="#A52714" stop-opacity="0"/></linearGradient><linearGradient id="e" x1="-.807" y1="7.852" x2="32.34" y2="41.02" gradientUnits="userSpaceOnUse"><stop stop-color="#fff" stop-opacity=".1"/><stop offset="1" stop-color="#fff" stop-opacity="0"/></linearGradient><clipPath id="a"><path fill="#fff" d="M0 0h32v43.907H0z"/></clipPath></defs></svg>