<svg width="32" height="29" fill="none" xmlns="http://www.w3.org/2000/svg"><g clip-path="url(#a)" fill="#fff"><path d="M9.765.053a1.001 1.001 0 0 1-.084.007 2.495 2.495 0 0 0-.257.025l-.133.014c-.04.004-.117.017-.17.03A1.36 1.36 0 0 1 9 .154c-.013.001-.026.004-.029.008-.003.004-.005.004-.005 0 0-.005-.006-.008-.012-.006-.006 0-.01.005-.01.008.001.004-.01.011-.024.014a.526.526 0 0 1-.146.032c.003.004-.021.015-.06.026-.154.043-.457.16-.544.209a.973.973 0 0 1-.173.087c0 .01-.074.055-.085.051a.916.916 0 0 1-.185.118c.002.002-.01.014-.025.024-.064.041-.254.19-.332.258a4.377 4.377 0 0 0-.419.43 9.793 9.793 0 0 0-.595.882l-.17.265c-.064.095-.14.214-.172.263l-.079.127-.048.08c-.086.147-.174.293-.263.438-.079.127-.228.38-.26.44-.102.185-.207.368-.316.548-.101.162-.144.23-.199.327l-.157.27-.148.254c-.02.035-.057.1-.08.144-.03.055-.062.11-.096.164a9.326 9.326 0 0 0-.177.293c-.144.235-.215.359-.422.735l-.175.307a21.987 21.987 0 0 0-.275.482c-.03.051-.06.102-.088.154l-.115.2-.093.157-.237.403a23.273 23.273 0 0 0-.257.444l-.12.207-.07.12a5.88 5.88 0 0 0-.108.197l-.106.2c-.085.151-.172.302-.261.45a34.119 34.119 0 0 0-.233.407 7.49 7.49 0 0 1-.79 1.345 4.3 4.3 0 0 0-.134.236c-.048.09-.112.204-.162.287-.083.14-.27.535-.323.687-.093.26-.166.587-.208.939-.014.112-.02.505-.01.647.012.173.038.36.068.49.075.324.134.506.234.73.07.15.287.58.338.665.07.115.103.173.148.259a13.652 13.652 0 0 0 .252.45l.12.21c.041.07.095.168.122.216.026.049.084.15.13.227.137.23.202.345.298.52a23.93 23.93 0 0 0 .257.457c.025.046.071.13.104.187l.09.163c.017.033.055.1.083.147.091.155.158.272.21.368.053.1.08.148.16.293.2.36.226.405.325.565.054.087.076.125.185.327.036.068.08.144.095.17.047.076.2.346.256.45.077.142.115.21.165.291.05.082.118.204.22.394l.099.184.118.21c.047.084.134.233.193.33.058.098.128.216.154.265a39.527 39.527 0 0 0 .328.574c.054.087.116.196.143.25.021.042.076.138.177.314.061.105.082.144.132.24.022.043.062.115.088.16.048.082.107.19.157.285.014.025.045.078.07.118.024.04.044.073.044.075 0 .006.099.178.153.266.015.025.026.048.024.051-.004.006.006.01.012.006.012.004.023.01.033.016.036.021.044.016.032-.018-.004-.01-.006-.02-.004-.024a.365.365 0 0 0-.009-.078c-.029-.154-.03-.189-.022-.48.004-.15.01-.291.015-.313l.014-.087.026-.143c.068-.342.093-.43.202-.705.083-.21.198-.46.266-.58.058-.102.142-.244.189-.321.025-.041.066-.113.092-.16.083-.153.247-.433.466-.799.134-.223.167-.28.302-.514.035-.06.106-.18.159-.267l.131-.217.074-.121a45.93 45.93 0 0 0 .269-.45l.087-.147.085-.147c.051-.092.096-.167.228-.388.049-.082.133-.227.187-.323.054-.095.125-.219.159-.274.033-.055.094-.16.135-.233.047-.082.094-.163.143-.244l.271-.454a24.831 24.831 0 0 1 .247-.414 107.108 107.108 0 0 0 .317-.544c.075-.124.206-.346.314-.531.038-.064.09-.154.114-.2a14.082 14.082 0 0 1 .264-.458c.053-.09.075-.13.148-.26a14.218 14.218 0 0 1 .344-.581l.172-.287a23.73 23.73 0 0 0 .27-.46 67.8 67.8 0 0 0 .744-1.27l.102-.173c.075-.13.218-.368.23-.385.012-.016.04-.064.116-.196l.08-.137.074-.127c.015-.028.049-.084.073-.124.026-.04.065-.105.087-.143.023-.039.08-.134.128-.21.125-.202.123-.198.187-.304l.105-.174c.025-.042.06-.1.074-.127.071-.125.18-.313.24-.414l.088-.147c.051-.09.149-.252.266-.447a45.695 45.695 0 0 0 .458-.771l.095-.16.272-.468.122-.21c.032-.057.115-.195.181-.307.068-.112.145-.242.171-.288l.138-.23c.083-.14.121-.207.239-.418a26.666 26.666 0 0 1 .462-.79c.025-.042.074-.125.108-.187.1-.18.185-.325.36-.616a30.952 30.952 0 0 0 .402-.694c.087-.157.173-.305.281-.484l.09-.153a16.35 16.35 0 0 0 .266-.457l.135-.234.068-.117c.026-.048.066-.114.2-.338a7.92 7.92 0 0 0 .077-.13c.03-.053.08-.136.11-.183.1-.163.196-.328.29-.494a6.79 6.79 0 0 1 .232-.388 4.082 4.082 0 0 1 .436-.567c0-.004.038-.045.085-.09a.448.448 0 0 1 .072-.067l-.014.016.015-.012c.008-.007.013-.015.011-.018a1.04 1.04 0 0 1 .188-.182.984.984 0 0 0 .067-.052 1.93 1.93 0 0 1 .285-.205 2.45 2.45 0 0 1 .429-.228c.047-.015.19-.08.19-.086a.1.1 0 0 1 .02-.027l.02-.02-.016-.01c-.019-.013-.124-.02-.297-.02l-.15.002c-.014-.004-.181-.006-.712-.009L17.461.13l-.386-.003c-.101 0-.128-.002-.124-.009.003-.006.002-.006-.005 0-.007.007-.012.006-.023-.005-.011-.01-.014-.011-.014-.004 0 .006.002.01.005.007.002-.001.006 0 .009.004.003.004-.002.006-.012.005-.01 0-.016-.004-.013-.008.002-.003 0-.004-.006 0-.017.011-.062.008-.076-.005-.014-.012-.015-.012-.024 0-.008.01-.008.01.002.003.008-.007.012-.007.018 0 .007.01.002.01-.029.01a.116.116 0 0 1-.04-.007c-.003-.002.001-.003.01-.001.012.002.013.001.006-.008-.007-.008-.01-.008-.02.002-.017.014-.104.02-.092.005.004-.005.004-.01 0-.012s-.01 0-.014.006c-.012.013-.02.007-.017-.013 0-.01 0-.016-.003-.013-.002.002-.004.011-.004.02 0 .013-.004.019-.012.02-.009.001-.01 0-.005-.007.005-.006.005-.011.002-.013-.004-.002-.01 0-.015.007-.008.008-.01.008-.018-.01-.005-.01-.007-.012-.005-.006.002.009 0 .012-.01.01-.006-.001-.017.003-.023.008-.008.006-.011.007-.008.002.003-.005 0-.008-.005-.008-.006 0-.011.002-.011.006 0 .003-.005.008-.01.01-.01.003-.01.002-.003-.006.008-.011.006-.012-.018-.01-.012 0-.014-.002-.012-.014.002-.01 0-.013-.004-.01-.004.005-.007.016-.008.025 0 .01-.004.016-.006.015a.007.007 0 0 1-.002-.01c.002-.003 0-.007-.004-.01-.003-.002-.006-.001-.006.002 0 .004-.008.005-.017.003-.01-.001-.017 0-.017.005 0 .002 0 .004-.002.005a.007.007 0 0 1-.005.002c-.004 0-.005-.003-.003-.006s0-.008-.003-.01C16.375.1 16.372.1 16.372.103c0 .004-.006.006-.013.004-.008-.002-.012-.006-.01-.01.002-.002 0-.006-.003-.01-.005-.002-.007.004-.007.015 0 .018 0 .018-.011.005-.007-.008-.01-.01-.007-.002.002.006-.002.01-.01.011-.007 0-.011-.001-.009-.005.003-.004.002-.006-.003-.006-.003 0-.008.003-.01.007-.004.004-.008.003-.013-.005-.008-.01-.009-.01-.013 0-.002.006-.007.011-.011.011-.004 0-.005-.003-.003-.007s.001-.006-.003-.006c-.003 0-.009.003-.01.007-.004.004-.009.003-.014-.005-.009-.012-.01-.012-.014-.001-.002.007-.007.012-.01.012-.004 0-.005-.003-.003-.007s0-.004-.006-.002-.015 0-.02-.004c-.005-.004-.01-.005-.013-.002-.009.008-.033.008-.043 0-.008-.007-.01-.007-.005 0 .005.008.002.009-.01.005-.01-.003-.013-.003-.01.003.005.008-.014.002-.027-.008-.005-.003-.015-.002-.026.002-.012.004-.021.004-.026 0-.003-.003-.014-.004-.026 0-.014.004-.024.004-.03-.002-.006-.005-.01-.004-.019.006-.006.006-.008.008-.005.003.003-.007 0-.007-.01-.005-.007.003-.015.002-.017-.002-.002-.004-.012-.004-.025 0-.015.004-.024.004-.032-.002-.008-.007-.008-.006-.004.002.004.006 0 .004-.01-.004-.008-.007-.013-.01-.011-.006.008.013-.034.016-.046.004-.007-.008-.01-.01-.008-.002.003.014-.034.014-.046 0-.012-.014-.022-.016-.022-.005 0 .003.002.005.006.003.003-.002.008 0 .011.004.004.006 0 .006-.01.004-.007-.002-.016-.001-.018.003-.002.003-.01.001-.018-.006-.008-.007-.011-.009-.01-.004.003.004.003.01-.001.012s-.007-.003-.007-.01c0-.015 0-.015-.01-.003-.006.007-.009.008-.006.003.004-.008.003-.009-.005-.003-.012.01-.03.008-.027-.002.002-.012-.005-.01-.018.004-.006.006-.008.008-.005.003.005-.007.003-.008-.011-.003-.012.005-.019.005-.022 0-.004-.005-.002-.006.004-.002.006.003.007.002.004-.002-.007-.012-.018-.01-.018.002 0 .005-.003.01-.007.01-.003 0-.005-.003-.002-.007.002-.005-.002-.005-.013 0-.011.004-.018.004-.022-.001-.003-.005-.001-.006.005-.002.008.004.008.003 0-.004-.006-.008-.01-.006-.018.006-.008.01-.013.013-.018.008A.043.043 0 0 0 15.447.1a.023.023 0 0 1-.01-.005c-.002-.002 0-.002.005 0 .004.003.01.003.011 0 .005-.008-.018-.008-.024 0-.005.009-.039.01-.043.002-.003-.003 0-.004.005 0 .005.003.007.002.004-.002-.007-.011-.018-.01-.018 0 0 .006-.009.009-.023.009-.013 0-.023-.003-.023-.006s.002-.004.005-.001c.004.002.008 0 .01-.002.002-.003-.002-.006-.01-.006-.006-.001-.012.002-.012.007 0 .012-.04.009-.047-.003-.005-.008-.006-.007-.006.002 0 .006-.004.012-.008.012-.003 0-.005-.004-.002-.01.004-.005.003-.005-.004 0-.008.008-.011.007-.021-.002-.012-.01-.014-.01-.019-.002-.008.012-.02.014-.033.004-.007-.005-.008-.005-.004 0 .002.006.001.01-.002.01-.005 0-.008-.006-.008-.012 0-.01-.001-.01-.006-.002-.006.01-.047.016-.047.006 0-.004.002-.005.006-.002.003.002.008 0 .01-.002.001-.003-.003-.006-.01-.006-.007-.001-.013.003-.013.008 0 .006-.003.01-.007.01-.003 0-.005-.003-.003-.007.003-.005-.001-.005-.012 0-.012.004-.018.004-.022-.001-.003-.005-.002-.006.004-.002.006.003.008.002.004-.002-.006-.012-.018-.01-.018.002 0 .005-.002.01-.007.01-.003 0-.004-.003-.002-.007.002-.005-.002-.005-.013 0-.014.005-.017.004-.017-.003 0-.006-.004-.01-.008-.01s-.006.004-.004.008c.003.007-.004.009-.027.008a.111.111 0 0 1-.033-.006c-.002-.002-.01 0-.02.003-.012.005-.015.004-.015-.003 0-.012-.011-.014-.015-.002-.004.009-.03.01-.043.003-.004-.003-.009-.002-.011 0-.007.006-.037.008-.037.003V.082c-.002-.011-.003-.01-.012.005-.005.01-.011.019-.013.019s-.002-.004.001-.008c.004-.005.002-.006-.005-.002-.014.009-.025.01-.03.002-.002-.004-.001-.006.003-.003.004.002.009.002.01-.001.005-.008-.018-.008-.023 0a.995.995 0 0 1-.198.005c0-.012-.003-.013-.012-.005-.01.012-.038.008-.032-.004.002-.004 0-.004-.005 0-.005.005-.018.009-.031.009-.016 0-.021-.003-.018-.009.005-.006.003-.006-.004 0a.032.032 0 0 1-.019.009c-.01 0-.01 0 0-.007.005-.004.006-.006.002-.006s-.01.002-.012.006c-.003.004-.01.007-.014.007-.007 0-.008-.003-.006-.009.004-.006.004-.006-.005 0-.008.007-.012.007-.019 0-.006-.005-.008-.005-.004 0 .002.005 0 .007-.008.006a.038.038 0 0 1-.011-.004.071.071 0 0 0-.019-.004c-.01-.002-.018 0-.016.003.002.003-.004.005-.012.005-.01 0-.014-.002-.011-.007.002-.003-.001-.003-.007.002s-.013.006-.015.003c-.003-.006-.046-.005-.057.002-.004.002-.008 0-.01-.004-.004-.005-.008-.005-.014 0-.005.004-.01.005-.012.002-.004-.007-.059-.006-.07 0-.004.004-.008.003-.01 0-.005-.006-.059-.006-.07 0-.003.003-.01.002-.011-.002-.003-.004-.014-.006-.024-.004-.011.002-.021 0-.024-.003-.002-.004-.007-.004-.011 0-.01.006-.032.005-.044-.002-.007-.005-.008-.004-.004.003.005.008.004.008-.005 0-.007-.004-.012-.005-.014-.001-.005.007-.016.007-.03-.001-.003-.003-.008-.002-.01 0-.005.007-.01.007-.05-.001-.008-.002-.016 0-.018.003-.002.003-.01.004-.019 0a.061.061 0 0 0-.024-.004.036.036 0 0 1-.02-.006c-.007-.006-.008-.005-.005.002.005.007.001.008-.015.006-.011-.002-.022-.002-.024.002-.002.002-.01.004-.016.002-.016-.004-.013-.026.004-.025.008 0 .014-.003.014-.007 0-.008-.029-.01-.037-.002-.002.003-.008.002-.013-.003-.005-.004-.01-.005-.013-.003-.002.002 0 .004.004.004.005 0 .006.004.003.008-.002.004-.002.006.002.004.004-.003.01 0 .015.005.005.005.007.01.005.01-.016.004-.022.003-.03-.003-.007-.005-.01-.005-.007 0 .004.004-.01.007-.038.008-.031 0-.042-.002-.038-.007.003-.006.001-.005-.006 0-.007.006-.08.007-.303.005l-.618-.006a77.07 77.07 0 0 1-.584-.008c-.36-.006-.42-.007-.868-.008-.218-.001-.397-.003-.399-.005a30.099 30.099 0 0 0-.976-.002Zm5.469.046c.002.003 0 .007-.003.007-.004 0-.008-.004-.008-.007 0-.004.002-.007.003-.007.002 0 .006.003.008.007Zm1.318.016c0 .001-.004.005-.01.007s-.008.001-.006-.003c.004-.007.016-.01.016-.004ZM14.73 2.536c0 .027-.024.042-.033.019-.007-.019.004-.039.02-.039.01 0 .012.006.012.02Z"/><path d="M21.91.2a.284.284 0 0 1-.072.007.445.445 0 0 0-.12.015.631.631 0 0 0-.064.011 3.186 3.186 0 0 1-.17.032 2.726 2.726 0 0 0-.278.065l-.108.033a.205.205 0 0 1-.066.013c-.004-.003-.006-.002-.004.002.005.007-.1.044-.127.045-.008 0-.012.002-.01.006s-.002.005-.01.003c-.01-.003-.017 0-.02.006-.004.005-.014.01-.023.01-.01.001-.016.004-.015.006.002.003-.045.02-.06.022a.04.04 0 0 0-.016.01c-.005.004-.012.006-.015.004-.004-.002-.006 0-.006.003 0 .004-.004.007-.008.007-.013 0-.253.12-.326.162a6.152 6.152 0 0 0-.347.22c-.21.152-.46.383-.616.574-.023.028-.065.08-.095.113-.034.04-.066.08-.096.123a9.184 9.184 0 0 0-.58.87c-.04.062-.098.156-.13.21-.03.055-.089.154-.129.22a13.064 13.064 0 0 0-.17.293c-.007.009-.043.07-.082.133l-.115.19a1.66 1.66 0 0 0-.044.073c0 .002-.034.063-.076.136l-.104.185a6.66 6.66 0 0 1-.157.27l-.094.158a8.46 8.46 0 0 1-.141.237l-.078.129a1.34 1.34 0 0 0-.045.075c0 .002-.023.043-.052.092a3.124 3.124 0 0 0-.078.138l-.08.144a14.52 14.52 0 0 1-.262.45l-.2.337-.074.127a3.975 3.975 0 0 0-.067.127 1.835 1.835 0 0 1-.083.147 1.273 1.273 0 0 0-.132.228c0 .021.032.09.072.158.032.052.106.187.153.278l.044.08a17.954 17.954 0 0 0 .203.358c.112.197.14.247.18.32a.803.803 0 0 0 .04.07l.05.087.089.157.094.164.103.177c.03.051.084.144.119.207a42.053 42.053 0 0 0 .329.58c.042.078.107.194.143.258l.143.254c.044.075.094.163.112.197.02.032.072.126.118.207.046.08.098.174.116.207l.098.172c.036.061.1.173.142.249.042.075.102.18.134.232.03.051.086.148.12.214a14.545 14.545 0 0 0 .398.695c.072.13.119.212.241.424.147.252.29.506.432.761.075.138.152.274.233.408.016.022.13.224.203.354.031.058.08.142.107.187l.078.136a23.002 23.002 0 0 0 .287.498c.049.078.088.145.157.27.032.06.082.146.11.194l.156.267.12.204c.139.237.273.478.402.72.087.166.212.39.314.562.095.16.26.44.305.52l.195.335.125.202c.014.02.024.041.022.046-.003.004-.002.005.002.003s.012.007.018.02c.02.05-.008.046.348.052a24.548 24.548 0 0 0 .697.01c.193 0 .294.002.294.007 0 .003.007.007.016.006.014 0 .014 0 0-.006-.008-.004 0-.005.025-.005.02.001.037.004.035.006-.002.004.004.005.012.004l.04.004c.015.004.026.003.028 0 .002-.005 0-.006-.008-.004-.007.002-.015 0-.017-.004-.003-.005.003-.008.02-.008.013 0 .022.003.02.006-.002.004 0 .008.007.01.014.006.016.006.016-.004s.059-.012.065 0c.003.003.015.006.027.005.011 0 .021.001.021.005 0 .003.006.002.013-.002.007-.003.018-.004.023-.002.006.002.011 0 .011-.004 0-.006.007-.007.022-.004.036.008.085.008.085.001 0-.004.003-.003.008.001.006.006.01.005.017-.004.005-.006.008-.008.006-.004-.006.012.017.018.024.008.003-.006.005-.005.005.004 0 .006.003.01.006.008s.008 0 .01.004c.002.006.003.005.003-.002.001-.01.004-.01.021-.006.01.004.021.004.023 0 .004-.006.03 0 .03.008 0 .004.007.003.014 0 .01-.006.013-.006.013 0s.002.006.006.002c.006-.01.034-.017.034-.008 0 .003.004.004.007.002.004-.002.007 0 .007.004 0 .007 0 .007.006 0 .006-.01.041-.008.048.002.004.004.006.004.006-.002 0-.004.004-.008.01-.008s.008.003.006.007c-.002.003 0 .007.003.007.004 0 .008-.004.008-.007 0-.008.014-.006.02.003.004.004.006.004.006-.002 0-.008.002-.008.012 0 .009.008.01.008.005 0-.004-.008-.003-.009.007-.005.025.01.056.013.056.005 0-.005.004-.006.007-.004.004.002.005.006.004.008-.001.003.01.005.027.005.016 0 .03-.003.03-.007s.002 0 .005.007c.005.012.005.012.018 0 .016-.016.042-.02.029-.006-.01.013-.003.012.01-.001.007-.007.01-.008.01-.003s.007.007.017.004c.012-.002.018 0 .023.008.006.01.007.01.007-.004 0-.011.004-.015.018-.015.01 0 .015.003.012.008-.004.005-.002.006.004.002a.01.01 0 0 1 .008 0 .01.01 0 0 1 .003.001l.003.003c.004.008.006.006.006-.004 0-.007.002-.01.005-.006.003.003.014.006.025.006.011 0 .022-.003.024-.006.004-.004.006-.003.006.003s.006.01.016.01c.021 0 .021-.002.002-.01-.014-.005-.014-.006.004-.005.01.001.018.005.018.01 0 .007.005.008.022.005a.179.179 0 0 1 .03-.005c.004 0 .008-.003.008-.006 0-.01.026-.006.043.005.01.006.02.009.023.007.003-.002.008 0 .01.004.002.006.003.006.003 0 .001-.004.01-.005.022-.004.013.002.02.001.016-.004-.002-.003-.01-.005-.016-.004-.007.002-.012-.002-.012-.007 0-.007.002-.007.008-.002.006.004.01.004.012 0 .002-.003.01-.005.018-.002.007.001.011.005.01.009-.003.003.002.006.01.006l.022.002c.004.001.01.004.013.008.003.004.005.004.005 0 0-.005.005-.008.01-.008s.01.002.01.006c0 .009.04-.014.04-.024 0-.004.005.002.01.015.012.027.02.024.01-.003-.007-.019-.007-.019.006-.006.01.008.014.01.014.003s.002-.007.01 0c.006.005.01.006.013 0 .002-.003.01-.007.018-.007.012 0 .013.002.006.01-.008.01-.01.01-.014.002-.005-.006-.006-.006-.006.003 0 .014.01.016.016.005.003-.004.01-.006.015-.003.006.001.008 0 .006-.003-.002-.004-.002-.007.002-.007s.01.006.014.012c.006.01.006.01.007 0 0-.008.003-.01.007-.008a.01.01 0 0 0 .007 0 .01.01 0 0 0 .005-.003c.004-.005.01-.004.02.006.008.008.014.01.014.006s-.005-.012-.011-.017c-.01-.007-.007-.007.018-.002a.11.11 0 0 1 .037.013c.01.01.016.007.012-.006-.002-.008-.002-.008.002-.002.004.004.012.006.018.004.006-.002.011-.002.011.002s.01.007.02.006c.012 0 .02.001.02.005 0 .003.004.004.009.002.004-.001.007-.007.006-.012 0-.005.003-.004.009.004.009.012.01.012.024 0 .014-.013.014-.013.01 0s-.004.013.005.001c.01-.012.01-.012.017 0 .007.011.008.01.005-.005-.001-.01 0-.017.003-.015.003.002.006.008.006.015 0 .01 0 .01.008 0s.01-.01.017 0c.006.007.007.007.005 0-.003-.005 0-.003.006.003.01.014.01.014.011 0 0-.006.002-.009.003-.004.002.005.008.006.014.004.004-.002.008-.006.006-.008-.004-.008.039 0 .049.007.005.005.008.005.008 0s.004-.008.01-.008.008-.003.006-.007c-.002-.003 0-.006.003-.006.004 0 .007.004.007.008 0 .006.003.005.008-.002.006-.008.006-.007.004.004-.003.012-.001.014.009.012.007-.002.013-.007.013-.01 0-.004-.003-.004-.007-.002-.003.002-.007.001-.007-.002 0-.004.012-.006.026-.006.017 0 .02 0 .01.004-.023.006-.01.017.021.017.015 0 .029-.003.031-.007.004-.004.006-.003.006.002s.004.006.01.005c.005-.003.01-.01.01-.014 0-.008.002-.008.01-.001.006.006.006.01 0 .013-.004.003-.003.005.005.005.007 0 .012-.004.012-.012s.005-.01.016-.01a.4.4 0 0 0 .096.006.253.253 0 0 1 .097.007c.01.005.016.005.014.002s0-.006.003-.006c.004 0 .007.003.007.008 0 .004.005.003.012-.003.012-.012.07-.014.064-.003-.002.003-.006.004-.009.001-.003-.002-.007 0-.01.004s.003.006.013.005c.01 0 .017-.005.017-.009 0-.005.064-.008.224-.008.187 0 .223.002.223.01 0 .005.006.008.012.007.007 0 .014 0 .02.004.004.002.01.001.012-.003.004-.006-.01-.009-.028-.007-.005 0-.009-.001-.009-.005 0-.003.023-.006.05-.005.036 0 .05.003.05.009 0 .005.005.008.01.008.009 0 .01-.002.005-.008-.006-.007-.002-.009.016-.009.012 0 .023.003.023.008 0 .003.007.007.016.007.01 0 .014-.003.013-.006-.002-.003-.006-.004-.01-.002-.003.002-.007.002-.009-.002 0-.002.008-.005.02-.005.016 0 .02.003.016.007-.004.006 0 .008.017.008.013 0 .021-.002.02-.005-.002-.003-.008-.004-.013-.001-.006.002-.01 0-.01-.003s.01-.006.023-.006c.015 0 .024.003.024.009 0 .005.004.008.01.008s.009-.002.007-.005c-.002-.003 0-.006.006-.006.005 0 .008.002.007.005-.002.002 0 .005.006.005s.008-.003.006-.006c-.001-.002 0-.007.004-.01.004-.002.006 0 .006.005-.002.005.003.01.01.011.008.002.01 0 .008-.005-.004-.006-.002-.006.008 0 .017.009.03.009.015 0-.009-.006-.008-.007.002-.007.006 0 .011.003.011.006 0 .004.025.006.056.006.123-.001.266.004.269.009a.014.014 0 0 0 .011.006c.006 0 .005-.002-.001-.006-.007-.004-.002-.006.014-.006.013 0 .027.002.032.005.005.004.015.003.02 0 .009-.005.014-.004.017 0 .003.006.007.005.014 0 .007-.007.01-.007.01 0 0 .005.002.006.012 0 .006-.003.014-.005.016-.002.01.004.02.005.03.005.01 0 .022.002.033.006.005.003.008.002.008-.002s.003-.005.007-.003c.003.002.03.004.06.004s.052.003.05.005c-.001.002.003.005.01.005s.011-.002.01-.004c-.001-.002.019-.004.044-.004.04-.001.044 0 .034.008-.01.008-.01.008.004.004.008-.002.015-.006.015-.01 0-.002.006-.005.013-.005.008 0 .014.004.014.008 0 .007.002.006.006 0 .004-.007.008-.008.02-.001.01.005.014.005.011 0-.003-.004.003-.007.016-.007.012 0 .02.003.017.007-.002.003 0 .006.002.006.004 0 .008-.002.008-.006 0-.003.017-.006.04-.006.014.001.03 0 .044-.002a.125.125 0 0 1 .033-.004 2.57 2.57 0 0 0 .413-.048 1.45 1.45 0 0 1 .107-.016.128.128 0 0 0 .035-.006.746.746 0 0 1 .126-.033c.113-.024.174-.042.287-.085.037-.014.079-.03.093-.034.052-.016.289-.123.411-.186.168-.085.248-.132.35-.203.08-.056.29-.215.34-.258.197-.17.432-.406.537-.54a3.85 3.85 0 0 0 .279-.41c.05-.085.177-.346.217-.44.147-.351.239-.696.273-1.032.02-.188.033-.466.03-.57a3.982 3.982 0 0 0-.114-.818 2.19 2.19 0 0 1-.026-.114.207.207 0 0 0-.009-.033.057.057 0 0 1-.005-.028c.002-.006.001-.008-.002-.006-.008.006-.016-.026-.01-.038.003-.004.003-.006 0-.004-.007.007-.032-.047-.028-.059.002-.004.001-.009-.002-.01a.818.818 0 0 1-.056-.146c-.003-.003-.006-.012-.006-.022-.001-.01-.003-.016-.005-.014-.002 0-.01-.013-.018-.031-.008-.018-.011-.033-.008-.033.004 0 .002-.005-.003-.01-.006-.006-.01-.014-.008-.017.003-.004 0-.006-.002-.006-.005 0-.008-.005-.008-.011a.067.067 0 0 0-.014-.03.109.109 0 0 1-.015-.029.08.08 0 0 0-.013-.026.1.1 0 0 1-.013-.034c0-.01-.003-.015-.006-.013-.002.001-.008-.008-.012-.02a.766.766 0 0 0-.02-.045.119.119 0 0 1-.014-.035c0-.006-.002-.011-.005-.011a.225.225 0 0 1-.027-.049c-.026-.056-.026-.056-.06-.12a15.104 15.104 0 0 0-.255-.48c-.095-.164-.16-.277-.188-.33a7.58 7.58 0 0 1-.112-.194l-.071-.12a.582.582 0 0 1-.03-.053 2.078 2.078 0 0 1-.59-1.034.073.073 0 0 0-.012-.02c-.007-.007-.012-.017-.012-.022 0-.005-.003-.009-.006-.009s-.008-.004-.01-.01c-.003-.008-.002-.01.005-.006.004.004.002 0-.004-.005a.065.065 0 0 1-.015-.02c-.006-.025-.012-.039-.017-.039-.004 0-.012-.012-.02-.029-.008-.016-.01-.022-.004-.015.006.008.012.011.015.01.002-.003-.005-.011-.017-.02-.011-.009-.02-.02-.02-.027 0-.007-.003-.012-.007-.012-.003 0-.007-.004-.007-.008a.076.076 0 0 0-.014-.027c-.008-.01-.012-.021-.01-.023.002-.003.004-.001.004.003 0 .005.004.008.009.008.004 0 0-.008-.011-.016-.011-.009-.018-.019-.015-.023.002-.004 0-.011-.006-.016-.005-.006-.01-.014-.01-.018 0-.005-.003-.006-.007-.004-.006.004-.01-.005-.007-.019 0-.002-.003-.004-.007-.004-.003 0-.005-.003-.003-.006.002-.004 0-.01-.006-.016s-.01-.014-.01-.017c0-.004-.002-.008-.005-.01a.225.225 0 0 1-.04-.067c-.007-.013-.014-.024-.017-.024-.003 0-.005-.005-.005-.011 0-.006-.003-.008-.007-.005-.005.002-.007 0-.005-.005s-.007-.026-.02-.045a.196.196 0 0 1-.021-.042c0-.004-.003-.005-.006-.003-.004.002-.008-.002-.01-.01-.002-.007 0-.012.003-.009.015.009.004-.011-.011-.021-.01-.006-.016-.016-.014-.02.002-.005-.001-.012-.006-.016-.006-.005-.01-.012-.01-.015a.076.076 0 0 0-.014-.027c-.008-.01-.012-.021-.01-.023.002-.003.004 0 .004.005 0 .004.002.006.005.004.002-.002-.004-.012-.014-.021-.01-.01-.016-.02-.014-.024s.002-.01-.002-.012c-.014-.01-.036-.049-.032-.058a.894.894 0 0 1-.109-.177 1.964 1.964 0 0 0-.052-.093l-.082-.14a7.228 7.228 0 0 1-.215-.375 3.31 3.31 0 0 0-.072-.126 14.12 14.12 0 0 1-.114-.194 15.756 15.756 0 0 0-.236-.398 6.979 6.979 0 0 1-.131-.226 51.706 51.706 0 0 1-.127-.234 3.498 3.498 0 0 0-.058-.1.52.52 0 0 1-.045-.083.644.644 0 0 1-.037-.063A7.432 7.432 0 0 0 28.358 7a7.774 7.774 0 0 1-.19-.334.567.567 0 0 0-.037-.067 10.616 10.616 0 0 1-.212-.367c-.05-.09-.1-.18-.153-.267-.05-.083-.1-.166-.146-.25a75.8 75.8 0 0 0-.276-.485 15.373 15.373 0 0 1-.131-.237 8.31 8.31 0 0 0-.186-.334 21.23 21.23 0 0 1-.415-.734 8.736 8.736 0 0 0-.122-.224l-.11-.19a23.415 23.415 0 0 0-.11-.19l-.078-.138a1.378 1.378 0 0 0-.04-.068c-.007-.01-.01-.022-.007-.026s.002-.006-.002-.004c-.003.002-.013-.007-.02-.02l-.042-.075a18.417 18.417 0 0 1-.11-.2 7.991 7.991 0 0 0-.124-.215l-.122-.204a6.115 6.115 0 0 0-.07-.12.226.226 0 0 1-.03-.057 1.12 1.12 0 0 1-.134-.213c.002-.005.002-.006-.002-.004a.743.743 0 0 1-.104-.154c0-.005-.003-.006-.006-.005-.003.003-.006 0-.006-.004s-.005-.013-.012-.019a.175.175 0 0 1-.028-.037.932.932 0 0 0-.092-.126c-.013-.015-.02-.03-.019-.035.002-.005.002-.009-.002-.007-.005.004-.034-.024-.044-.044a4.866 4.866 0 0 0-.384-.397c-.018-.014-.031-.03-.03-.034.002-.004-.001-.008-.006-.008-.014 0-.058-.04-.053-.049.003-.003.001-.005-.002-.003-.008.006-.056-.04-.054-.05.001-.004-.006-.008-.014-.008-.01-.001-.018-.005-.02-.01 0-.004-.005-.006-.008-.003-.004.002-.006 0-.006-.004s-.004-.005-.008-.003c-.004.003-.006 0-.003-.008.004-.014-.011-.026-.04-.031-.007-.001-.012-.006-.01-.01 0-.006-.002-.008-.006-.005-.003.002-.007.001-.007-.002s-.006-.008-.014-.01C24.501.91 24.5.905 24.502.9c.003-.005.003-.007 0-.005-.007.007-.036-.009-.062-.034a.242.242 0 0 0-.05-.033.352.352 0 0 1-.045-.028c-.01-.008-.013-.011-.008-.009.007.004.009.002.005-.003-.002-.004-.007-.006-.01-.004-.008.005-.041-.017-.037-.023.004-.007-.016-.015-.024-.01-.004.002-.006 0-.005-.004.001-.005-.001-.01-.005-.01-.016 0-.062-.026-.058-.032.002-.004 0-.005-.004-.002-.01.006-.034-.007-.032-.018 0-.005-.004-.007-.01-.007a.352.352 0 0 1-.115-.064c.002-.004-.002-.005-.008-.002-.006.002-.01 0-.008-.006.001-.006-.005-.01-.015-.01-.038-.002-.037-.002-.027-.008.006-.004.002-.008-.014-.011a.25.25 0 0 1-.046-.015.138.138 0 0 0-.028-.01c-.003 0-.005-.001-.005-.005 0-.003-.005-.007-.01-.007-.006 0-.01-.003-.01-.007 0-.005-.003-.005-.01 0-.006.005-.01.005-.016-.001-.004-.006-.005-.013-.002-.015.002-.004 0-.004-.007-.002s-.019-.002-.03-.01a.08.08 0 0 0-.02-.014c-.001.002-.003.002-.003.002L23.767.49c-.007-.001-.014-.005-.015-.01-.001-.003-.008-.004-.013-.002-.008.003-.01.001-.006-.008.004-.01.003-.01-.006-.003-.008.006-.01.006-.01 0 0-.005-.004-.007-.01-.005-.005.003-.011.001-.013-.002-.003-.004-.008-.005-.01-.003-.004.002-.007 0-.007-.004S23.673.447 23.67.45c-.005.001-.015-.004-.023-.01a.07.07 0 0 0-.033-.016.13.13 0 0 1-.044-.013l-.007-.003a.059.059 0 0 0-.018-.004.058.058 0 0 1-.024-.011c-.005-.005-.004-.006.003-.002s.008.003.005-.003a.012.012 0 0 0-.015-.005c-.005.003-.018 0-.028-.003l-.023-.01-.009-.002c-.004-.003-.01-.004-.038-.01-.014-.003-.025-.008-.025-.012 0-.003-.003-.004-.007-.002-.003.002-.017 0-.03-.006a.253.253 0 0 0-.04-.013 1.2 1.2 0 0 1-.165-.042L23.12.277a.066.066 0 0 1-.014-.005C23.103.27 23.094.27 23.088.27a.246.246 0 0 1-.057-.008 1.636 1.636 0 0 0-.068-.013l-.1-.016c-.07-.012-.14-.02-.21-.024a.904.904 0 0 1-.08-.01A9.736 9.736 0 0 0 21.91.2Zm2.669.76c0 .004-.002.008-.003.008-.002 0-.005-.004-.007-.007-.002-.004-.001-.007.002-.007.004 0 .008.003.008.007Zm.463 17.214c.002.003 0 .006-.006.006-.005 0-.008-.002-.006-.006l.006-.005c.001 0 .004.002.006.005Zm.313.005c-.002.006-.005.01-.006.007-.002-.002-.002-.006 0-.01.007-.01.01-.009.006.003Zm.221-.005c.002.003 0 .006-.006.006-.005 0-.008-.002-.006-.006l.006-.005c.002 0 .004.002.006.005Zm.057.003c.009-.002.009 0-.001.005-.013.008-.025.004-.025-.009 0-.005.002-.005.007 0a.02.02 0 0 0 .019.004Zm.691-.002c.002.002-.008.005-.023.004-.014 0-.026-.002-.026-.006 0-.006.045-.006.05.002Zm-1.235.007c.002.003.001.007-.002.007-.004 0-.008-.004-.008-.007 0-.004.002-.007.003-.007.002 0 .005.003.007.007Zm.37-.003c-.003.002-.009.003-.014.001-.005-.002-.003-.004.004-.004.008 0 .012.001.01.003Zm.539.002c.002.004 0 .008-.004.011-.003.002-.006 0-.006-.006 0-.012.004-.014.01-.005Z"/><path d="M30.67 17.774a1.238 1.238 0 0 0-.127.086.165.165 0 0 1-.029.019c-.01.005-.019.012-.019.016 0 .003-.014.012-.031.021a1.71 1.71 0 0 1-.23.135.17.17 0 0 1-.036.02 5.656 5.656 0 0 0-.087.042.406.406 0 0 1-.072.03c-.006 0-.011.002-.011.006 0 .003-.002.006-.005.006-.013-.002-.023.002-.04.016a.453.453 0 0 1-.128.049.023.023 0 0 0-.014.01c-.003.004-.007.007-.01.006a.494.494 0 0 0-.11.036c-.008.005-.008.005-.004-.002.003-.005-.004-.003-.018.005-.043.023-.14.051-.45.132l-.143.037a2.22 2.22 0 0 1-.313.046l-.164.014a5.45 5.45 0 0 1-.177.012 72.823 72.823 0 0 1-1.953-.01c-.11 0-.219-.003-.328-.008a14.585 14.585 0 0 0-.337-.006 34.84 34.84 0 0 1-.457-.006c-.168-.004-.151-.004-.204-.003-.17.002-1.218-.01-1.218-.014 0 0-.52-.005-.97-.007a8.992 8.992 0 0 1-.47-.009.109.109 0 0 1-.042.004c-.08-.003-.312-.006-.538-.008-.143 0-.239-.003-.23-.006.009-.004-.001-.006-.033-.006a.196.196 0 0 1-.06-.008c-.01-.005-.012-.005-.009 0 .004.005 0 .007-.009.007-.008 0-.012-.003-.01-.006.002-.005 0-.007-.003-.007-.004 0-.007.005-.007.005 0 .01-.3.003-.31-.005-.009-.007-.01-.007-.01 0 0 .008-.011.01-.052.007a.165.165 0 0 0-.054 0c-.001.004-.005.005-.008.003a11.732 11.732 0 0 0-.382-.007c-.62-.006-1.241-.01-1.862-.013-.266 0-.532-.003-.798-.008a19.562 19.562 0 0 0-.424-.005c-.44-.002-.41-.002-.403-.012.004-.007.003-.007-.005 0-.004.005-.026.008-.05.008-.022 0-.044-.003-.049-.009-.005-.003-.007-.005-.005-.001s-.009.008-.026.008c-.02 0-.028-.001-.025-.006.003-.006.001-.005-.005 0-.011.01-.046.01-.046 0 0-.006-.002-.006-.008 0-.01.01-.028.01-.023.002.002-.003 0-.01-.005-.013-.007-.006-.01-.005-.018.002-.009.012-.022.007-.015-.005.003-.005 0-.005-.006 0-.008.007-.012.008-.015.002-.004-.005-.009-.004-.018.004-.012.01-.016.009-.013-.006 0-.004-.002-.003-.009.002-.006.005-.01.005-.014 0-.003-.005-.008-.004-.017.004-.011.01-.016.009-.013-.006 0-.002-.002-.005-.006-.005-.003 0-.007.007-.008.015-.002.014-.003.014-.012.002-.006-.006-.007-.01-.003-.008s.007 0 .007-.006c0-.007-.004-.006-.014.004-.013.012-.016.013-.023.004-.007-.008-.007-.01.004-.007.008.001.013-.002.013-.008s-.002-.007-.01-.002c-.006.006-.008.006-.008-.001 0-.006-.002-.006-.006.002-.008.013-.032.011-.028-.002.002-.006 0-.006-.008 0-.012.01-.014.016-.006.012.003 0 .006 0 .007.004.003.012 0 .013-.01.004s-.044-.015-.039-.007a.234.234 0 0 1-.075.001c-.004-.004-.02-.004-.025 0-.009.005-.018.005-.03-.003-.007-.004-.007-.004-.003.004s.004.008-.005 0c-.007-.005-.013-.005-.015-.002-.004.008-.016.006-.03-.002-.007-.004-.008-.004-.004.004.005.007.004.008-.005.001-.005-.005-.012-.006-.014-.004-.007.008-.024.008-.024.002 0-.004-.004-.007-.008-.007-.003 0-.004.005-.002.009.004.006.004.006-.005 0-.005-.005-.012-.006-.015-.004-.006.008-.024.008-.024.002 0-.004-.003-.007-.007-.007-.003 0-.005.003-.003.006s-.001.006-.006.006c-.006 0-.008-.003-.006-.006s-.002-.006-.008-.006-.008-.003-.006-.008c.003-.005.002-.005-.003-.002-.006.004-.006.007 0 .014.005.006.004.008-.006.007-.006-.001-.011-.005-.011-.01a.02.02 0 0 0-.005-.011c-.003-.002-.004.002-.002.009.002.016-.007.026-.014.014-.003-.005-.002-.006.004-.003.006.005.007.003.004-.002-.004-.006-.008-.006-.017.002-.01.009-.012.009-.023-.002-.008-.005-.01-.008-.009-.003.002.004 0 .007-.005.007-.006 0-.008-.003-.006-.007.003-.004.001-.005-.005 0-.013.008-.026.009-.026.002 0-.004-.003-.007-.007-.007s-.005.005-.002.009c.004.006.003.006-.005 0-.006-.005-.013-.006-.015-.004-.007.008-.025.008-.02.002.002-.004.006-.005.008-.004.003.002.006 0 .006-.005 0-.006-.004-.007-.016-.002-.008.005-.013.01-.01.015.002.003-.001.002-.007-.002-.008-.006-.012-.007-.015-.002-.004.005-.008.005-.016-.001-.006-.006-.008-.006-.006-.001.005.008-.011.008-.02 0-.002-.002-.008 0-.014.004-.008.007-.01.006-.004-.002.004-.009.004-.009-.005-.001-.008.006-.012.006-.015.001-.003-.004-.009-.005-.013-.001a.034.034 0 0 1-.018.005.06.06 0 0 0-.024.004c-.01.003-.017.002-.02-.003-.002-.003-.002-.005.003-.002.004.002.009.001.01-.002.003-.003-.004-.005-.014-.003a.06.06 0 0 0-.018.002.064.064 0 0 1-.018.003c-.01.001-.017-.001-.015-.004.002-.003-.001-.006-.007-.006s-.01.003-.008.006c.002.002-.007.005-.019.005s-.02-.002-.02-.005c.005-.006-.039-.003-.05.005-.006.004-.007.002-.003-.004.004-.007.002-.008-.009-.005-.016.005-.026-.005-.014-.012.005-.004.006-.002.003.004-.004.006-.003.007.002.004.004-.003.006-.008.004-.012-.005-.008-.007-.008-.02.005-.012.013-.05.018-.05.008 0-.003.004-.004.009-.001.004.002.006.002.003-.001-.002-.003-.002-.008.002-.012.004-.006 0-.008-.012-.01-.016 0-.016 0-.005.005s.011.006.002.006c-.007.001-.01.005-.008.01.005.013-.036.01-.044-.002-.003-.006-.005-.005-.008.001-.005.011-.038.01-.045 0-.005-.007-.006-.007-.009 0-.004.01-.082.012-.097.003-.004-.002-.009-.002-.011.002-.002.005-.01.005-.02 0-.01-.003-.018-.003-.02-.001a.186.186 0 0 1-.059.004 19.725 19.725 0 0 0-.203-.003.987.987 0 0 1-.15-.006c0-.003-.008-.003-.02.001-.014.005-.022.005-.029 0-.004-.005-.01-.006-.01-.006-.002.002-.012.005-.022.008-.015.003-.018.002-.014-.005.004-.007.003-.007-.006 0-.006.005-.012.006-.014.004a.259.259 0 0 0-.102.002 239.12 239.12 0 0 0-2.554-.034l-.777-.007-.942-.008a17.238 17.238 0 0 1-.584-.008c-.005-.006-.033-.006-.03 0 .003.003 0 .006-.006.006-.005 0-.011-.002-.013-.005a.25.25 0 0 0-.067-.005c-.036 0-.064-.002-.064-.005a.68.68 0 0 1-.208-.005c0-.004-.002-.006-.006-.003-.004.002-.005.006-.004.008a.262.262 0 0 1-.068.004.402.402 0 0 0-.086.005c-.008.003-.016.003-.018 0-.004-.006-.051-.001-.051.005 0 .01-.02.005-.02-.005 0-.009-.002-.009-.005-.001a4.254 4.254 0 0 0-.119.197c-.084.148-.15.26-.228.384a6.667 6.667 0 0 0-.157.263l-.145.252-.104.18c-.06.11-.14.248-.202.35l-.102.167c-.025.04-.063.104-.087.14-.022.037-.095.16-.16.274a19.09 19.09 0 0 1-.378.631l-.101.165c-.02.03-.07.119-.115.197-.045.078-.087.15-.094.159a4.074 4.074 0 0 1-.45.788c-.021.03-.05.08-.065.11-.024.045-.049.09-.075.133-.1.168-.164.276-.194.335-.07.131-.136.264-.199.399-.11.265-.15.374-.17.479l-.015.067a2.806 2.806 0 0 0-.08.426.656.656 0 0 0-.014.098c-.004.047-.01.099-.014.113-.01.048-.015.13-.015.297 0 .167.009.28.036.474l.017.127c.007.064.062.307.09.401.045.145.129.382.177.497.062.147.183.383.23.447l.056.084c.009.017.034.045.054.063.093.08.32.37.375.48.073.143.59.563.907.735.319.172.597.289.852.356a4.211 4.211 0 0 0 .504.1c.007 0 .015.002.017.003a.02.02 0 0 0 .008 0c.003 0 .012.003.02.007.01.005.012.005.01 0-.004-.004 0-.008.005-.008.007 0 .01.004.006.009-.004.006-.002.006.005 0 .01-.01.028-.012.023-.003-.002.003 0 .006.006.006.005 0 .008-.003.006-.006s.001-.005.007-.005c.005 0 .012.003.015.008.003.004.002.005-.005.002-.006-.004-.007-.003-.004.002.004.006.008.006.014.002.012-.011.038-.006.034.006-.003.007 0 .006.006-.002.009-.012.037-.016.047-.007a.016.016 0 0 0 .011.006c.003 0 .007.001.008.003.006.005.025.003.03-.002.001-.004 0-.005-.004-.003-.004.003-.009.002-.01-.002-.005-.007.008-.006.021.002.007.005.008.004.005-.002-.004-.005.002-.007.02-.006.013.001.026.006.028.011.003.008.004.008.01 0 .004-.006.007-.006.01 0 0 .004.006.008.009.008.004 0 .005-.003.002-.006-.004-.008-.35-.008 7.099-.008 3.081 0 5.652.002 5.712.004l.117.004c.056 0 .223-.008.297-.014.072-.006.097-.006.1 0 .001.006.005.005.01-.002a.277.277 0 0 1 .077-.024c.313-.068.842-.342 1.185-.614.254-.201.536-.513.75-.829.13-.195.253-.394.37-.598.034-.062.087-.154.116-.203l.099-.17c.125-.216.381-.648.527-.888.117-.194.231-.39.342-.588.033-.059.08-.143.107-.187.053-.089.165-.283.194-.334l.094-.174c.043-.076.096-.168.118-.203.05-.081.122-.201.255-.431a15.792 15.792 0 0 1 .204-.347c.068-.12.139-.24.212-.358.085-.134.202-.329.276-.46l.103-.174.219-.367c.032-.057.1-.171.15-.254.272-.452.298-.493.385-.628a3.97 3.97 0 0 0 .08-.13c.09-.153.15-.253.214-.354.092-.145.158-.254.254-.42a36.231 36.231 0 0 1 .354-.605l.08-.137.074-.125.043-.075a.245.245 0 0 1 .022-.035c.004-.003.004-.001.001.005s-.003.008.003.004c.004-.003.006-.008.004-.011a.193.193 0 0 1 .028-.062l.062-.106c.016-.029.032-.05.035-.047.004.002.005 0 .002-.004a.256.256 0 0 1 .038-.08 8.472 8.472 0 0 0 .115-.195c.026-.042.05-.087.058-.1a.12.12 0 0 1 .02-.03 2.32 2.32 0 0 1 .099-.17l.02-.034.03-.05a.66.66 0 0 0 .028-.048.115.115 0 0 1 .02-.03c.005-.003.009-.01.009-.013 0-.004.01-.02.02-.037a.182.182 0 0 0 .02-.032c0-.002.01-.025.022-.049.035-.069.05-.121.036-.121a.097.097 0 0 0-.03.012Zm-14.01.606c0 .006-.013.009-.017.004-.002-.003.001-.006.006-.006.006 0 .01.002.01.002Zm.106 0c0 .006-.012.009-.016.004-.002-.003 0-.006.006-.006s.01.002.01.002Zm.054.004c0 .003-.003.006-.006.006a.013.013 0 0 1-.01-.006c-.002-.003 0-.006.006-.006.005 0 .01.003.01.006Zm.1.001c.004.007.004.01-.003.01-.006 0-.01-.005-.01-.01s0-.009.002-.009c.001 0 .006.004.01.009Zm.053 0c.007.01.004.01-.019.005-.002 0 .006-.014.009-.014 0 0 .006.004.01.01Zm.048.007c-.01.009-.018.002-.011-.008.002-.004.007-.006.011-.004.004.003.004.007 0 .012Z"/></g><defs><clipPath id="a"><path fill="#fff" d="M0 0h32v28.75H0z"/></clipPath></defs></svg>