<svg width="128" height="115" fill="none" xmlns="http://www.w3.org/2000/svg"><path d="M39.06.212c-.06.01-.21.021-.335.027-.21.005-.382.021-1.028.101-.13.016-.371.043-.534.056-.16.016-.468.07-.681.12-.214.051-.43.097-.481.1-.05.005-.102.018-.112.034-.014.016-.022.016-.022-.005 0-.016-.021-.027-.045-.022-.027.003-.045.022-.043.035.006.016-.037.043-.093.056-.4.104-.545.136-.572.12-.016-.01-.021-.008-.013.008.01.016-.086.057-.243.102-.612.174-1.825.641-2.174.836-.356.2-.657.35-.67.334-.012-.008-.02-.003-.02.013 0 .04-.299.222-.341.206-.02-.008-.03-.003-.022.008.016.027-.649.449-.697.443-.019-.002-.027.006-.021.019.008.01-.038.056-.1.096-.258.166-1.017.759-1.33 1.034-.566.502-1.1 1.05-1.674 1.717-.42.489-1.616 2.26-2.38 3.529a45 45 0 0 1-.684 1.06c-.253.382-.56.857-.683 1.055-.12.198-.265.427-.316.508-.053.08-.138.224-.195.32a87.074 87.074 0 0 1-1.052 1.75c-.313.51-.91 1.52-1.042 1.762a61.878 61.878 0 0 1-1.26 2.19c-.406.65-.575.922-.796 1.31-.3.52-.532.92-.628 1.081-.067.11-.206.35-.593 1.015-.083.14-.227.398-.32.575a15.9 15.9 0 0 1-.382.654c-.113.184-.27.44-.348.574-.077.131-.237.403-.36.601-.577.938-.863 1.434-1.691 2.938-.134.243-.449.796-.7 1.229a88.102 88.102 0 0 0-.745 1.309c-.16.285-.318.566-.353.62a24.13 24.13 0 0 0-.352.614c-.16.283-.369.643-.462.8l-.369.629c-.184.317-.547.932-.95 1.61-.091.155-.29.497-.441.761-.15.265-.414.722-.585 1.016-.174.293-.39.665-.484.828l-.28.48c-.062.102-.254.457-.428.788a49.25 49.25 0 0 1-.427.801 87.168 87.168 0 0 1-1.044 1.803c-.067.102-.257.428-.422.722-.166.293-.396.702-.51.908-.115.205-.249.432-.297.507-.128.203-.868 1.453-1.24 2.097-.181.315-.51.881-.729 1.255-.221.374-.451.772-.512.882-.064.112-.233.4-.38.64-.267.444-.368.618-.537.936-.19.36-.448.817-.646 1.148-.334.564-1.079 2.142-1.295 2.751-.372 1.04-.663 2.348-.831 3.753-.056.449-.08 2.02-.04 2.588.048.692.152 1.443.272 1.963.3 1.293.535 2.022.938 2.915.275.606 1.146 2.326 1.349 2.663.28.459.414.694.595 1.036.094.176.316.58.494.895.18.315.41.724.513.908.104.184.32.56.481.841.163.278.38.668.486.86.104.195.337.604.518.908.55.924.812 1.379 1.194 2.078.203.366.476.855.607 1.082.13.227.32.564.422.748.101.184.285.52.414.748.128.227.29.52.36.654.07.131.222.396.334.588.363.62.63 1.087.836 1.469.216.403.32.593.646 1.175.8 1.437.903 1.619 1.299 2.257.216.35.301.502.737 1.309.147.272.318.577.382.681.187.305.801 1.384 1.025 1.803.308.566.457.833.657 1.162.2.328.473.814.88 1.576.149.278.328.609.397.734.072.126.283.503.473.842.187.336.534.932.77 1.322.234.39.515.862.619 1.055.107.19.334.593.507.895.177.302.39.678.478.841.089.16.233.414.324.56.216.35.464.786.574 1.003.083.168.302.552.708 1.255.243.42.328.577.529.962.088.168.245.456.352.64.19.326.428.76.628 1.136.056.101.179.315.278.475.096.158.176.291.176.299 0 .024.395.711.612 1.063.061.099.104.193.096.206-.014.024.026.04.048.021a.681.681 0 0 1 .133.067c.142.083.177.062.126-.072-.013-.04-.021-.085-.013-.099a1.458 1.458 0 0 0-.038-.31c-.115-.617-.12-.756-.088-1.92.016-.601.043-1.165.059-1.253.016-.088.04-.245.056-.347.016-.104.064-.36.104-.574.273-1.365.374-1.715.81-2.818.333-.844.79-1.838 1.065-2.321.232-.406.566-.975.753-1.285.1-.163.265-.451.369-.641.331-.61.988-1.73 1.864-3.192.537-.892.67-1.122 1.208-2.057.139-.243.424-.723.635-1.068l.526-.868c.08-.134.214-.35.297-.486a185.08 185.08 0 0 0 .807-1.344c.04-.067.16-.27.267-.454.11-.184.264-.448.347-.587.083-.14.235-.404.34-.588.207-.371.384-.67.913-1.552.195-.328.531-.91.748-1.293.216-.382.502-.876.635-1.095.134-.221.377-.64.542-.935a45.1 45.1 0 0 1 .57-.974c.41-.682.53-.885 1.087-1.817.283-.478.576-.97.654-1.095.077-.125.227-.377.334-.56a446.907 446.907 0 0 0 .828-1.43c.093-.163.29-.5.44-.748.297-.494.823-1.383 1.256-2.123.15-.257.355-.617.454-.801a55.495 55.495 0 0 1 .775-1.35c.077-.133.203-.35.28-.48.214-.363.302-.518.593-1.042.256-.46.697-1.207.996-1.696.078-.125.249-.408.38-.627.13-.222.44-.738.689-1.149.245-.411.55-.927.673-1.143.122-.22.304-.532.406-.695.245-.4 1.327-2.233 1.653-2.796.08-.14.184-.315.232-.388.083-.13.24-.405.628-1.095.107-.192.315-.552.462-.8.147-.252.331-.565.409-.695.302-.519.873-1.472.921-1.539.046-.064.158-.254.465-.785l.32-.548c.1-.168.233-.398.294-.507.062-.11.195-.334.294-.494.102-.163.257-.42.347-.575.091-.154.321-.534.513-.841.497-.807.49-.79.745-1.215l.42-.695c.101-.168.238-.398.299-.507.283-.5.719-1.253.959-1.656.147-.243.302-.508.35-.588.205-.358.595-1.01 1.066-1.79a180.903 180.903 0 0 0 1.485-2.497c.093-.163.248-.427.347-.587.099-.163.27-.452.38-.642.186-.323.483-.83 1.089-1.87.136-.234.355-.61.486-.838.13-.227.46-.78.726-1.229.27-.448.577-.966.684-1.15l.548-.922c.334-.556.486-.828.956-1.67.11-.197.326-.576.478-.841.898-1.544 1.095-1.88 1.37-2.324.102-.163.297-.496.433-.745.4-.718.74-1.298 1.44-2.465a120.914 120.914 0 0 0 1.055-1.798c.09-.155.339-.593.553-.975.35-.628.694-1.22 1.127-1.936.083-.14.246-.417.36-.615.115-.197.316-.534.441-.747.128-.214.409-.7.625-1.082.217-.382.46-.804.537-.935l.27-.467c.107-.193.264-.455.804-1.35.045-.074.181-.306.304-.52.123-.214.32-.545.441-.735a64.98 64.98 0 0 0 1.16-1.976c.186-.347.39-.687.929-1.55.237-.379.651-.964.95-1.335.417-.52.716-.87.754-.887.021-.008.037-.026.037-.045 0-.016.153-.18.34-.363.186-.185.315-.305.288-.267l-.053.066.058-.05c.035-.027.054-.06.046-.073-.022-.037.547-.59.75-.726.059-.04.18-.134.267-.208a7.76 7.76 0 0 1 .842-.641.262.262 0 0 1 .053-.035 5.33 5.33 0 0 0 .246-.144c.812-.497 1.282-.756 1.49-.82.038-.011.08-.03.094-.04a.778.778 0 0 1 .133-.054c.187-.059.761-.32.761-.344 0-.011.035-.057.08-.105l.078-.085-.061-.04c-.078-.05-.497-.078-1.192-.075a21.881 21.881 0 0 0-.6.008c-.054-.016-.722-.024-2.845-.037L69.843.517C69.276.51 68.582.509 68.299.506c-.404-.003-.513-.01-.497-.037.016-.025.01-.025-.016 0-.03.026-.048.024-.094-.02-.045-.042-.058-.045-.058-.015 0 .021.01.035.021.026.01-.005.027 0 .037.017.011.016-.01.024-.05.02-.035-.002-.06-.015-.051-.031.01-.014.003-.016-.021 0-.07.043-.249.03-.308-.022-.053-.048-.058-.048-.093-.002-.032.043-.032.045.005.013.035-.027.05-.027.075.005.027.033.008.038-.115.033a.464.464 0 0 1-.165-.024c-.011-.009.008-.011.042-.006.048.01.054.006.024-.03-.026-.034-.037-.031-.082.009-.065.056-.412.075-.366.018.016-.02.016-.037.002-.048-.016-.008-.04.003-.058.024-.046.054-.078.027-.067-.053.002-.037 0-.061-.011-.05-.008.007-.016.045-.016.082 0 .048-.016.072-.048.078-.037.005-.043-.003-.019-.03.019-.021.019-.043.005-.05-.016-.009-.042.002-.06.026-.03.035-.038.032-.07-.035-.019-.04-.03-.053-.022-.026.011.034 0 .045-.037.04-.027-.006-.07.01-.096.032-.03.024-.043.027-.03.005.011-.019.003-.032-.021-.032s-.043.01-.043.024c0 .013-.018.032-.042.04-.038.014-.04.01-.011-.024.035-.043.024-.048-.072-.04-.048.003-.056-.008-.048-.056.008-.04.002-.05-.014-.035-.016.016-.03.059-.032.096-.002.04-.016.065-.026.06-.014-.009-.017-.025-.008-.038.008-.014.002-.03-.014-.04-.013-.008-.026-.006-.026.008 0 .013-.03.018-.067.01-.04-.005-.067 0-.067.02a.03.03 0 0 1-.03.029c-.013 0-.02-.011-.01-.025.008-.013.002-.032-.013-.042-.014-.008-.027-.006-.027.008 0 .016-.024.021-.054.013-.029-.008-.048-.024-.04-.035.008-.013.003-.029-.013-.04-.016-.01-.027.014-.027.056 0 .073-.002.073-.043.022-.029-.035-.037-.038-.029-.01.008.026-.005.042-.037.045-.03.002-.046-.006-.038-.022.011-.013.006-.024-.01-.024-.014 0-.035.013-.043.03-.014.016-.03.01-.05-.02-.033-.04-.036-.04-.052 0-.01.025-.029.044-.045.044-.016 0-.021-.014-.013-.027.008-.016.005-.027-.011-.027-.013 0-.035.013-.043.03-.013.016-.032.01-.053-.022-.035-.045-.038-.045-.054-.003-.01.027-.029.049-.045.049-.013 0-.016-.011-.008-.027s-.003-.019-.027-.01c-.021.01-.056.002-.077-.014-.019-.016-.043-.022-.054-.01-.034.034-.13.034-.17.002-.035-.03-.038-.03-.022.002.019.027.008.032-.037.016-.04-.013-.054-.01-.043.011.021.032-.056.01-.107-.03-.019-.013-.061-.01-.104.006-.048.019-.086.019-.102.003-.013-.014-.056-.016-.106 0-.054.016-.094.013-.118-.008-.027-.022-.045-.019-.077.021-.024.027-.032.035-.022.013.014-.026.003-.029-.037-.018-.03.01-.062.005-.07-.008-.01-.016-.048-.016-.101 0-.059.016-.096.013-.126-.01-.032-.028-.034-.025-.016.007.014.024-.002.019-.04-.013-.035-.03-.053-.04-.045-.024.03.05-.134.061-.182.013-.032-.032-.042-.035-.035-.005.014.056-.133.053-.184-.003-.048-.053-.088-.061-.088-.019 0 .014.01.022.024.011.014-.008.035 0 .046.016.013.024 0 .027-.038.019-.032-.01-.067-.006-.075.01-.008.014-.04.006-.072-.024-.03-.026-.045-.034-.037-.016.01.016.008.038-.008.048-.016.008-.027-.01-.027-.042 0-.059 0-.059-.043-.008-.021.026-.032.032-.021.01.016-.032.013-.034-.019-.01-.05.037-.12.03-.11-.011.009-.045-.018-.04-.069.016-.026.027-.034.032-.021.013.019-.029.01-.032-.045-.01-.049.018-.075.018-.089-.003-.013-.019-.008-.021.016-.008.024.013.03.01.016-.008-.026-.045-.069-.04-.069.008 0 .021-.013.04-.03.04-.013 0-.018-.01-.01-.027.01-.018-.005-.018-.05 0-.046.016-.073.016-.086-.005-.014-.019-.006-.021.018-.008.03.016.033.013.003-.016-.027-.03-.04-.024-.075.024-.03.043-.05.053-.072.035a.172.172 0 0 0-.059-.03.093.093 0 0 1-.04-.018c-.008-.011 0-.008.02.002.015.008.037.008.044-.005.02-.032-.074-.03-.096.003-.021.034-.155.042-.173.008-.011-.014-.003-.016.018-.003.024.013.03.01.016-.008-.026-.043-.069-.04-.069.003 0 .021-.035.034-.093.034-.051 0-.094-.01-.094-.024 0-.01.01-.016.024-.005.013.008.032.005.04-.008.005-.01-.01-.024-.04-.024-.027-.003-.05.01-.05.03 0 .047-.158.034-.19-.014-.019-.03-.024-.027-.024.008 0 .027-.014.048-.03.048-.013 0-.019-.016-.008-.035.014-.024.01-.024-.016 0-.03.027-.045.024-.085-.01-.046-.04-.054-.04-.075-.008-.03.048-.08.053-.13.016-.03-.022-.036-.022-.02.002.011.02.006.035-.008.035-.016 0-.029-.021-.029-.048 0-.035-.005-.037-.024-.008-.027.043-.19.064-.19.024 0-.013.011-.019.024-.008.014.008.032.005.04-.008.006-.01-.01-.024-.04-.024-.026-.003-.05.013-.05.035 0 .021-.014.037-.03.037-.013 0-.019-.01-.01-.027.01-.018-.006-.018-.051 0-.046.016-.072.016-.086-.005-.013-.019-.008-.021.016-.008.024.013.03.01.016-.008-.026-.045-.07-.04-.07.008 0 .021-.012.04-.029.04-.013 0-.018-.01-.01-.027.01-.018-.008-.018-.05 0-.057.02-.07.016-.07-.013 0-.021-.014-.04-.03-.04s-.024.016-.016.035c.01.026-.016.034-.107.03a.442.442 0 0 1-.133-.022c-.008-.008-.043-.003-.078.01-.05.02-.064.016-.064-.013 0-.048-.043-.053-.061-.005-.014.034-.12.042-.171.01-.013-.01-.035-.008-.045 0-.025.024-.147.032-.145.011 0-.008 0-.04-.002-.07-.006-.045-.011-.042-.046.02-.021.042-.045.074-.053.074S59.11.41 59.12.391c.014-.019.008-.021-.019-.005-.056.034-.101.037-.122.005-.008-.016-.003-.021.013-.01.016.007.035.007.043-.006.018-.032-.075-.03-.096.003-.017.026-.794.045-.791.018.002-.048-.01-.053-.046-.018-.045.045-.154.03-.128-.019.008-.016 0-.016-.021.003-.019.018-.075.034-.126.034-.064 0-.083-.01-.07-.034.017-.027.012-.027-.018 0a.128.128 0 0 1-.075.034c-.037 0-.037-.002-.002-.026.024-.016.027-.027.008-.027-.016 0-.04.01-.048.027-.008.013-.035.026-.056.026-.027 0-.032-.013-.022-.034.016-.024.014-.024-.019 0-.032.026-.048.026-.077 0-.024-.022-.03-.022-.016 0 .01.018 0 .026-.03.021a.153.153 0 0 1-.047-.013.287.287 0 0 0-.075-.016c-.043-.008-.07-.003-.064.01.008.011-.014.022-.048.022-.038 0-.056-.011-.046-.03.008-.013-.002-.01-.026.008-.025.019-.051.024-.06.011-.013-.024-.186-.019-.229.008-.013.008-.032.003-.04-.013-.013-.022-.03-.022-.053 0-.022.016-.043.018-.051.005-.016-.027-.235-.021-.28.005-.014.011-.033.008-.038-.005-.019-.024-.235-.024-.278.003-.016.01-.04.008-.048-.008-.01-.016-.053-.024-.096-.016-.043.005-.085 0-.094-.014-.008-.016-.029-.016-.045-.002-.04.026-.128.024-.176-.006-.03-.018-.032-.016-.016.014.018.032.016.032-.019.002-.027-.021-.05-.024-.059-.008-.018.027-.064.027-.115-.005-.016-.01-.037-.008-.045.005-.016.024-.037.024-.195-.008-.035-.008-.067-.002-.075.011-.008.013-.043.016-.075.005a.245.245 0 0 0-.098-.018.145.145 0 0 1-.078-.024c-.03-.024-.035-.022-.019.005.017.03.003.032-.061.024-.045-.008-.088-.005-.096.008-.008.01-.038.016-.064.008-.067-.016-.054-.102.016-.099.03.003.053-.01.053-.027 0-.032-.112-.037-.144-.008-.008.011-.032.006-.053-.013-.02-.016-.043-.021-.054-.01-.008.007-.002.015.016.015.019 0 .024.014.014.032-.011.016-.008.022.008.014.016-.01.042 0 .061.021.019.022.027.043.016.043-.064.013-.088.01-.12-.013-.027-.022-.035-.022-.024-.003.013.019-.043.03-.155.032-.123.003-.166-.005-.152-.027.013-.024.005-.021-.022 0-.03.024-.323.03-1.212.019C52.195.319 51.084.31 50.37.306 49.658.3 48.608.284 48.034.274c-1.44-.027-1.68-.03-3.475-.035-.87-.003-1.587-.01-1.595-.019C42.943.2 39.174.19 39.06.212Zm21.875.184c.008.014.002.027-.011.027-.016 0-.03-.013-.03-.027 0-.016.006-.026.011-.026.008 0 .022.01.03.026ZM66.21.46c0 .006-.019.02-.043.027-.021.008-.032.006-.024-.01.016-.027.067-.038.067-.017Zm-7.292 9.686c0 .106-.096.165-.13.074-.027-.075.015-.155.082-.155.035 0 .048.022.048.08Z" fill="#fff"/><path d="M87.639.8c-.01.011-.142.025-.288.027a1.778 1.778 0 0 0-.308.027.806.806 0 0 1-.173.032c-.072.008-.187.03-.254.046-.139.032-.267.056-.681.128a10.893 10.893 0 0 0-1.109.259c-.11.035-.304.093-.432.133-.131.038-.249.062-.267.051-.016-.01-.022-.008-.014.008.019.03-.4.177-.507.18-.032 0-.051.01-.043.026.01.013-.008.019-.04.01-.037-.01-.067-.002-.08.025-.013.021-.054.042-.091.042-.04.003-.064.014-.059.022.008.013-.179.083-.243.088a.158.158 0 0 0-.061.037c-.022.019-.048.027-.062.019-.013-.01-.024-.003-.024.01 0 .017-.016.03-.032.03-.05 0-1.012.478-1.303.646-.38.22-1.127.698-1.386.884-.842.604-1.838 1.531-2.466 2.295-.093.112-.261.315-.379.451a7.892 7.892 0 0 0-.385.49c-.096.133-.232.317-.304.408-.275.35-1.32 1.901-1.552 2.313-.099.17-.31.515-.467.761-.16.246-.39.625-.516.841-.123.217-.355.615-.515.882-.158.267-.369.625-.463.793a8.46 8.46 0 0 1-.221.374c-.024.037-.171.278-.326.534-.155.257-.363.596-.46.756a6.856 6.856 0 0 0-.176.297c0 .005-.136.25-.302.542-.165.291-.355.625-.419.742-.144.267-.443.783-.628 1.082-.074.126-.243.406-.374.628-.128.219-.28.473-.334.56-.055.089-.16.262-.232.388-.072.126-.213.355-.31.516a5.152 5.152 0 0 0-.179.299c0 .008-.093.173-.21.368-.115.193-.254.444-.31.553-.057.11-.198.369-.321.575a58.263 58.263 0 0 1-1.05 1.803c-.33.55-.692 1.156-.801 1.348l-.294.508c-.05.088-.17.315-.267.507-.096.19-.246.454-.334.588-.275.411-.526.847-.526.913 0 .083.126.358.288.63.129.209.422.749.612 1.112.048.093.128.238.176.32.051.083.174.3.273.484.101.184.342.609.537.948.451.788.563.988.718 1.282.07.131.142.26.16.28.02.022.11.18.203.348.091.168.252.451.356.627.101.177.272.47.376.655.105.184.291.502.412.708.123.205.336.577.475.828.371.66.593 1.052.81 1.429.106.184.333.585.507.894.17.308.43.772.572 1.029l.574 1.015c.173.302.376.654.448.788.075.13.286.505.47.828.185.323.393.697.465.828l.393.689c.142.246.395.694.566.996.169.302.409.719.535.927.125.206.344.593.483.857.31.583 1.1 1.974 1.237 2.18.056.08.213.35.352.6.289.519.476.848.967 1.697a177.915 177.915 0 0 1 1.725 3.045 41.767 41.767 0 0 0 .935 1.63c.062.087.521.897.81 1.418.125.23.318.566.427.747.11.182.251.428.313.545.101.19.446.79.868 1.523.074.13.203.342.28.467.195.313.353.58.628 1.082.128.235.328.582.44.774.26.441.43.732.626 1.069l.475.815a76.088 76.088 0 0 1 1.61 2.884c.348.66.85 1.56 1.256 2.244.382.64 1.039 1.757 1.223 2.083.184.323.663 1.138.78 1.336.305.502.409.673.5.81.056.082.096.165.085.183-.01.016-.008.022.008.014.016-.011.048.026.072.082.083.198-.03.182 1.392.206.705.01 1.354.024 1.442.03.088.002.692.008 1.344.008.774.002 1.18.01 1.18.029 0 .013.027.027.062.024.056 0 .056-.003.005-.024-.037-.016-.005-.021.096-.019.083.003.147.014.14.024-.006.014.015.019.05.016.035 0 .104.006.157.016.06.014.105.011.115-.005.008-.016-.005-.021-.034-.013-.027.008-.06 0-.067-.016-.014-.02.013-.03.077-.03.054 0 .091.01.083.024-.008.014.003.032.027.04.058.022.064.022.064-.018 0-.043.235-.046.262-.003.01.016.058.027.106.024.046-.003.086.005.086.019 0 .013.024.01.05-.006.03-.013.073-.018.094-.01.024.01.043.002.043-.016 0-.024.027-.027.088-.016.144.032.34.034.34.005 0-.016.013-.013.031.005.024.024.04.019.067-.016.022-.024.032-.032.024-.016-.021.046.07.072.096.032.014-.026.022-.021.022.014 0 .026.01.042.024.034.013-.01.032 0 .037.016.01.022.016.02.016-.01.003-.038.016-.04.083-.022.043.014.085.014.093 0 .016-.026.12-.002.12.032 0 .014.025.011.054-.005.04-.021.053-.021.053.005 0 .024.008.024.022.006.024-.038.139-.067.139-.032 0 .013.013.016.026.008.016-.008.027 0 .027.018 0 .027.005.027.024 0 .024-.04.166-.034.195.008.014.016.022.014.022-.008 0-.016.018-.032.042-.032.022 0 .032.011.024.027-.008.013-.002.027.011.027.016 0 .03-.014.03-.027 0-.032.058-.024.085.013.013.016.021.014.021-.01 0-.03.008-.03.046 0 .037.032.042.032.021 0-.016-.03-.01-.035.03-.019.1.04.224.05.224.019 0-.019.013-.024.026-.016.016.01.022.024.016.034-.005.011.043.02.107.02s.118-.014.12-.028c0-.016.011-.002.022.025.019.05.021.05.072 0 .064-.062.166-.08.115-.022-.043.05-.011.048.04-.005.027-.027.043-.03.043-.01 0 .02.024.026.064.015.048-.01.075-.003.093.03.024.042.027.042.03-.014 0-.045.016-.059.069-.059.043 0 .061.011.048.032-.013.02-.008.022.016.008a.041.041 0 0 1 .056.016c.019.03.024.024.024-.016 0-.029.011-.042.022-.026.01.013.056.026.098.026.046 0 .089-.013.099-.026.014-.016.022-.01.022.013 0 .024.026.04.066.04.083 0 .083-.008.008-.04-.058-.021-.056-.024.014-.019.04.003.072.02.072.04 0 .027.021.032.088.017a.744.744 0 0 1 .12-.02c.016 0 .032-.01.032-.023 0-.038.104-.024.174.021.035.024.075.035.091.027.013-.008.032 0 .037.016.011.024.016.024.016.002.003-.018.035-.023.086-.016.053.008.077.003.066-.016-.01-.013-.04-.02-.066-.016-.027.006-.048-.008-.048-.029 0-.027.01-.03.034-.008.022.016.038.016.048 0 .008-.013.04-.019.07-.01.029.007.045.023.037.037-.008.013.011.026.04.026l.091.008c.016.003.04.014.051.03.013.016.021.016.021-.003 0-.016.019-.03.04-.03.022 0 .04.011.04.025 0 .035.161-.056.161-.094.002-.016.018.008.042.06.046.106.078.095.038-.014-.03-.075-.03-.075.024-.024.037.032.056.037.056.013 0-.027.008-.027.037-.003.027.022.043.025.056.003.008-.013.04-.027.072-.027.046 0 .049.006.022.04-.03.035-.04.035-.056.008-.019-.026-.024-.024-.024.011 0 .054.04.064.066.019.011-.016.038-.022.059-.013.022.007.03.002.022-.011-.008-.016-.006-.027.01-.027.014 0 .04.022.054.046.026.045.026.045.029 0 0-.03.013-.04.029-.03a.04.04 0 0 0 .049-.013c.013-.019.037-.014.077.024.032.032.059.04.059.024s-.022-.048-.046-.067c-.04-.03-.029-.03.072-.008a.445.445 0 0 1 .147.053c.04.04.067.027.051-.024-.011-.032-.008-.034.008-.01.013.018.046.026.07.016.024-.008.045-.006.045.01 0 .014.037.025.08.022.046-.003.08.005.08.019 0 .013.016.018.035.01.016-.005.029-.03.024-.048-.003-.021.011-.016.035.014.037.05.04.05.099 0 .056-.051.056-.051.04.002-.019.05-.016.05.018.005.038-.048.04-.048.07 0 .026.043.029.04.018-.023-.005-.04 0-.067.011-.06.014.009.024.035.024.06.003.042.003.042.035 0 .032-.04.037-.04.067 0 .024.031.029.031.018.005-.01-.022.003-.016.024.01.043.054.043.054.046 0 0-.026.008-.037.013-.018.008.019.032.024.054.016.018-.008.032-.022.024-.032-.016-.03.155 0 .195.03.021.018.032.018.032-.004 0-.016.018-.029.042-.029.022 0 .032-.013.024-.027-.008-.013-.002-.026.011-.026.016 0 .03.016.03.032 0 .024.01.021.029-.006.024-.032.027-.029.016.016-.011.046-.003.054.037.046.03-.008.051-.027.051-.04 0-.014-.011-.016-.027-.008-.013.008-.026.005-.026-.008 0-.014.045-.024.101-.024.07-.003.083.002.04.016-.091.024-.035.07.086.07.058 0 .115-.014.125-.028.014-.016.022-.013.022.006s.018.026.04.019c.021-.011.04-.035.04-.054 0-.032.008-.032.037-.005.027.024.029.04.005.053-.018.013-.013.021.019.021.027 0 .046-.018.046-.048 0-.032.021-.045.066-.045.038 0 .067.008.067.016s.142.013.315.008c.222-.005.334.003.388.03.04.02.066.023.058.01-.01-.013-.002-.024.011-.024.016 0 .029.013.029.032 0 .016.019.013.048-.013.049-.046.281-.054.254-.01-.005.01-.021.013-.034.004-.014-.008-.03-.002-.041.014-.01.016.011.024.051.021.04-.002.07-.019.07-.035 0-.02.256-.032.894-.032.751 0 .895.006.895.038 0 .021.022.034.048.03a.151.151 0 0 1 .078.013c.016.01.037.007.048-.009.016-.024-.038-.037-.112-.029-.019.003-.035-.005-.035-.019 0-.013.091-.024.2-.02.142.002.201.012.201.034 0 .019.018.034.042.034.032 0 .038-.008.016-.034-.024-.027-.008-.035.064-.035.049 0 .091.013.091.03 0 .015.03.029.064.029.038 0 .059-.01.054-.022-.008-.013-.024-.016-.038-.008-.013.008-.029.006-.037-.008-.005-.01.029-.02.077-.02.065 0 .083.01.067.028-.018.022 0 .032.067.032.051 0 .085-.01.077-.02-.005-.014-.029-.017-.05-.006-.022.008-.04.002-.04-.01 0-.014.042-.025.093-.025.059 0 .094.013.094.035 0 .019.018.034.042.034.022 0 .035-.01.027-.02-.008-.014.003-.025.024-.025s.032.008.027.019c-.006.01.005.019.027.019.021 0 .032-.011.024-.022-.006-.01 0-.03.016-.037.016-.01.024-.003.021.016-.005.019.013.04.043.045.032.008.042 0 .029-.021-.016-.024-.008-.024.035-.003.067.038.115.038.059.003-.035-.022-.033-.027.008-.027.024 0 .045.01.045.024s.099.024.222.024c.494-.005 1.063.014 1.076.035a.059.059 0 0 0 .045.024c.022 0 .019-.008-.005-.024-.027-.016-.008-.024.056-.024.051 0 .11.01.128.021.022.014.059.01.083-.003.032-.016.054-.013.064.003.014.022.03.019.056-.003.03-.024.038-.024.038 0 0 .022.013.025.051.006.026-.016.056-.022.066-.01a.28.28 0 0 0 .115.018.428.428 0 0 1 .136.024c.019.013.032.008.032-.008s.011-.021.027-.013c.014.008.123.016.241.018.117 0 .208.011.2.019-.005.01.013.019.04.019.027 0 .045-.008.04-.016-.005-.008.075-.016.176-.016.158-.003.177.002.137.032-.041.032-.041.032.016.018.032-.008.058-.024.058-.037 0-.013.024-.024.054-.024.029 0 .053.016.053.032 0 .027.008.024.024-.003.019-.026.035-.03.083-.002.04.021.053.021.043.002-.014-.018.01-.03.064-.03.048 0 .077.012.067.028-.008.013-.003.026.01.026.016 0 .03-.01.03-.024 0-.013.069-.024.157-.024a.78.78 0 0 0 .179-.01.505.505 0 0 1 .131-.016c.059 0 .289-.014.508-.032.395-.03.52-.046 1.145-.158.174-.032.366-.059.428-.064a.506.506 0 0 0 .139-.024c.034-.022.179-.059.505-.131.451-.096.697-.171 1.148-.342.147-.056.315-.118.374-.136.208-.064 1.154-.492 1.643-.743.67-.342.991-.529 1.402-.814.32-.222 1.156-.858 1.354-1.029.791-.68 1.731-1.624 2.15-2.16.388-.492.847-1.168 1.117-1.638.197-.345.71-1.386.868-1.763.59-1.405.956-2.786 1.092-4.127.078-.753.134-1.864.118-2.283a15.936 15.936 0 0 0-.454-3.272 8.51 8.51 0 0 1-.102-.454.883.883 0 0 0-.037-.131.225.225 0 0 1-.019-.115c.008-.021.003-.03-.011-.021-.032.021-.064-.107-.037-.153.011-.018.011-.026-.003-.016-.026.027-.125-.19-.109-.235.008-.018.003-.037-.008-.042-.021-.008-.203-.494-.203-.543a.063.063 0 0 0-.021-.042c-.014-.011-.027-.048-.027-.086-.003-.037-.011-.064-.019-.058-.008.005-.04-.051-.072-.123-.032-.072-.045-.131-.032-.131.016 0 .008-.019-.013-.043-.024-.021-.038-.053-.03-.067.011-.013.003-.024-.01-.024-.017 0-.03-.019-.03-.043a.274.274 0 0 0-.056-.12.433.433 0 0 1-.061-.115.329.329 0 0 0-.051-.104.398.398 0 0 1-.051-.136c-.003-.037-.013-.061-.024-.053-.011.005-.032-.03-.051-.078a3.305 3.305 0 0 0-.082-.181.475.475 0 0 1-.051-.142c0-.024-.008-.043-.022-.043a.876.876 0 0 1-.109-.195c-.104-.224-.104-.224-.238-.478-.059-.107-.187-.352-.286-.542-.328-.628-.633-1.2-.734-1.376-.379-.66-.641-1.114-.753-1.322a9.79 9.79 0 0 0-.209-.36c-.04-.067-.149-.254-.24-.414-.094-.163-.219-.382-.283-.486a2.375 2.375 0 0 1-.118-.209.856.856 0 0 0-.072-.128 71.93 71.93 0 0 1-.889-1.555 46.297 46.297 0 0 0-.989-1.71c-.157-.258-.4-.699-.408-.742a.284.284 0 0 0-.051-.082c-.027-.03-.048-.07-.048-.089 0-.018-.011-.034-.024-.034-.013 0-.032-.019-.04-.043-.014-.032-.008-.037.019-.021.018.013.01.002-.016-.022a.252.252 0 0 1-.059-.08c-.024-.099-.048-.155-.07-.155-.013 0-.048-.05-.077-.115-.032-.064-.04-.09-.016-.061.024.03.048.045.059.037.008-.01-.022-.042-.067-.077-.046-.035-.083-.083-.083-.11 0-.026-.011-.048-.027-.048-.013 0-.026-.013-.026-.03a.307.307 0 0 0-.057-.109c-.032-.042-.048-.085-.04-.093.008-.01.016-.003.016.013 0 .019.016.032.035.032.016-.002-.002-.03-.045-.064-.043-.035-.07-.075-.059-.09.008-.017-.003-.046-.024-.067-.021-.024-.04-.056-.04-.072 0-.017-.011-.022-.027-.014-.024.016-.037-.021-.029-.075 0-.01-.011-.018-.027-.018-.013 0-.021-.011-.011-.024.008-.014-.005-.043-.026-.065-.022-.024-.04-.053-.04-.066 0-.016-.008-.032-.019-.038-.024-.008-.091-.122-.16-.27-.027-.053-.056-.098-.067-.098-.013 0-.021-.019-.021-.043 0-.024-.014-.032-.03-.021-.019.01-.027.002-.019-.019.008-.021-.026-.102-.077-.179a.78.78 0 0 1-.088-.168c0-.016-.011-.022-.024-.014-.014.008-.03-.008-.038-.037-.008-.03-.002-.048.011-.037.059.034.016-.046-.045-.086-.038-.024-.062-.061-.054-.08.008-.019-.005-.048-.026-.064-.022-.019-.038-.045-.038-.059a.312.312 0 0 0-.056-.107c-.032-.042-.048-.085-.04-.093.008-.01.016 0 .016.019 0 .018.008.026.019.018.008-.01-.016-.048-.056-.085-.04-.038-.064-.08-.054-.096.008-.017.006-.038-.008-.048-.056-.038-.144-.195-.131-.23.008-.022.003-.038-.013-.032-.029.005-.275-.39-.422-.676a7.857 7.857 0 0 0-.208-.374c-.072-.126-.219-.374-.326-.556a9.767 9.767 0 0 0-.241-.4 28.957 28.957 0 0 1-.617-1.1 13.692 13.692 0 0 0-.293-.508 52.512 52.512 0 0 1-.455-.775 63.132 63.132 0 0 0-.945-1.592 27.22 27.22 0 0 1-.524-.905c-.101-.184-.379-.697-.507-.935a13.56 13.56 0 0 0-.23-.403 2.066 2.066 0 0 1-.144-.265c0-.013-.016-.043-.037-.064a2.543 2.543 0 0 1-.147-.254 30.22 30.22 0 0 0-.537-.964c-.024-.03-.387-.662-.529-.921a4.522 4.522 0 0 0-.136-.24 1.712 1.712 0 0 1-.094-.174 2.26 2.26 0 0 0-.149-.267 42.616 42.616 0 0 1-.847-1.47 32.15 32.15 0 0 0-.614-1.068 24.407 24.407 0 0 1-.583-1.002 312.56 312.56 0 0 0-1.103-1.936 62.814 62.814 0 0 1-.526-.948c-.561-1.031-.633-1.157-.742-1.336a86.423 86.423 0 0 1-1.034-1.803c-.136-.25-.27-.483-.294-.52a13.06 13.06 0 0 1-.334-.615c-.16-.302-.379-.705-.489-.895l-.44-.76c-.131-.228-.329-.572-.441-.762-.11-.192-.251-.438-.31-.548a5.515 5.515 0 0 0-.16-.272c-.027-.04-.038-.088-.027-.104.011-.019.008-.024-.008-.016-.013.008-.051-.03-.08-.083l-.168-.3a66.03 66.03 0 0 1-.444-.8c-.09-.169-.315-.556-.494-.86l-.486-.815a24.235 24.235 0 0 0-.283-.476c-.072-.114-.126-.221-.12-.232.008-.01.002-.021-.008-.021-.043 0-.548-.799-.526-.831.01-.019.008-.024-.006-.016-.026.016-.419-.558-.419-.614 0-.02-.011-.027-.024-.02-.011.009-.022 0-.022-.018 0-.016-.021-.05-.05-.075a.687.687 0 0 1-.11-.15 3.751 3.751 0 0 0-.368-.501c-.051-.06-.083-.12-.075-.142.008-.021.005-.035-.008-.027-.022.016-.139-.098-.179-.176-.072-.133-1.293-1.4-1.536-1.59-.072-.055-.123-.117-.118-.135.006-.016-.005-.032-.026-.032-.056 0-.23-.16-.209-.195.009-.014.003-.02-.01-.011-.032.021-.225-.158-.214-.2.003-.016-.024-.032-.059-.035-.037-.003-.072-.019-.077-.037-.005-.017-.021-.025-.035-.014-.013.008-.024 0-.024-.016s-.013-.021-.03-.01c-.018.01-.023 0-.013-.035.016-.054-.045-.102-.157-.123-.03-.005-.051-.024-.046-.043.003-.019-.005-.027-.021-.016-.013.008-.027.005-.027-.008 0-.013-.024-.032-.056-.04-.037-.01-.048-.027-.035-.05.011-.02.011-.027-.002-.017-.027.027-.144-.037-.249-.136a.97.97 0 0 0-.2-.134 1.413 1.413 0 0 1-.179-.112c-.037-.03-.05-.045-.03-.034.025.013.033.008.02-.014-.011-.016-.03-.024-.043-.016-.032.019-.163-.067-.147-.093.016-.027-.064-.06-.096-.038-.014.008-.022 0-.019-.018.005-.02-.005-.035-.019-.038-.067-.002-.25-.104-.235-.128.008-.016.003-.019-.013-.008-.04.024-.139-.03-.131-.072.003-.019-.013-.03-.035-.027-.053.008-.47-.222-.462-.256.005-.016-.01-.022-.035-.01-.024.007-.037 0-.032-.022.006-.024-.018-.04-.058-.043-.153-.008-.15-.008-.11-.032.027-.016.01-.03-.053-.043a.998.998 0 0 1-.185-.061.564.564 0 0 0-.112-.038c-.013.003-.021-.005-.021-.021 0-.013-.019-.027-.04-.027-.022 0-.04-.013-.04-.03 0-.02-.011-.02-.038 0-.026.022-.042.022-.066-.004-.016-.022-.02-.049-.008-.06.01-.013-.003-.013-.027-.005-.027.008-.075-.008-.12-.042a.321.321 0 0 0-.08-.054c-.006.006-.011.008-.014.006l-.061-.011c-.03-.005-.056-.021-.062-.037-.005-.014-.03-.02-.05-.011-.035.013-.04.005-.027-.032.016-.04.013-.043-.022-.014-.032.027-.04.027-.04 0 0-.018-.018-.026-.04-.018-.021.01-.045.005-.053-.01-.01-.014-.03-.02-.043-.012-.013.011-.024.003-.024-.013 0-.019-.016-.027-.032-.019-.019.006-.061-.013-.093-.042a.28.28 0 0 0-.131-.062.521.521 0 0 1-.177-.05c-.013-.006-.024-.009-.026-.011a.233.233 0 0 0-.075-.019.234.234 0 0 1-.093-.043c-.02-.021-.017-.024.01-.008.027.016.032.011.019-.01a.05.05 0 0 0-.059-.02c-.021.009-.072 0-.112-.015l-.09-.035-.036-.013c-.018-.01-.04-.014-.152-.038-.056-.013-.101-.032-.101-.048 0-.013-.011-.018-.027-.008-.014.008-.07-.002-.123-.026a1.017 1.017 0 0 0-.155-.051 4.782 4.782 0 0 1-.497-.12.09.09 0 0 0-.045-.022 4.59 4.59 0 0 1-.12-.024l-.115-.021a.258.258 0 0 1-.054-.019c-.013-.01-.048-.013-.074-.01a.985.985 0 0 1-.227-.03 6.553 6.553 0 0 0-.273-.053l-.4-.064a8.277 8.277 0 0 0-.842-.097 3.604 3.604 0 0 1-.32-.037c-.131-.03-2.62-.027-2.65.003Zm10.676 3.043c0 .013-.005.027-.01.027-.009 0-.022-.014-.03-.027-.008-.016-.003-.027.01-.027.017 0 .03.011.03.027Zm1.854 68.853c.008.013-.003.024-.024.024-.022 0-.032-.01-.024-.024.008-.01.018-.021.024-.021.005 0 .016.01.024.021Zm1.252.019c-.008.024-.021.037-.026.03-.008-.009-.006-.025.005-.04.024-.044.04-.036.021.01Zm.884-.019c.008.013-.002.024-.024.024-.021 0-.032-.01-.024-.024.008-.01.019-.021.024-.021.006 0 .016.01.024.021Zm.227.013c.035-.01.035-.005-.005.02-.051.031-.099.015-.099-.036 0-.021.008-.021.03 0 .016.016.05.024.074.016Zm2.765-.01c.008.01-.032.021-.091.018-.059-.002-.107-.01-.107-.024 0-.026.182-.024.198.006Zm-4.939.03c.008.012.003.026-.01.026-.016 0-.03-.014-.03-.027 0-.016.006-.027.011-.027.008 0 .021.011.029.027Zm1.475-.012c-.008.008-.032.011-.051.003-.021-.008-.013-.016.016-.016.029-.003.045.005.035.013Zm2.158.008c.008.014.003.032-.013.043-.014.008-.027-.002-.027-.024 0-.048.016-.056.04-.019Z" fill="#fff"/><path d="M122.682 71.094c-.112.059-.464.3-.51.345a.639.639 0 0 1-.115.075c-.042.023-.077.05-.077.064 0 .013-.056.05-.126.085a.672.672 0 0 0-.154.094c-.03.037-.679.41-.711.41-.011 0-.037.017-.056.036a.662.662 0 0 1-.142.082c-.058.027-.216.102-.347.166a1.617 1.617 0 0 1-.288.118c-.024 0-.046.01-.046.026 0 .014-.008.024-.018.024-.051-.008-.091.008-.161.064-.061.054-.363.166-.512.195a.093.093 0 0 0-.057.038c-.01.018-.026.03-.037.026-.029-.01-.401.113-.441.145-.032.021-.034.021-.018-.006.013-.021-.014-.013-.07.016-.173.094-.558.206-1.797.53-.206.05-.465.117-.575.146-.272.07-.846.155-1.252.184-.185.017-.481.04-.657.056-.177.016-.495.038-.708.049-.457.021-5.308.013-6.063-.008-.286-.011-1.074-.024-1.75-.032a35.261 35.261 0 0 1-1.309-.03 57.703 57.703 0 0 0-1.349-.024 139.79 139.79 0 0 1-1.829-.024c-.673-.016-.604-.016-.815-.013-.681.008-4.874-.038-4.874-.054 0-.005-2.076-.021-3.879-.03-1.017-.004-1.85-.018-1.85-.031 0-.01-.014-.014-.033-.003a.426.426 0 0 1-.165.014c-.32-.011-1.248-.025-2.153-.03-.572-.002-.954-.013-.922-.026.038-.017-.002-.025-.128-.025a.802.802 0 0 1-.238-.032c-.04-.021-.05-.021-.037 0 .013.02-.003.03-.037.03-.032 0-.049-.014-.04-.027.008-.016.002-.027-.011-.027-.016 0-.03.022-.03.022 0 .037-1.199.013-1.242-.022-.032-.026-.04-.026-.04.003 0 .03-.042.035-.205.024-.115-.008-.214-.005-.217.005-.005.014-.018.016-.032.008-.01-.008-.7-.018-1.528-.026a1345.495 1345.495 0 0 0-7.447-.053 217.061 217.061 0 0 1-3.191-.03c-.131-.008-.895-.016-1.696-.021-1.758-.011-1.638-.008-1.614-.051.017-.027.011-.027-.018 0-.019.021-.104.034-.198.034-.093 0-.179-.013-.198-.034-.02-.016-.029-.022-.02-.006.007.016-.036.03-.105.032-.083.003-.112-.005-.102-.026.014-.022.006-.019-.018 0-.046.042-.184.045-.184.002 0-.024-.008-.024-.033 0-.037.038-.112.043-.09.008.008-.013 0-.037-.022-.053-.026-.024-.043-.021-.07.01-.037.046-.09.027-.06-.02.01-.022.002-.02-.025.002-.032.024-.048.027-.061.005-.014-.021-.035-.016-.07.016-.048.043-.064.035-.053-.026.003-.014-.01-.011-.035.008-.026.024-.042.024-.056.002-.013-.021-.035-.016-.07.016-.045.04-.063.035-.053-.024 0-.01-.008-.018-.021-.018-.013 0-.03.026-.035.058-.008.056-.01.056-.048.008-.021-.026-.026-.042-.01-.032.016.008.029-.002.029-.024 0-.029-.016-.024-.059.016-.05.048-.064.051-.09.016-.03-.034-.027-.04.015-.029.032.005.054-.005.054-.03 0-.026-.01-.029-.038-.007-.026.024-.034.021-.034-.006-.003-.026-.008-.024-.027.008-.03.051-.126.046-.112-.008.008-.026 0-.026-.032.003-.046.035-.056.059-.022.045.011-.002.022.003.027.014.013.048.003.053-.037.018-.043-.034-.18-.058-.158-.026.008.016-.286.018-.3.002-.015-.016-.077-.016-.1 0-.035.022-.073.02-.118-.01-.03-.019-.032-.016-.016.013.019.032.016.032-.019.003-.027-.022-.05-.024-.059-.008-.018.03-.066.024-.12-.008-.03-.019-.032-.016-.016.013.019.03.016.032-.019.005-.02-.018-.048-.026-.058-.016-.027.03-.096.032-.096.006 0-.014-.014-.024-.03-.024-.013 0-.018.016-.008.032.016.026.014.026-.021.002-.022-.018-.048-.026-.059-.016-.027.03-.096.032-.096.006 0-.014-.013-.024-.03-.024-.013 0-.02.01-.013.021.008.013-.003.024-.024.024s-.032-.01-.024-.024c.008-.01-.005-.021-.03-.021-.026 0-.034-.014-.023-.032.01-.02.008-.022-.014-.011-.024.016-.024.03-.002.056.024.027.018.035-.02.03-.026-.006-.047-.022-.047-.038a.077.077 0 0 0-.019-.048c-.01-.008-.016.008-.008.037.01.064-.027.102-.056.056-.013-.021-.008-.024.016-.01.024.016.03.01.016-.011-.016-.024-.032-.024-.067.008-.04.037-.05.037-.093-.005-.03-.024-.043-.032-.035-.016.008.016 0 .03-.021.03-.022 0-.03-.014-.022-.028.011-.016.003-.018-.021-.002-.053.032-.104.037-.104.008 0-.014-.014-.024-.03-.024-.013 0-.018.016-.008.032.017.026.014.026-.02.002-.022-.018-.049-.026-.06-.016-.026.03-.099.032-.08.006.008-.014.024-.019.035-.014.01.008.021-.002.021-.021 0-.024-.016-.027-.061-.005-.032.016-.054.04-.043.056.008.013-.003.01-.027-.008-.032-.024-.048-.027-.061-.006-.013.022-.03.02-.062-.005-.026-.021-.034-.021-.023-.003.018.032-.046.032-.078 0-.01-.01-.037-.002-.059.016-.034.027-.037.024-.018-.008.018-.034.016-.034-.02-.005-.031.024-.047.027-.06.005-.011-.016-.033-.018-.049-.005a.138.138 0 0 1-.072.019.246.246 0 0 0-.099.018c-.037.011-.066.008-.077-.01-.01-.016-.008-.022.01-.011.017.008.035.005.043-.005.008-.014-.018-.022-.058-.016a.249.249 0 0 0-.073.01.254.254 0 0 1-.072.011c-.04.005-.066-.003-.058-.016.008-.01-.006-.021-.03-.021s-.037.01-.03.021c.006.01-.029.021-.077.021s-.082-.01-.077-.021c.016-.024-.158-.01-.203.019-.024.016-.03.01-.013-.014.016-.026.008-.032-.035-.021-.064.019-.104-.019-.056-.048.021-.013.024-.008.01.016-.013.024-.01.03.011.016.016-.01.024-.032.016-.045-.021-.033-.03-.033-.08.02-.048.049-.2.07-.2.03 0-.013.016-.016.034-.005.016.01.024.01.014-.003-.01-.01-.01-.034.005-.05.016-.022.003-.032-.048-.035-.064-.003-.064-.003-.019.019.046.018.046.024.008.024-.029.002-.04.016-.032.04.019.048-.144.04-.176-.008-.013-.027-.021-.024-.032.002-.019.046-.152.043-.179-.002-.019-.027-.024-.027-.035.002-.016.038-.33.048-.39.014-.016-.011-.034-.008-.045.005-.008.019-.04.019-.08.003-.035-.014-.07-.016-.078-.006-.005.011-.112.019-.235.016a80.863 80.863 0 0 0-.814-.01c-.329-.003-.596-.014-.596-.027s-.037-.01-.08.005c-.059.019-.09.019-.118-.002-.018-.016-.04-.024-.045-.02-.005.006-.046.017-.086.028-.058.013-.072.01-.056-.016.016-.03.014-.03-.021 0-.024.018-.048.024-.056.013-.016-.024-.345-.024-.385 0a.04.04 0 0 1-.045 0c-.01-.01-.393-.021-.852-.021-.753-.006-2.757-.035-3.464-.054-.28-.008-2.762-.03-5.877-.053-.919-.008-2.318-.019-3.111-.027-.794-.008-2.487-.021-3.767-.03-1.276-.007-2.329-.023-2.337-.034-.018-.024-.133-.024-.117.003.008.01-.006.021-.027.021-.021 0-.045-.01-.053-.021-.006-.011-.128-.02-.267-.02-.145.004-.257-.007-.257-.02 0-.016-.013-.016-.032 0-.053.037-.812.02-.801-.02.003-.015-.005-.023-.021-.013-.016.008-.022.025-.016.035.005.01-.118.016-.273.016a1.627 1.627 0 0 0-.345.019c-.032.01-.064.013-.072.003-.016-.027-.203-.008-.203.018 0 .04-.08.019-.082-.021 0-.035-.006-.035-.016-.005a2.946 2.946 0 0 1-.155.253c-.075.12-.22.36-.32.537-.337.59-.604 1.04-.914 1.533-.171.267-.452.743-.628 1.055-.176.31-.438.762-.582 1.005a47.3 47.3 0 0 0-.414.72c-.24.439-.561.995-.81 1.403l-.406.668c-.099.16-.253.414-.347.56-.09.148-.382.642-.64 1.096-.263.457-.65 1.111-.861 1.456-.214.344-.508.825-.654 1.068-.147.243-.329.54-.404.66-.075.12-.28.475-.46.788-.18.312-.346.598-.373.635a7.183 7.183 0 0 0-.174.308c-.07.13-.208.37-.307.534-.181.299-.219.366-.823 1.456-.19.344-.416.729-.499.852-.083.125-.2.323-.259.44a9.43 9.43 0 0 1-.3.534c-.4.674-.654 1.106-.777 1.339a36.17 36.17 0 0 0-.793 1.597c-.443 1.058-.598 1.496-.678 1.915l-.064.267c-.126.497-.163.681-.227 1.052a5.157 5.157 0 0 0-.067.503c0 .058-.01.125-.024.15-.013.023-.037.2-.056.392-.016.19-.043.395-.056.454-.043.19-.06.518-.062 1.189 0 .665.035 1.119.145 1.896l.066.507c.03.254.251 1.226.363 1.603.177.58.513 1.528.706 1.987.25.588.734 1.531.919 1.79.082.12.184.27.224.336.037.067.136.179.219.251.371.321 1.28 1.48 1.498 1.918.294.574 2.364 2.252 3.63 2.941 1.274.689 2.388 1.156 3.406 1.424.43.114.921.216 1.509.315.36.061.462.077.507.083.03.005.06.01.067.013.008.003.024.005.035.003.01-.003.045.01.077.026.04.022.048.022.038 0-.011-.016 0-.029.024-.029.026 0 .037.013.024.032-.016.027-.01.027.018 0 .04-.035.115-.045.094-.011-.008.014.003.024.024.024s.032-.01.024-.024c-.008-.01.005-.021.027-.021.021 0 .048.013.059.032.013.019.008.021-.017.008-.024-.013-.029-.011-.016.011.014.021.032.024.054.005.05-.043.152-.024.136.024-.01.029-.003.027.024-.008.035-.045.15-.061.187-.027.01.014.032.024.046.024.013.003.026.006.031.011.025.021.102.016.118-.005.008-.016.003-.022-.013-.011-.016.008-.035.005-.043-.008-.019-.029.035-.024.088.008.027.016.032.013.019-.008-.016-.021.008-.029.077-.024.056.003.107.021.115.043.01.029.016.029.038 0 .018-.027.029-.027.04-.003.005.019.024.035.037.035.016 0 .019-.014.01-.027-.018-.032-1.404-.029 28.393-.029 12.327 0 22.608.008 22.85.016.244.01.455.016.468.016.225 0 .89-.032 1.189-.056.288-.024.387-.024.395 0 .008.021.022.018.043-.008.016-.019.155-.065.31-.097 1.25-.272 3.365-1.367 4.74-2.457 1.016-.804 2.143-2.051 2.998-3.315a42.144 42.144 0 0 0 1.477-2.39c.141-.251.352-.617.467-.815l.395-.681c.5-.863 1.526-2.591 2.11-3.552a79.626 79.626 0 0 0 1.368-2.35c.131-.236.323-.572.427-.749.211-.355.66-1.13.775-1.335l.379-.695c.171-.307.382-.675.47-.814.203-.324.489-.804 1.021-1.723.144-.251.366-.628.494-.842.128-.213.272-.459.32-.547a41.45 41.45 0 0 1 .85-1.429c.339-.537.806-1.317 1.105-1.843.147-.256.332-.569.409-.695.206-.336.601-.998.876-1.468.131-.227.404-.684.601-1.015 1.09-1.809 1.191-1.974 1.541-2.511.091-.14.235-.374.321-.521.358-.612.598-1.012.855-1.416.368-.58.633-1.017 1.015-1.682.403-.698.825-1.421 1.087-1.857.109-.184.256-.435.328-.56.072-.126.217-.372.321-.548.107-.176.237-.404.296-.502.056-.102.134-.235.171-.3.038-.064.078-.128.091-.138.013-.014.016-.006.003.016-.014.026-.011.032.01.018.016-.01.024-.032.016-.045-.01-.013.043-.123.115-.246.072-.12.182-.312.246-.425.064-.114.128-.197.142-.19.016.009.018.004.008-.013-.011-.018.056-.16.152-.32.096-.158.197-.329.227-.38.027-.05.133-.232.232-.4.102-.168.203-.35.233-.4a.473.473 0 0 1 .082-.12.144.144 0 0 0 .038-.057 9.22 9.22 0 0 1 .358-.625l.077-.133.12-.2c.038-.06.086-.145.11-.193a.473.473 0 0 1 .08-.118c.021-.016.037-.042.037-.056 0-.016.038-.08.08-.147a.724.724 0 0 0 .081-.13c0-.008.04-.097.088-.193.139-.275.2-.486.144-.486a.387.387 0 0 0-.118.048ZM66.637 73.52c0 .022-.05.035-.064.016-.008-.013.003-.024.024-.024s.04.006.04.008Zm.427 0c0 .022-.05.035-.064.016-.008-.013.003-.024.024-.024.022 0 .04.006.04.008Zm.214.016c0 .011-.01.022-.024.022a.055.055 0 0 1-.04-.022c-.008-.013.002-.024.024-.024.021 0 .04.011.04.024Zm.398.003c.021.027.019.038-.01.038-.022 0-.04-.016-.04-.038 0-.019.004-.035.01-.035.005 0 .024.016.04.035Zm.214.003c.029.037.016.04-.073.019-.01-.003.022-.057.033-.057.005 0 .024.016.04.038Zm.192.024c-.035.035-.07.008-.043-.032.008-.016.03-.022.046-.014.016.011.016.027-.003.046Z" fill="#fff"/></svg>