<svg width="32" height="29" fill="none" xmlns="http://www.w3.org/2000/svg"><g clip-path="url(#a)" fill="#61DAFB"><path d="M32 14.27c0-2.12-2.655-4.128-6.725-5.374.94-4.148.522-7.449-1.317-8.506-.424-.247-.92-.365-1.461-.365V1.48c.3 0 .541.058.743.17.887.508 1.272 2.445.972 4.937-.072.613-.19 1.259-.332 1.917a31.666 31.666 0 0 0-4.142-.71 31.78 31.78 0 0 0-2.714-3.262c2.127-1.976 4.122-3.059 5.479-3.059V.019c-1.794 0-4.142 1.278-6.516 3.496C13.613 1.31 11.264.045 9.471.045v1.454c1.35 0 3.352 1.077 5.479 3.04a30.817 30.817 0 0 0-2.694 3.255c-1.474.156-2.87.397-4.148.717a19.677 19.677 0 0 1-.34-1.891c-.306-2.492.072-4.43.953-4.945.195-.117.45-.17.75-.17V.052c-.548 0-1.044.118-1.474.365-1.833 1.057-2.244 4.351-1.298 8.487C2.642 10.155 0 12.157 0 14.27c0 2.12 2.655 4.128 6.725 5.374-.94 4.149-.522 7.45 1.318 8.506.423.248.919.365 1.467.365 1.794 0 4.142-1.278 6.516-3.496 2.374 2.205 4.723 3.47 6.516 3.47.548 0 1.044-.117 1.474-.365 1.833-1.057 2.244-4.35 1.298-8.486C29.358 18.393 32 16.384 32 14.27Zm-8.492-4.35a29.333 29.333 0 0 1-.881 2.576 35.073 35.073 0 0 0-1.794-3.092c.927.137 1.82.307 2.675.516Zm-2.988 6.947a34.33 34.33 0 0 1-1.572 2.491 33.858 33.858 0 0 1-5.883.007 34.006 34.006 0 0 1-2.935-5.075 34.756 34.756 0 0 1 2.922-5.094 33.858 33.858 0 0 1 5.883-.007c.56.805 1.087 1.632 1.579 2.48.489.845.942 1.71 1.356 2.595a36.52 36.52 0 0 1-1.35 2.603Zm2.107-.848c.342.85.643 1.716.9 2.596a29.28 29.28 0 0 1-2.687.521 35.949 35.949 0 0 0 1.787-3.117Zm-6.614 6.96A26.878 26.878 0 0 1 14.2 20.89a40.5 40.5 0 0 0 1.793.046c.614 0 1.22-.013 1.814-.046a25.465 25.465 0 0 1-1.794 2.087Zm-4.853-3.843a29.4 29.4 0 0 1-2.674-.515c.241-.841.541-1.709.88-2.576.27.53.555 1.052.855 1.565.303.515.616 1.024.94 1.526Zm4.82-13.573a26.855 26.855 0 0 1 1.814 2.087A40.386 40.386 0 0 0 16 7.604c-.613 0-1.22.013-1.813.046a25.455 25.455 0 0 1 1.793-2.087Zm-4.826 3.842a35.96 35.96 0 0 0-1.787 3.111 27.95 27.95 0 0 1-.9-2.596 31.82 31.82 0 0 1 2.687-.515ZM5.251 17.57c-2.31-.985-3.803-2.276-3.803-3.3s1.494-2.322 3.803-3.3a20.14 20.14 0 0 1 1.806-.66 31.35 31.35 0 0 0 1.468 3.973 30.914 30.914 0 0 0-1.448 3.952 19.855 19.855 0 0 1-1.826-.665Zm3.509 9.32c-.887-.508-1.272-2.445-.972-4.937.072-.613.19-1.259.332-1.917a31.56 31.56 0 0 0 4.143.71 31.801 31.801 0 0 0 2.713 3.262c-2.127 1.976-4.123 3.06-5.479 3.06-.293-.008-.541-.066-.737-.177Zm15.472-4.97c.306 2.492-.072 4.43-.953 4.945-.195.117-.45.17-.75.17-1.35 0-3.352-1.077-5.479-3.04a30.804 30.804 0 0 0 2.694-3.255 30.399 30.399 0 0 0 4.148-.718c.15.66.268 1.292.34 1.899Zm2.51-4.35c-.56.241-1.173.457-1.806.659a31.343 31.343 0 0 0-1.468-3.973c.6-1.356 1.083-2.68 1.448-3.952.622.193 1.233.415 1.833.665 2.31.985 3.803 2.277 3.803 3.3-.006 1.025-1.5 2.323-3.81 3.301Z"/><path d="M15.994 17.252a2.98 2.98 0 1 0 0-5.962 2.98 2.98 0 0 0 0 5.962Z"/></g><defs><clipPath id="a"><path fill="#fff" d="M0 0h32v28.75H0z"/></clipPath></defs></svg>