<svg width="128" height="115" fill="none" xmlns="http://www.w3.org/2000/svg"><path d="M128 57.083c0-8.48-10.619-16.515-26.899-21.499 3.757-16.593 2.087-29.795-5.27-34.022-1.697-.991-3.68-1.46-5.845-1.46v5.817c1.2 0 2.166.235 2.974.679 3.549 2.035 5.088 9.784 3.888 19.75-.287 2.453-.757 5.036-1.33 7.67-5.114-1.251-10.698-2.217-16.568-2.843-3.522-4.827-7.175-9.21-10.854-13.045 8.506-7.906 16.49-12.237 21.916-12.237V.075c-7.175 0-16.567 5.114-26.064 13.985C54.45 5.24 45.058.18 37.883.18v5.818c5.401 0 13.41 4.305 21.916 12.158a123.227 123.227 0 0 0-10.775 13.02c-5.896.625-11.48 1.59-16.593 2.869a78.707 78.707 0 0 1-1.357-7.566c-1.227-9.967.287-17.716 3.809-19.777.783-.47 1.8-.678 3-.678V.206c-2.191 0-4.174.47-5.896 1.46-7.331 4.227-8.975 17.403-5.192 33.945C10.567 40.62 0 48.63 0 57.083c0 8.48 10.619 16.515 26.9 21.499-3.758 16.593-2.088 29.795 5.27 34.022 1.695.991 3.678 1.461 5.87 1.461 7.175 0 16.567-5.114 26.064-13.985 9.497 8.819 18.89 13.88 26.065 13.88 2.191 0 4.174-.469 5.896-1.461 7.332-4.227 8.975-17.402 5.192-33.944C117.433 73.572 128 65.536 128 57.083ZM94.03 39.68c-.965 3.365-2.165 6.835-3.522 10.305a123.506 123.506 0 0 0-3.418-6.261c-1.2-2.088-2.478-4.123-3.757-6.106 3.705.548 7.28 1.227 10.697 2.062ZM82.08 67.467c-2.034 3.522-4.122 6.862-6.287 9.966-3.888.34-7.827.522-11.793.522-3.94 0-7.88-.182-11.74-.495a143.794 143.794 0 0 1-6.315-9.915 135.888 135.888 0 0 1-5.426-10.384 136.058 136.058 0 0 1 5.4-10.41c2.035-3.522 4.123-6.862 6.288-9.966 3.888-.34 7.827-.522 11.793-.522 3.94 0 7.88.182 11.74.495a143.819 143.819 0 0 1 6.315 9.915 135.908 135.908 0 0 1 5.426 10.384 146.073 146.073 0 0 1-5.4 10.41Zm8.428-3.392a111.792 111.792 0 0 1 3.6 10.384 117.09 117.09 0 0 1-10.749 2.087c1.279-2.009 2.557-4.07 3.757-6.183 1.2-2.087 2.322-4.2 3.392-6.288ZM64.052 91.914c-2.426-2.505-4.853-5.297-7.253-8.35 2.348.105 4.748.183 7.175.183 2.452 0 4.879-.052 7.253-.182a101.855 101.855 0 0 1-7.175 8.349ZM44.641 76.546c-3.705-.547-7.28-1.226-10.697-2.06.965-3.366 2.165-6.836 3.522-10.306a123.549 123.549 0 0 0 3.418 6.261 172.977 172.977 0 0 0 3.757 6.105Zm19.28-54.294c2.427 2.505 4.854 5.297 7.254 8.35A161.456 161.456 0 0 0 64 30.417c-2.453 0-4.879.053-7.253.183a101.855 101.855 0 0 1 7.175-8.349ZM44.616 37.62c-1.279 2.01-2.557 4.07-3.757 6.184a147.444 147.444 0 0 0-3.392 6.262 111.802 111.802 0 0 1-3.6-10.384 126.702 126.702 0 0 1 10.749-2.062ZM21.003 70.285c-9.236-3.94-15.21-9.106-15.21-13.202s5.974-9.288 15.21-13.202c2.244-.965 4.696-1.826 7.227-2.635 1.487 5.114 3.444 10.436 5.87 15.89-2.4 5.426-4.33 10.722-5.792 15.81-2.583-.809-5.035-1.696-7.305-2.661Zm14.036 37.283c-3.548-2.035-5.087-9.784-3.887-19.75.287-2.453.757-5.036 1.33-7.671 5.114 1.252 10.698 2.218 16.568 2.844 3.522 4.826 7.175 9.21 10.854 13.045-8.506 7.905-16.49 12.237-21.916 12.237-1.174-.027-2.166-.261-2.949-.705Zm61.887-19.88c1.227 9.966-.287 17.715-3.809 19.776-.783.469-1.8.678-3 .678-5.401 0-13.41-4.305-21.916-12.158a123.228 123.228 0 0 0 10.775-13.02c5.896-.626 11.48-1.59 16.594-2.87.6 2.636 1.07 5.167 1.356 7.593Zm10.045-17.403c-2.244.965-4.696 1.826-7.227 2.635-1.487-5.114-3.444-10.436-5.87-15.89 2.4-5.426 4.33-10.722 5.792-15.81a82.726 82.726 0 0 1 7.331 2.661c9.236 3.94 15.211 9.106 15.211 13.202-.026 4.096-6.001 9.288-15.237 13.202Z" fill="#61DAFB"/><path d="M63.974 69.006c6.585 0 11.923-5.338 11.923-11.923S70.56 45.16 63.974 45.16 52.05 50.498 52.05 57.083s5.338 11.923 11.923 11.923Z" fill="#61DAFB"/></svg>