<svg width="500" height="500" fill="none" xmlns="http://www.w3.org/2000/svg"><path d="M339.096 21c29.124.941 53.668 7.688 73.628 20.24 17.999 11.925 29.943 28.714 35.833 50.366 3.927 19.457-.163 42.992-12.271 70.607-9.49 20.711-25.198 42.364-47.123 64.958-17.998 16.946-38.94 32.635-62.829 47.071-23.561 14.435-44.995 23.849-64.303 28.242l3.437 11.768c2.291 7.845 6.053 17.26 11.289 28.242 5.563 10.67 11.944 21.34 19.143 32.009 7.527 10.356 17.017 18.829 28.471 25.419 11.781 6.589 24.051 8.942 36.814 7.06-23.234 17.26-47.122 31.223-71.666 41.893-24.215 10.355-43.032 12.709-56.448 7.061-9.817-6.276-17.507-16.475-23.07-30.597-3.272-6.903-8.672-23.535-16.199-49.895-1.963-8.472-4.417-16.318-7.362-23.535l-11.781 31.067c-5.236 13.494-9.162 23.535-11.78 30.125-1.309 2.825-2.291 5.178-2.946 7.06-.654 1.569-1.145 2.512-1.472 2.825 0 .314-.327 1.256-.982 2.825-.327 1.568-1.145 3.765-2.454 6.59L49 479a998.314 998.314 0 0 1 3.927-8.942c.982-2.197 2.618-5.65 4.908-10.356 2.946-7.218 8.509-20.869 16.69-40.953 8.508-20.397 14.889-36.087 19.143-47.07 23.234-58.995 39.759-98.849 49.576-119.561 10.472-25.732 20.126-53.817 28.961-84.257l106.515-49.424c-6.216 19.77-17.179 49.111-32.886 88.023-12.435 27.614-21.435 48.326-26.998 62.133h21.598c8.835-.313 13.744-.471 14.725-.471 9.818-.313 21.272-1.882 34.36-4.707 19.635-20.083 33.543-38.441 41.723-55.073 12.109-24.79 17.18-45.972 15.217-63.545-5.236-19.143-15.707-33.421-31.414-42.835-17.344-10.042-40.415-15.376-69.211-16.004-37.306.628-67.739 4.236-91.3 10.826h-.491L76.979 113.73c63.811-44.247 120.097-72.333 168.855-84.257C268.74 23.824 299.827 21 339.096 21Z" fill="#fff"/></svg>