<svg xmlns="http://www.w3.org/2000/svg" width="20" height="20" fill="none"><path fill="#38a169" fill-rule="evenodd" d="M12.586 4.586a1.9998 1.9998 0 0 1 3.4385 1.4068 2.0002 2.0002 0 0 1-.6105 1.4212l-3 3a2.0003 2.0003 0 0 1-2.828 0 .9998.9998 0 0 0-1.4019.0122 1 1 0 0 0-.0121 1.4018 4 4 0 0 0 5.656 0l3-3a4.0002 4.0002 0 0 0-.0488-5.6073 3.9997 3.9997 0 0 0-5.6072-.0487l-1.5 1.5a1 1 0 1 0 1.414 1.414l1.5-1.5Zm-5 5a2 2 0 0 1 2.828 0 .9996.9996 0 0 0 1.0979.2308 1.0003 1.0003 0 0 0 .6213-.9342.9992.9992 0 0 0-.3052-.7106 4.0003 4.0003 0 0 0-5.656 0l-3 3a4.0005 4.0005 0 0 0-.9233 4.3918 4.0004 4.0004 0 0 0 3.7369 2.4852 4.0004 4.0004 0 0 0 2.8424-1.221l1.5-1.5a1.0006 1.0006 0 0 0 .3052-.7106.999.999 0 0 0-.2928-.7158 1.0004 1.0004 0 0 0-1.4264.0124l-1.5 1.5a2 2 0 1 1-2.828-2.828l3-3Z" clip-rule="evenodd"/></svg>